<svg width="24" height="24" viewBox="0 0 24 24" fill="none" xmlns="http://www.w3.org/2000/svg">
<path d="M22.5612 6.81032C22.3197 5.90093 21.6081 5.18472 20.7046 4.94166C19.0669 4.5 12.5 4.5 12.5 4.5C12.5 4.5 5.93315 4.5 4.29544 4.94166C3.39193 5.18476 2.68033 5.90093 2.43882 6.81032C2 8.45864 2 11.8977 2 11.8977C2 11.8977 2 15.3368 2.43882 16.9851C2.68033 17.8945 3.39193 18.5809 4.29544 18.8239C5.93315 19.2656 12.5 19.2656 12.5 19.2656C12.5 19.2656 19.0669 19.2656 20.7046 18.8239C21.6081 18.5809 22.3197 17.8945 22.5612 16.9851C23 15.3368 23 11.8977 23 11.8977C23 11.8977 23 8.45864 22.5612 6.81032V6.81032ZM10.3523 15.0201V8.7753L15.8409 11.8978L10.3523 15.0201H10.3523Z" fill="white"/>
</svg>
