<svg width="24" height="24" viewBox="0 0 24 24" fill="none" xmlns="http://www.w3.org/2000/svg">
<path d="M13.002 7.38405C10.4481 7.38405 8.38806 9.44406 8.38806 11.998C8.38806 14.5519 10.4481 16.6119 13.002 16.6119C15.5559 16.6119 17.6159 14.5519 17.6159 11.998C17.6159 9.44406 15.5559 7.38405 13.002 7.38405ZM13.002 14.9977C11.3516 14.9977 10.0023 13.6524 10.0023 11.998C10.0023 10.3436 11.3476 8.99832 13.002 8.99832C14.6564 8.99832 16.0017 10.3436 16.0017 11.998C16.0017 13.6524 14.6524 14.9977 13.002 14.9977ZM18.8809 7.19531C18.8809 7.79364 18.399 8.2715 17.8047 8.2715C17.2064 8.2715 16.7285 7.78962 16.7285 7.19531C16.7285 6.601 17.2104 6.11913 17.8047 6.11913C18.399 6.11913 18.8809 6.601 18.8809 7.19531ZM21.9368 8.28756C21.8685 6.84596 21.5392 5.56899 20.4831 4.5169C19.431 3.46481 18.154 3.13553 16.7124 3.06325C15.2267 2.97892 10.7733 2.97892 9.28756 3.06325C7.84997 3.13151 6.57301 3.46079 5.5169 4.51288C4.46079 5.56497 4.13553 6.84194 4.06325 8.28355C3.97892 9.76932 3.97892 14.2226 4.06325 15.7084C4.13151 17.15 4.46079 18.427 5.5169 19.4791C6.57301 20.5312 7.84596 20.8605 9.28756 20.9327C10.7733 21.0171 15.2267 21.0171 16.7124 20.9327C18.154 20.8645 19.431 20.5352 20.4831 19.4791C21.5352 18.427 21.8645 17.15 21.9368 15.7084C22.0211 14.2226 22.0211 9.77334 21.9368 8.28756L21.9368 8.28756ZM20.0173 17.3026C19.7041 18.0897 19.0977 18.696 18.3066 19.0133C17.122 19.4831 14.3111 19.3747 13.002 19.3747C11.6929 19.3747 8.87797 19.4791 7.69738 19.0133C6.91032 18.7001 6.30396 18.0937 5.98673 17.3026C5.5169 16.118 5.62532 13.3071 5.62532 11.998C5.62532 10.6889 5.52091 7.87395 5.98673 6.69336C6.29994 5.9063 6.9063 5.29994 7.69738 4.98271C8.88199 4.51288 11.6929 4.62131 13.002 4.62131C14.3111 4.62131 17.126 4.5169 18.3066 4.98271C19.0937 5.29593 19.7001 5.90229 20.0173 6.69336C20.4871 7.87797 20.3787 10.6889 20.3787 11.998C20.3787 13.3071 20.4871 16.122 20.0173 17.3026Z" fill="white"/>
</svg>
