<svg width="24" height="24" viewBox="0 0 24 24" fill="none" xmlns="http://www.w3.org/2000/svg">
<path d="M20.4956 8.44702C20.508 8.62023 20.508 8.79348 20.508 8.9667C20.508 14.25 16.4867 20.3376 9.13708 20.3376C6.87278 20.3376 4.76937 19.6818 3 18.5435C3.32171 18.5806 3.63101 18.593 3.9651 18.593C5.83342 18.593 7.55331 17.962 8.92673 16.8855C7.16974 16.8484 5.69733 15.6977 5.19003 14.1139C5.43751 14.151 5.68496 14.1758 5.94482 14.1758C6.30363 14.1758 6.66247 14.1263 6.99653 14.0397C5.16531 13.6685 3.79185 12.06 3.79185 10.1174V10.0679C4.32387 10.3649 4.94258 10.5505 5.59831 10.5752C4.52184 9.85753 3.8166 8.63261 3.8166 7.24681C3.8166 6.50443 4.01454 5.82391 4.36101 5.23C6.32834 7.65513 9.28554 9.23886 12.6015 9.41212C12.5397 9.11516 12.5025 8.80586 12.5025 8.49653C12.5025 6.29408 14.2843 4.5 16.499 4.5C17.6497 4.5 18.6891 4.98255 19.4191 5.76206C20.3223 5.58884 21.1884 5.25475 21.9556 4.79696C21.6586 5.72496 21.0276 6.50447 20.1986 6.99936C21.0029 6.91279 21.7824 6.69003 22.5 6.38073C21.9557 7.17258 21.2751 7.87782 20.4956 8.44701V8.44702Z" fill="white"/>
</svg>
