<svg width="20" height="17" viewBox="0 0 20 17" fill="none" xmlns="http://www.w3.org/2000/svg">
<path d="M17.4956 4.44702C17.508 4.62023 17.508 4.79348 17.508 4.9667C17.508 10.25 13.4867 16.3376 6.13708 16.3376C3.87278 16.3376 1.76937 15.6818 0 14.5435C0.321713 14.5806 0.63101 14.593 0.965102 14.593C2.83342 14.593 4.55331 13.962 5.92673 12.8855C4.16974 12.8484 2.69733 11.6977 2.19003 10.1139C2.43751 10.151 2.68496 10.1758 2.94482 10.1758C3.30363 10.1758 3.66247 10.1263 3.99653 10.0397C2.16531 9.66847 0.791848 8.05997 0.791848 6.1174V6.06792C1.32387 6.36488 1.94258 6.55047 2.59831 6.57519C1.52184 5.85753 0.816604 4.63261 0.816604 3.24681C0.816604 2.50443 1.01454 1.82391 1.36101 1.23C3.32834 3.65513 6.28554 5.23886 9.6015 5.41212C9.53965 5.11516 9.50252 4.80586 9.50252 4.49653C9.50252 2.29408 11.2843 0.5 13.499 0.5C14.6497 0.5 15.6891 0.982551 16.4191 1.76206C17.3223 1.58884 18.1884 1.25475 18.9556 0.796957C18.6586 1.72496 18.0276 2.50447 17.1986 2.99936C18.0029 2.91279 18.7824 2.69003 19.5 2.38073C18.9557 3.17258 18.2751 3.87782 17.4956 4.44701V4.44702Z" fill="white"/>
</svg>
