<svg width="233" height="201" viewBox="0 0 233 201" fill="none" xmlns="http://www.w3.org/2000/svg">
<path d="M171.429 163.66C171.41 163.657 171.24 163.631 170.981 163.562C169.444 163.2 163.964 161.738 157.344 157.973C153.563 155.823 150.032 153.273 146.849 150.396C143.459 147.332 140.442 143.872 137.858 140.09C137.634 143.215 136.369 146.194 134.138 148.804C131.662 151.701 128.169 153.907 124.301 155.016C121.92 155.699 119.541 155.933 117.229 155.712C114.761 155.476 112.496 154.729 110.499 153.491C108.527 152.268 106.861 150.588 105.548 148.498C104.48 146.797 103.648 144.825 103.064 142.613C101.628 146.698 99.538 150.177 96.8333 152.975C94.0189 155.887 90.5546 157.993 86.815 159.065C80.4933 160.879 73.8777 159.629 69.5499 155.804C66.3715 152.995 64.7353 149.086 64.8117 144.605C63.1074 147.337 61.131 149.627 58.9255 151.424C56.6583 153.271 54.1546 154.596 51.4841 155.362C51.4835 155.362 51.4825 155.363 51.4819 155.363C46.6551 156.747 41.4221 156.254 36.7456 153.975C32.3078 151.813 28.871 148.25 27.3164 144.201C25.8808 140.462 26.1147 136.581 27.9929 132.979C29.0162 131.016 30.5256 129.149 32.4792 127.429C33.9771 126.11 35.7485 124.868 37.7659 123.721C35.1357 123.78 32.6615 123.56 30.3826 123.064C27.5178 122.439 24.9565 121.379 22.77 119.911C20.7165 118.532 19.0163 116.813 17.7163 114.802C16.4801 112.889 15.6373 110.764 15.2113 108.486C14.7845 106.203 14.7919 103.863 15.2333 101.53C15.6789 99.1755 16.5467 96.9372 17.8127 94.8776C19.1323 92.731 20.8379 90.8588 22.8824 89.313C25.0569 87.6688 27.5721 86.4301 30.3581 85.6312C34.3583 84.4841 38.8214 84.258 43.659 84.9535C40.1011 82.4266 37.4346 79.4737 35.7137 76.1486C34.742 74.271 34.0782 72.2752 33.7407 70.2166C33.419 68.2545 33.391 66.2222 33.6575 64.1759C35.0245 53.6805 43.9847 43.7781 54.9628 40.6302C60.9997 38.8991 67.1011 39.3604 72.6076 41.9641C75.6447 43.4002 78.5011 45.4878 81.0974 48.169C82.989 50.1225 84.7573 52.4073 86.3804 54.9925C85.1823 48.5912 85.9522 42.6617 88.665 37.6495C90.2049 34.8045 92.317 32.3391 94.9429 30.3217C97.4443 28.4 100.289 26.9735 103.399 26.0818C109.891 24.2201 116.758 24.9642 122.238 28.1233C127.624 31.2283 131.385 36.4337 133.13 43.1925C134.71 37.9635 137.127 33.6099 140.323 30.2414C143.352 27.0486 146.974 24.8317 151.087 23.6522C155.976 22.2503 161.358 22.4457 166.24 24.2026C171.075 25.9425 175.089 29.0816 177.543 33.0416C179.886 36.8227 180.721 41.2143 179.958 45.7417C179.212 50.1708 176.998 54.6468 173.366 59.0767C177.105 56.8765 180.737 55.2645 184.192 54.2738C187.527 53.3176 190.712 52.9354 193.658 53.1379C196.435 53.3287 198.994 54.0357 201.264 55.2394C203.416 56.3811 205.277 57.9497 206.794 59.9018C208.255 61.7807 209.358 63.9632 210.075 66.3888C210.992 69.491 211.236 72.9446 210.781 76.3762C210.305 79.9756 209.108 83.4561 207.225 86.7209C205.209 90.2183 202.486 93.3101 199.132 95.9103C195.99 98.3467 192.341 100.309 188.26 101.759C192.031 102.81 195.028 104.503 197.187 106.804C199.475 109.244 200.753 112.353 200.881 115.796C200.965 118.041 200.572 120.367 199.713 122.71C198.871 125.008 197.621 127.213 195.999 129.264C192.581 133.584 187.806 136.792 182.554 138.299C182.553 138.299 182.552 138.3 182.551 138.3C178.346 139.506 173.971 139.622 169.546 138.645C164.702 137.575 159.909 135.206 155.295 131.601C155.26 131.674 155.234 131.733 155.218 131.774C154.448 133.736 154.448 136.299 155.216 139.395C155.899 142.148 157.202 145.295 158.984 148.495C162.261 154.383 166.858 159.906 170.163 161.926C170.578 162.179 170.997 162.323 171.278 162.4C171.51 162.454 171.635 162.479 171.636 162.479L171.429 163.66ZM137.822 137.852C140.568 142.169 143.877 146.09 147.658 149.508C150.776 152.327 154.236 154.825 157.941 156.932C161.534 158.975 164.776 160.324 167.208 161.18C166.102 160.195 164.925 158.964 163.718 157.524C161.603 155 159.603 152.079 157.932 149.078C156.1 145.787 154.757 142.539 154.049 139.685C153.22 136.344 153.236 133.537 154.097 131.344C154.282 130.863 155.263 129.112 155.496 128.738L155.863 128.148L156.395 128.595C156.56 128.734 156.804 129.055 156.583 129.65C156.502 129.868 156.374 130.097 156.249 130.318C156.193 130.418 156.114 130.558 156.057 130.673C160.525 134.159 165.149 136.446 169.809 137.475C174.035 138.408 178.211 138.298 182.221 137.149C182.222 137.149 182.223 137.148 182.224 137.148C187.236 135.71 191.793 132.647 195.055 128.524C196.598 126.573 197.786 124.479 198.584 122.301C199.389 120.105 199.757 117.932 199.68 115.843C199.622 114.301 199.318 112.832 198.775 111.477C198.208 110.06 197.378 108.764 196.308 107.624C193.962 105.123 190.518 103.387 186.071 102.461C185.623 102.527 184.998 102.402 184.072 102.204L183.918 102.171L183.569 102.131C183.014 102.068 182.535 102.013 182.275 101.976L182.211 100.803C182.641 100.692 183.299 100.814 184.115 100.987C184.984 101.087 185.653 101.168 186.037 101.233C190.739 99.7873 194.896 97.6789 198.395 94.9654C201.624 92.4615 204.245 89.4873 206.183 86.1257C207.987 82.9975 209.133 79.6654 209.589 76.2221C210.022 72.9551 209.791 69.6726 208.922 66.7295C208.247 64.4473 207.212 62.3974 205.843 60.6366C204.431 58.819 202.699 57.3591 200.697 56.2973C198.577 55.1731 196.18 54.5122 193.573 54.3331C190.767 54.1402 187.721 54.5076 184.522 55.425C180.543 56.5661 176.309 58.5626 171.939 61.3592C171.569 61.5975 170.427 62.3888 169.593 62.9666C169.253 63.2022 168.967 63.4005 168.809 63.5086L168.039 62.5974C168.248 62.3841 168.753 61.967 169.337 61.484C169.869 61.044 170.532 60.4964 170.698 60.3151C175.234 55.3943 177.95 50.4254 178.772 45.5458C179.486 41.3091 178.707 37.2034 176.519 33.6726C174.207 29.9412 170.411 26.9782 165.829 25.3295C161.183 23.6576 156.065 23.4708 151.417 24.8034C147.514 25.9227 144.075 28.0289 141.196 31.0634C137.981 34.4525 135.581 38.8994 134.063 44.2806C133.936 44.7343 133.671 45.6807 133.902 47.4061L132.714 47.5922C132.678 47.3928 132.622 47.0541 132.557 46.6621C132.399 45.7132 132.161 44.2794 132.049 43.8266C130.424 37.2232 126.823 32.1517 121.634 29.1607C116.435 26.1636 109.909 25.461 103.729 27.233C100.766 28.0827 98.0563 29.4409 95.6756 31.2699C93.1847 33.1836 91.1819 35.5207 89.723 38.2163C86.5774 44.0281 86.1855 51.1697 88.5894 58.8726C88.76 59.2373 88.8585 59.8128 88.9625 60.4204C88.9882 60.5705 89.0138 60.7204 89.0403 60.8647C89.075 61.0232 89.1726 61.4658 89.2579 61.699L88.1505 62.1644C88.0432 61.9409 87.9594 61.6332 87.8615 61.1039L87.8614 61.1031C87.8147 60.8895 87.7684 60.665 87.7235 60.4479C87.6351 60.0197 87.5439 59.5778 87.4694 59.3222C85.3524 55.2477 82.9174 51.7757 80.2313 49.0019C77.7356 46.4245 74.9965 44.4209 72.0902 43.0466C66.8522 40.5699 61.0438 40.1324 55.2929 41.7814C50.2105 43.2388 45.3554 46.3074 41.6219 50.4221C37.8866 54.5389 35.4815 59.4772 34.8498 64.3276C34.3295 68.3223 34.9797 72.1141 36.7825 75.5976C38.773 79.4438 42.1163 82.7783 46.7207 85.5099C47.1094 85.6203 47.7743 85.9279 48.7749 86.3993L49.0018 86.5061C49.8238 86.8455 50.4243 87.0957 50.6687 87.2241L50.238 88.3346C49.9343 88.2576 49.3969 88.0176 48.5128 87.602L48.4333 87.5692C47.3684 87.1296 46.6184 86.8169 46.2737 86.6363L46.264 86.6342C40.5129 85.418 35.273 85.4678 30.6882 86.7824C28.0456 87.5402 25.6634 88.7125 23.6078 90.2667C21.6833 91.7218 20.0784 93.4831 18.8376 95.5017C17.6483 97.4365 16.8331 99.5387 16.4148 101.75C16.0011 103.936 15.9939 106.128 16.3933 108.264C16.7906 110.388 17.576 112.369 18.7276 114.152C19.9389 116.026 21.5255 117.629 23.4432 118.917C25.5037 120.3 27.9257 121.301 30.6419 121.893C33.5634 122.53 36.8292 122.692 40.3506 122.375C40.3996 122.356 40.4545 122.339 40.5173 122.321C40.8301 122.231 41.3108 122.143 41.8197 122.049L41.882 122.037C42.5567 121.872 43.015 121.763 43.2262 121.738L43.5398 122.879C43.4748 122.908 43.3962 122.936 43.2995 122.964C43.0282 123.042 42.6107 123.121 42.1323 123.209L42.0974 123.218C41.4094 123.386 40.9396 123.5 40.6712 123.543C37.7428 124.974 35.2544 126.583 33.2741 128.326C31.4322 129.948 30.0142 131.698 29.0595 133.529C27.3445 136.819 27.13 140.36 28.4395 143.771C29.8868 147.541 33.1075 150.868 37.2757 152.899C41.6841 155.047 46.6122 155.513 51.1518 154.212C51.1526 154.211 51.153 154.211 51.1539 154.211C53.6666 153.49 56.0257 152.241 58.1657 150.497C60.5085 148.589 62.5861 146.087 64.3406 143.061C64.5302 142.732 64.9855 141.792 65.3513 141.038C65.5694 140.587 65.7577 140.199 65.8688 139.982L66.9921 140.376C66.9434 140.605 66.8021 140.897 66.575 141.352C66.4625 141.577 66.2747 141.953 66.2469 142.069C65.8073 144.771 65.9766 147.284 66.7505 149.537C67.467 151.623 68.6776 153.43 70.3488 154.907C74.372 158.463 80.555 159.615 86.4848 157.914C90.0213 156.9 93.3006 154.905 95.9683 152.145C98.9986 149.01 101.226 144.967 102.589 140.129L103.759 140.183C104.291 143.158 105.237 145.741 106.568 147.861C107.783 149.796 109.32 151.347 111.136 152.473C112.975 153.613 115.064 154.301 117.346 154.52C119.507 154.726 121.736 154.506 123.971 153.865C127.613 152.82 130.899 150.748 133.223 148.029C135.692 145.141 136.881 141.774 136.667 138.284C136.543 138.106 136.339 137.837 136.142 137.575L136.017 137.409C135.643 137.001 135.354 136.658 135.292 136.298L136.4 135.886C136.498 136.049 136.789 136.436 136.944 136.642L137.006 136.71C137.383 137.118 137.715 137.479 137.822 137.852Z" fill="#222222"/>
<path d="M67.2458 100.068C67.1395 100.056 67.0388 100.038 66.9435 100.011C66.8482 99.9853 66.7585 99.9518 66.6742 99.9109C66.184 99.2154 65.8831 98.424 65.7714 97.5368C65.6598 96.6496 65.4799 95.7885 65.2318 94.9534C65.2429 94.8464 65.2613 94.745 65.2871 94.6491C65.3129 94.5532 65.346 94.4629 65.3864 94.3781C66.0465 94.0481 66.7634 93.7958 67.5369 93.6212C68.3105 93.4465 69.095 93.3033 69.8905 93.1915C70.4329 93.1417 70.9782 93.1112 71.5261 93.1001C72.0741 93.0889 72.5953 93.1673 73.0899 93.335L73.1008 93.4126L73.1778 93.4017C73.4376 93.7606 73.6057 94.1654 73.6821 94.616C73.7585 95.0666 73.8294 95.5245 73.8948 95.9898C73.9363 96.4717 73.977 96.947 74.0167 97.416C74.0564 97.8849 74.0156 98.3388 73.8941 98.7776C73.5787 98.9538 73.2459 99.0994 72.8957 99.2145C72.5455 99.3296 72.1634 99.4031 71.7492 99.4349L71.7052 99.4016L67.7022 99.9642L67.2458 100.068ZM72.4989 97.7874L72.4825 97.6711C72.4794 97.2761 72.4556 96.8742 72.4112 96.4652C72.3668 96.0563 72.3155 95.645 72.2574 95.2314L72.1372 94.6552C71.6094 94.6239 71.0743 94.6332 70.5318 94.6831C69.9893 94.733 69.4358 94.7976 68.8713 94.8769L66.9025 95.3908L66.9406 95.6623C67.0794 96.0909 67.1828 96.5476 67.2509 97.0323C67.3191 97.517 67.4115 97.9884 67.5282 98.4465L71.6082 97.8731L72.4989 97.7874ZM65.4539 93.1824L65.0032 93.048C64.8989 92.9572 64.8161 92.8568 64.7548 92.7468C64.6936 92.6368 64.6667 92.5154 64.6742 92.3825L64.8506 91.9623C65.2743 91.7182 65.7637 91.5703 66.3191 91.5187C66.8744 91.467 67.3986 91.3801 67.8917 91.2581L67.868 90.3915L67.6501 88.8405L67.5538 88.854L66.5447 89.0749L64.447 89.3697L63.3747 89.5599L62.9049 89.4283C62.8133 89.3357 62.7402 89.2339 62.6853 89.123C62.6305 89.0121 62.6068 88.8902 62.6143 88.7574L62.7523 88.3426C62.9431 88.118 63.1742 87.9933 63.4454 87.9683C63.7167 87.9434 63.9788 87.9 64.2318 87.8381L66.291 87.5487L67.3963 87.3142L67.1783 85.7632L67.0061 84.957C67.0265 84.8223 67.0468 84.6877 67.0671 84.553C67.0874 84.4184 67.1288 84.2939 67.1913 84.1797C67.3087 84.0841 67.4288 84.0079 67.5517 83.9511C67.6745 83.8943 67.8019 83.8698 67.9338 83.8776L68.3845 84.012C68.476 84.1046 68.5556 84.2054 68.6232 84.3146C68.6909 84.4237 68.721 84.5447 68.7135 84.6775L68.7593 85.4224L68.8225 85.453L69.0459 87.0428L69.2769 87.0104L71.3938 86.7129C71.9107 86.6666 72.4312 86.6 72.9554 86.5132C73.4796 86.4263 73.9836 86.428 74.4673 86.5182C74.5606 86.6237 74.6411 86.731 74.7088 86.8401C74.7764 86.9492 74.7937 87.072 74.7605 87.2085L74.6226 87.6233C74.5052 87.7189 74.3722 87.7969 74.2237 87.8573C74.0752 87.9177 73.9176 87.9596 73.7508 87.9831C73.2155 88.0847 72.6758 88.1539 72.1314 88.1909C71.5871 88.2278 71.0309 88.2731 70.4627 88.3265L69.2997 88.5691L69.5449 90.314L69.5882 90.901L71.6198 90.6946C71.88 90.6844 72.1343 90.6552 72.3827 90.6072C72.6311 90.5591 72.8624 90.5991 73.0767 90.7271C73.181 90.8179 73.2638 90.9183 73.325 91.0283C73.3863 91.1383 73.415 91.2727 73.4111 91.4314L73.2347 91.8516C73.064 92.0338 72.8367 92.1382 72.5526 92.165C72.2685 92.1917 71.9853 92.2249 71.7031 92.2646L71.6591 92.2312L69.5313 92.4512C68.9007 92.6189 68.2472 92.7635 67.5708 92.8849C66.8945 93.0063 66.1888 93.1055 65.4539 93.1824ZM93.0561 96.5986L92.6439 96.4588C92.5817 96.3885 92.525 96.3108 92.4738 96.2257C92.4226 96.1407 92.3769 96.0482 92.3367 95.9484L92.0697 94.0484L91.9304 93.3365L91.8265 92.8766L91.7178 91.8242L91.2559 91.8891C90.7977 91.9799 90.3559 92.0947 89.9306 92.2335C89.5053 92.3724 89.0488 92.4761 88.5613 92.5446L88.1491 92.4048C88.0576 92.3122 87.9844 92.2105 87.9296 92.0996C87.8748 91.9887 87.8511 91.8668 87.8586 91.7339L87.9965 91.3191C88.51 91.0624 89.0646 90.8658 89.6603 90.7294C90.2561 90.5929 90.8454 90.4574 91.4283 90.3228L91.3847 90.0125L91.259 89.3975L91.2703 89.1982L91.0008 89.2361L90.3905 89.3614C90.2842 89.35 90.1834 89.3312 90.0882 89.3051C89.9929 89.2789 89.9031 89.2454 89.8189 89.2045C89.7274 89.1119 89.6542 89.0102 89.5994 88.8993C89.5445 88.7883 89.5208 88.6665 89.5283 88.5336L89.6663 88.1188C89.8498 87.9348 90.0771 87.8304 90.3484 87.8055C90.6196 87.7805 90.8799 87.7242 91.1293 87.6364L90.9934 86.3902L90.6085 86.4442L88.8543 86.8094L88.4421 86.6696C88.3506 86.577 88.2774 86.4753 88.2226 86.3644C88.1678 86.2535 88.1441 86.1316 88.1516 85.9987L88.2895 85.5839C88.451 85.4294 88.6454 85.323 88.8727 85.2647C89.1 85.2064 89.3419 85.1592 89.5985 85.1231L89.5822 85.0068C89.3224 84.6479 89.0878 84.2822 88.8785 83.9096C88.6691 83.537 88.5079 83.1346 88.3948 82.7023L88.5328 82.2875C88.6245 82.1955 88.7254 82.122 88.8354 82.067C88.9454 82.012 89.0664 81.9884 89.1983 81.9963L89.6105 82.1361C89.8482 82.5244 90.0938 82.9216 90.3471 83.3275C90.6004 83.7335 90.7982 84.1637 90.9406 84.6182L90.9348 84.8563L91.974 84.7102L91.9631 84.6326L91.8702 84.2503C92.0375 83.7655 92.1856 83.2833 92.3145 82.8039C92.4434 82.3245 92.6071 81.8599 92.8055 81.4102C92.9101 81.3164 93.0174 81.2421 93.1274 81.187C93.2374 81.132 93.3584 81.1085 93.4903 81.1163L93.9025 81.2561C93.994 81.3486 94.0672 81.4504 94.122 81.5613C94.1769 81.6722 94.2024 81.807 94.1985 81.9658L93.4559 84.5019C93.6355 84.4767 93.817 84.4644 94.0002 84.465C94.1835 84.4656 94.3594 84.5068 94.5279 84.5885C94.6194 84.6811 94.6925 84.7829 94.7474 84.8938C94.8022 85.0047 94.8259 85.1266 94.8184 85.2595L94.6804 85.6743C94.5887 85.7662 94.475 85.8415 94.3393 85.9001C94.2036 85.9588 94.0588 85.9989 93.9048 86.0205L92.4945 86.1792L92.6689 87.42C92.8742 87.3912 93.0794 87.3623 93.2847 87.3335C93.49 87.3046 93.6851 87.3431 93.8701 87.4489C93.9616 87.5415 94.0348 87.6432 94.0896 87.7542C94.1445 87.8651 94.1681 87.987 94.1606 88.1198L94.0227 88.5346C93.8484 88.6909 93.6595 88.79 93.456 88.8317C93.2526 88.8735 93.0354 88.9106 92.8044 88.9431L92.8419 89.7682L92.9294 90.1118L95.4121 89.7629C95.621 89.7599 95.8281 89.7439 96.0334 89.7151C96.2386 89.6862 96.4273 89.7256 96.5995 89.8332C96.691 89.9258 96.7642 90.0276 96.819 90.1385C96.8738 90.2494 96.8993 90.3842 96.8955 90.5429L96.7575 90.9577C96.6217 91.1086 96.4383 91.2003 96.2074 91.2328C95.9765 91.2652 95.7583 91.2959 95.5531 91.3247L95.5091 91.2914L93.219 91.6132L93.3657 92.937L93.4097 92.9704L93.6256 93.9484L93.5926 93.9925L93.8596 95.8926L93.7217 96.3074C93.6299 96.3993 93.529 96.4728 93.419 96.5278C93.309 96.5828 93.188 96.6064 93.0561 96.5986ZM86.3864 97.4569L85.9742 97.3171C85.7292 96.877 85.5841 96.4032 85.5389 95.8955C85.4937 95.3878 85.4082 94.8726 85.2824 94.3498L84.9555 92.0233L84.8352 91.4471L84.8029 90.9376L84.7259 90.9484L84.2633 91.567L84.0458 91.8348L83.8313 91.9836L83.8422 92.0611C83.7027 92.1862 83.5633 92.3112 83.4239 92.4363C83.2844 92.5613 83.1103 92.6253 82.9013 92.6283L82.4892 92.4885C82.3977 92.3959 82.3245 92.2942 82.2697 92.1833C82.2148 92.0724 82.1893 91.9375 82.1932 91.7788L82.3312 91.364C82.8596 90.8416 83.3381 90.2669 83.7668 89.6399C84.1955 89.0129 84.5733 88.3732 84.9003 87.721L84.7079 87.748C84.2569 87.8905 83.8274 88.0695 83.4194 88.285C83.0114 88.5005 82.5782 88.6536 82.12 88.7444L81.7078 88.6046C81.6163 88.512 81.5432 88.4103 81.4883 88.2994C81.4335 88.1884 81.4098 88.0666 81.4173 87.9337L81.5553 87.5189C82.3071 87.0969 83.0905 86.7364 83.9055 86.4373C84.7204 86.1382 85.5733 85.8997 86.4641 85.7218L86.8763 85.8616C86.9678 85.9542 87.041 86.0559 87.0958 86.1669C87.1507 86.2778 87.1761 86.4126 87.1723 86.5713L86.4335 88.2963L86.3565 88.3072L86.2737 88.556L86.147 88.7716C86.4694 88.8317 86.7919 88.8918 87.1144 88.9519C87.4368 89.0121 87.7409 89.1275 88.0265 89.2983C88.1181 89.3908 88.1912 89.4926 88.2461 89.6035C88.3009 89.7144 88.3246 89.8363 88.3171 89.9692L88.1791 90.384C88.0874 90.476 87.9865 90.5494 87.8765 90.6044C87.7665 90.6595 87.6327 90.6849 87.4751 90.6806L86.255 90.3776L86.3963 91.6626L86.4402 91.696L86.7727 94.0613L87.1899 96.7508L87.052 97.1656C86.9602 97.2576 86.8593 97.3311 86.7493 97.3861C86.6393 97.4411 86.5183 97.4647 86.3864 97.4569ZM84.804 85.6388L84.3918 85.499L83.4885 84.6572L82.7938 84.0431L82.6899 83.5832L82.8279 83.1684C82.9196 83.0764 83.0237 83.0025 83.1401 82.9465C83.2566 82.8906 83.3807 82.8666 83.5127 82.8744L83.9248 83.0142L84.073 83.2306L84.3203 83.3145L84.7103 83.576L84.9957 83.9313L85.0782 83.9593C85.2026 84.1 85.3211 84.2448 85.4336 84.3937C85.5461 84.5427 85.6041 84.7223 85.6075 84.9327L85.4695 85.3476C85.3778 85.4395 85.2769 85.513 85.1669 85.568C85.0569 85.623 84.9359 85.6466 84.804 85.6388ZM111.244 95.031L110.832 94.8912C110.715 94.8022 110.628 94.6958 110.571 94.572C110.515 94.4481 110.488 94.3068 110.492 94.1481C110.816 93.1009 111.019 92.0343 111.102 90.9485C111.185 89.8626 111.136 88.7657 110.954 87.6577L109.26 87.8957C108.138 88.1061 107.024 88.322 105.917 88.5435C104.81 88.765 103.711 89.0447 102.62 89.3825L102.208 89.2428C102.116 89.1502 102.043 89.0484 101.988 88.9375C101.933 88.8266 101.91 88.7047 101.917 88.5718L102.055 88.157C103.15 87.6605 104.289 87.2961 105.473 87.0637C106.657 86.8314 107.849 86.6047 109.048 86.3835L110.703 86.1509L110.676 85.957L110.38 84.9704L110.518 84.5556C110.61 84.4637 110.71 84.3902 110.82 84.3352C110.93 84.2802 111.051 84.2566 111.183 84.2644L111.596 84.4042C111.782 84.6152 111.92 84.8528 112.01 85.117C112.099 85.3812 112.164 85.6555 112.204 85.9399C112.712 85.9213 113.221 85.8694 113.732 85.7844C114.244 85.6993 114.719 85.7314 115.159 85.8805C115.25 85.973 115.324 86.0748 115.378 86.1857C115.433 86.2966 115.457 86.4185 115.449 86.5514L115.312 86.9662C115.22 87.0582 115.112 87.1326 114.99 87.1894C114.867 87.2462 114.727 87.2725 114.569 87.2683C114.228 87.2634 113.875 87.2867 113.509 87.3381C113.144 87.3895 112.792 87.4257 112.455 87.4467C112.655 88.684 112.711 89.9184 112.622 91.1501C112.534 92.3817 112.296 93.5783 111.91 94.7397C111.818 94.8317 111.717 94.9052 111.607 94.9602C111.497 95.0152 111.376 95.0388 111.244 95.031ZM107.729 92.6385L107.273 92.4654C106.945 92.1819 106.603 91.9399 106.248 91.7394C105.893 91.5389 105.541 91.3181 105.194 91.077C105.117 91.0878 105.037 91.0793 104.954 91.0513C104.872 91.0234 104.789 90.9889 104.704 90.9481C104.613 90.8555 104.54 90.7537 104.485 90.6428C104.43 90.5319 104.406 90.41 104.414 90.2771L104.552 89.8623C104.666 89.7409 104.799 89.6629 104.951 89.6283C105.103 89.5938 105.256 89.5657 105.41 89.544L106.289 89.9345C106.439 90.0716 106.607 90.193 106.792 90.2989C106.976 90.4047 107.153 90.4985 107.322 90.5802L107.668 90.8084L108.014 91.0365L108.025 91.1141L108.102 91.1033L108.234 91.2034C108.325 91.2959 108.398 91.3977 108.453 91.5086C108.508 91.6195 108.533 91.7543 108.53 91.9131L108.394 92.3473C108.303 92.4392 108.202 92.5127 108.092 92.5677C107.982 92.6227 107.861 92.6463 107.729 92.6385ZM105.036 85.2075C104.93 85.196 104.829 85.1772 104.734 85.1511C104.638 85.1249 104.549 85.0914 104.464 85.0505C104.373 84.9579 104.3 84.8562 104.245 84.7453C104.19 84.6344 104.166 84.5125 104.174 84.3796L104.312 83.9648C104.7 83.752 105.118 83.6011 105.563 83.5122C106.008 83.4232 106.447 83.3351 106.88 83.248L106.665 81.7163L106.434 81.7488C106.001 81.8359 105.584 81.9407 105.183 82.063C104.781 82.1853 104.364 82.2901 103.932 82.3772L103.519 82.2375C103.428 82.1449 103.355 82.0431 103.3 81.9322C103.245 81.8213 103.221 81.6994 103.229 81.5665L103.367 81.1517C103.825 80.8764 104.328 80.6806 104.874 80.5643C105.42 80.448 105.959 80.3261 106.491 80.1987L106.48 80.1211C106.425 79.9179 106.358 79.723 106.28 79.5363C106.201 79.3496 106.158 79.1382 106.151 78.9019L106.289 78.4871C106.381 78.3951 106.482 78.3216 106.592 78.2666C106.702 78.2116 106.823 78.188 106.955 78.1959L107.367 78.3356C107.528 78.5503 107.648 78.797 107.726 79.076C107.805 79.3549 107.89 79.633 107.981 79.9101L108.487 79.8786L110.373 79.6135C110.556 79.6141 110.739 79.6147 110.923 79.6153C111.106 79.6159 111.269 79.6589 111.412 79.7443C111.503 79.8369 111.576 79.9386 111.631 80.0496C111.686 80.1605 111.71 80.2824 111.702 80.4152L111.564 80.83C111.472 80.922 111.365 80.9964 111.242 81.0532C111.119 81.11 110.981 81.1492 110.827 81.1709L110.47 81.142L108.622 81.4017L108.155 81.4278L108.365 82.9207L109.448 82.808L110.289 82.6502L110.701 82.79C110.793 82.8826 110.866 82.9843 110.921 83.0952C110.976 83.2062 110.999 83.3281 110.992 83.4609L110.854 83.8757C110.671 84.0597 110.45 84.1697 110.194 84.2057C109.937 84.2418 109.683 84.2908 109.43 84.3527L108.346 84.4654L105.036 85.2075ZM127.016 91.4898L126.642 91.3446C126.553 91.2649 126.481 91.1729 126.427 91.0684C126.373 90.9639 126.348 90.8324 126.352 90.6737C126.793 89.8077 127.065 88.9983 127.168 88.2457C127.272 87.493 127.253 86.6126 127.111 85.6044L127.021 85.103L126.944 85.1139C126.268 85.2353 125.625 85.408 125.015 85.6321C124.406 85.8562 123.779 86.0529 123.136 86.2225L122.43 85.946C122.25 85.7867 122.146 85.5838 122.118 85.3373C122.09 85.0909 122.047 84.8531 121.989 84.6241L121.785 82.8931L121.741 82.8597L121.575 81.4002L121.531 81.3669L121.351 79.8104L121.018 77.8604L121.319 77.2052C121.412 77.1262 121.511 77.0596 121.615 77.0055C121.718 76.9514 121.837 76.9347 121.971 76.9555L122.226 76.9591C122.804 76.7857 123.383 76.6252 123.964 76.4776C124.545 76.33 125.151 76.2185 125.781 76.1431L126.158 76.3077C126.248 76.3873 126.319 76.4794 126.373 76.5838C126.427 76.6883 126.45 76.807 126.443 76.9398L126.283 77.3379C126.131 77.4648 125.949 77.5463 125.738 77.5825C125.528 77.6187 125.307 77.6531 125.076 77.6855L125.128 78.0539L125.333 78.8159C125.553 78.7982 125.769 78.7744 125.98 78.7447C126.192 78.7149 126.39 78.753 126.575 78.8588C126.669 78.9643 126.742 79.0693 126.796 79.1737C126.85 79.2782 126.872 79.3904 126.863 79.5103L126.703 79.9084C126.566 80.0464 126.398 80.1326 126.2 80.167C126.002 80.2014 125.806 80.2257 125.611 80.2398L125.677 80.8435L125.77 81.2259L126.023 81.2101L126.845 81.055L127.235 81.1781C127.314 81.2725 127.38 81.3719 127.434 81.4764C127.488 81.5808 127.51 81.693 127.501 81.813L127.36 82.2084C127.171 82.3536 126.946 82.4543 126.686 82.5107C126.426 82.567 126.175 82.6188 125.933 82.666L126.036 83.818L126.151 83.8018L127.224 83.6115C127.359 83.6452 127.488 83.6765 127.61 83.7055C127.732 83.7346 127.849 83.7806 127.963 83.8437C128.212 84.1251 128.372 84.4551 128.445 84.8337C128.518 85.2123 128.582 85.5954 128.636 85.9832C128.756 87.0208 128.744 87.9155 128.601 88.6671C128.458 89.4187 128.164 90.2542 127.717 91.1737C127.626 91.2657 127.526 91.3456 127.417 91.4136C127.309 91.4815 127.175 91.5069 127.016 91.4898ZM129.609 90.809L129.197 90.6692C129.107 90.5896 129.035 90.4943 128.98 90.3834C128.925 90.2724 128.907 90.1432 128.925 89.9956C129.383 88.6923 129.629 87.3661 129.662 86.017C129.694 84.668 129.642 83.3178 129.504 81.9663C129.483 81.7189 129.424 81.4867 129.328 81.2695C129.232 81.0523 129.16 80.8218 129.113 80.5781L129.177 80.1935C129.086 79.6395 128.988 79.0864 128.885 78.5342C128.781 77.982 128.641 77.4546 128.466 76.952L128.607 76.5566C129.369 76.3045 130.149 76.0763 130.944 75.8723C131.74 75.6682 132.566 75.4993 133.424 75.3655C133.518 75.3788 133.612 75.3985 133.707 75.4246C133.802 75.4508 133.892 75.4843 133.977 75.5252C134.121 75.6235 134.21 75.7659 134.243 75.9524C134.275 76.1389 134.305 76.3291 134.333 76.523C134.301 76.9492 134.291 77.3691 134.304 77.7825C134.316 78.196 134.306 78.6158 134.275 79.042L134.445 79.1367C134.536 79.2293 134.606 79.3283 134.653 79.4336C134.701 79.539 134.72 79.6517 134.711 79.7716L134.57 80.167C134.13 80.387 133.658 80.5456 133.155 80.6426C132.652 80.7397 132.161 80.8548 131.683 80.988L131.694 81.0655C132.394 82.417 133.172 83.7443 134.029 85.0473C134.886 86.3504 135.888 87.5409 137.033 88.6188L137.346 88.8912L137.423 89.2956L137.28 89.6717C137.188 89.7636 137.09 89.8334 136.985 89.8811C136.881 89.9287 136.75 89.9504 136.592 89.9462L136.199 89.8037C135.203 88.8629 134.267 87.8313 133.39 86.709C132.512 85.5868 131.774 84.3824 131.174 83.0958L131.097 83.1066C131.184 84.373 131.181 85.6354 131.09 86.8938C130.999 88.1522 130.721 89.3676 130.258 90.5399C130.166 90.6318 130.069 90.7049 129.965 90.759C129.861 90.8131 129.743 90.8298 129.609 90.809ZM122.274 91.2664C122.181 91.2532 122.086 91.2303 121.99 91.1977C121.894 91.1651 121.804 91.1283 121.719 91.0874C121.467 90.7802 121.251 90.4316 121.072 90.0416C120.893 89.6516 120.748 89.2469 120.636 88.8276C120.635 88.7224 120.65 88.6246 120.684 88.5343C120.717 88.444 120.753 88.3564 120.794 88.2716C120.887 88.1926 120.986 88.1292 121.091 88.0816C121.195 88.034 121.314 88.0141 121.446 88.0219L121.839 88.1644C122.038 88.5581 122.232 88.9625 122.421 89.3775C122.61 89.7924 122.793 90.2051 122.968 90.6154L122.819 90.9526C122.753 91.041 122.671 91.1053 122.571 91.1456C122.472 91.1859 122.373 91.2262 122.274 91.2664ZM123.494 90.0275L123.101 89.885C122.922 89.6334 122.759 89.3629 122.614 89.0736C122.469 88.7843 122.368 88.4854 122.311 88.177L122.433 87.7843C122.526 87.7052 122.628 87.6382 122.738 87.5832C122.848 87.5282 122.963 87.5055 123.082 87.5151L123.497 87.6743C123.674 87.913 123.836 88.177 123.981 88.4663C124.126 88.7556 124.233 89.0536 124.303 89.3602L124.143 89.7583C124.051 89.8503 123.953 89.9201 123.848 89.9677C123.744 90.0154 123.626 90.0353 123.494 90.0275ZM125.089 89.0915L124.677 88.9517C124.549 88.6929 124.418 88.4378 124.285 88.1863C124.151 87.9349 124.051 87.6623 123.984 87.3686L124.165 86.9872C124.246 86.9099 124.342 86.8438 124.452 86.7888C124.562 86.7338 124.683 86.7102 124.815 86.718L125.207 86.8605L125.339 86.9606L125.323 86.8443L125.181 86.3898L125.34 85.9917C125.419 85.9015 125.514 85.8321 125.625 85.7836C125.736 85.7351 125.851 85.7156 125.97 85.7252L126.382 85.865C126.553 86.052 126.695 86.2495 126.809 86.4575C126.923 86.6655 126.991 86.8932 127.013 87.1406L126.872 87.536C126.79 87.6003 126.69 87.6604 126.574 87.7163C126.457 87.7722 126.34 87.7954 126.221 87.7858L125.828 87.6433L125.657 87.5486L125.668 87.6261L125.879 88.4269L125.738 88.8223C125.647 88.9143 125.546 88.9878 125.436 89.0428C125.326 89.0978 125.21 89.114 125.089 89.0915ZM124.545 84.2449L124.513 83.8739L124.5 83.0848L124.343 83.0871L123.329 83.2692L123.446 84.3797L123.512 84.5682L123.742 84.5357L124.545 84.2449ZM124.312 81.6086L124.263 81.1212L124.168 80.5811L123.877 80.6022L122.972 80.8678L122.999 81.2001L123.111 81.8566L123.883 81.7678L124.312 81.6086ZM132.793 79.2503L132.768 79.0758L132.856 76.9084L132.356 76.9788L130.159 77.5446L130.172 77.6415C130.298 77.9797 130.38 78.3274 130.417 78.6846C130.454 79.0419 130.512 79.4061 130.59 79.7773L130.92 79.7507C131.217 79.6299 131.525 79.5373 131.843 79.4728C132.161 79.4083 132.477 79.3342 132.793 79.2503ZM123.865 79.1211L123.838 78.7888L123.635 78.0462L123.385 78.0814L122.631 78.3059L122.683 79.0895L122.751 79.4358L122.866 79.4196L123.865 79.1211ZM144.487 87.7493L144.074 87.6095C143.983 87.5169 143.91 87.4152 143.855 87.3043C143.8 87.1934 143.776 87.065 143.781 86.9192C144.24 86.0902 144.565 85.234 144.755 84.3506C144.945 83.4672 144.932 82.5397 144.717 81.5682C144.669 81.4167 144.609 81.267 144.536 81.1191C144.463 80.9712 144.342 80.8564 144.174 80.7746C144.064 80.7373 143.951 80.7268 143.836 80.743C143.72 80.7593 143.598 80.7764 143.47 80.7944L142.634 80.991C142.571 81.6589 142.528 82.3306 142.505 83.006C142.482 83.6814 142.397 84.3326 142.25 84.9596C142.158 85.0516 142.057 85.1251 141.947 85.1801C141.837 85.2351 141.703 85.2605 141.546 85.2563L141.134 85.1165C141.042 85.0239 140.966 84.9226 140.904 84.8126C140.843 84.7026 140.823 84.5803 140.843 84.4456C140.935 83.9845 140.988 83.5223 141.001 83.0591C141.015 82.5959 141.04 82.1245 141.077 81.6447L140.962 81.661C140.793 81.7638 140.614 81.8614 140.424 81.954C140.234 82.0466 140.022 82.0962 139.788 82.1028L139.375 81.963C139.284 81.8704 139.211 81.7687 139.156 81.6578C139.101 81.5468 139.077 81.4249 139.085 81.2921L139.223 80.8773C139.535 80.6753 139.86 80.4978 140.198 80.3448C140.536 80.1918 140.88 80.0513 141.228 79.9233C141.276 79.5211 141.27 79.1067 141.21 78.6802C141.15 78.2537 141.187 77.8597 141.319 77.4984C141.411 77.4065 141.511 77.3297 141.62 77.2683C141.729 77.2068 141.85 77.18 141.982 77.1878L142.397 77.347C142.488 77.4396 142.562 77.5478 142.619 77.6716C142.676 77.7955 142.702 77.9367 142.698 78.0954C142.705 78.3317 142.718 78.5606 142.736 78.7821C142.754 79.0037 142.752 79.2214 142.729 79.4355L142.845 79.4192L143.835 79.201C144.044 79.198 144.255 79.2144 144.47 79.2502C144.684 79.286 144.879 79.3706 145.055 79.5041L145.406 79.771C145.743 80.1191 145.978 80.5342 146.111 81.0164C146.244 81.4985 146.335 81.9999 146.382 82.5205C146.454 83.4066 146.389 84.2526 146.189 85.0585C145.988 85.8644 145.653 86.6495 145.185 87.4139C145.093 87.5059 144.994 87.5858 144.885 87.6537C144.777 87.7217 144.644 87.7535 144.487 87.7493ZM152.641 81.9571C152.535 81.9457 152.434 81.9269 152.339 81.9007C152.244 81.8746 152.154 81.841 152.07 81.8002C151.744 81.3451 151.396 80.913 151.024 80.5038C150.653 80.0947 150.237 79.6984 149.778 79.3148L148.267 78.3409C148.175 78.2483 148.102 78.1465 148.047 78.0356C147.993 77.9247 147.969 77.8028 147.976 77.67L148.114 77.2552C148.206 77.1632 148.307 77.0897 148.417 77.0347C148.527 76.9797 148.648 76.9561 148.78 76.9639C149.139 77.098 149.489 77.286 149.831 77.528C150.172 77.77 150.515 77.9986 150.859 78.2138L151.485 78.7585L151.633 78.9749L151.71 78.9641C152.022 79.3158 152.333 79.6675 152.644 80.0192C152.955 80.3709 153.182 80.774 153.324 81.2285L153.186 81.6433C153.12 81.7317 153.037 81.796 152.938 81.8363C152.839 81.8765 152.74 81.9168 152.641 81.9571ZM164.707 85.6984C164.6 85.687 164.5 85.6682 164.404 85.642C164.309 85.6159 164.219 85.5823 164.135 85.5415C164.044 85.4489 163.971 85.3471 163.916 85.2362C163.861 85.1253 163.837 85.0034 163.845 84.8705L164.01 84.3728L164.206 84.0883C164.404 83.8232 164.579 83.5349 164.732 83.2235C164.884 82.9121 165.018 82.6034 165.132 82.2974L165.066 81.5553C165.026 81.4555 164.972 81.351 164.905 81.2419C164.837 81.1328 164.759 81.0448 164.671 80.9781C164.529 80.8927 164.36 80.8571 164.166 80.8712C163.971 80.8854 163.785 80.905 163.605 80.9303C163.187 81.1208 162.795 81.3604 162.43 81.649C162.065 81.9375 161.643 82.1419 161.162 82.2621C161.005 82.2579 160.843 82.2278 160.679 82.1719C160.514 82.116 160.358 82.0324 160.212 81.9212C159.974 81.7174 159.795 81.4723 159.677 81.1858C159.558 80.8994 159.451 80.6046 159.356 80.3016L159.073 78.2853C159.084 77.9937 159.089 77.7031 159.087 77.4133C159.086 77.1235 159.173 76.8608 159.35 76.6252C159.441 76.5332 159.542 76.4597 159.652 76.4047C159.762 76.3497 159.883 76.3261 160.015 76.3339L160.427 76.4737C160.519 76.5663 160.592 76.668 160.647 76.7789C160.702 76.8899 160.725 77.0117 160.718 77.1446C160.663 77.3105 160.635 77.4858 160.635 77.6703C160.634 77.8549 160.62 78.0283 160.59 78.1906L160.846 80.0131L161.126 80.6065L161.318 80.5794C161.715 80.2338 162.151 79.9418 162.628 79.7034C163.105 79.4651 163.642 79.3303 164.239 79.299C164.477 79.3183 164.713 79.3643 164.945 79.437C165.178 79.5098 165.395 79.6111 165.597 79.7409L165.866 79.9799C166.14 80.2576 166.335 80.573 166.45 80.9259C166.565 81.2788 166.639 81.6638 166.671 82.081C166.674 82.476 166.602 82.8486 166.455 83.1988C166.308 83.5489 166.142 83.9018 165.957 84.2574L165.764 84.5613L165.687 84.5721L165.51 84.9923L165.318 85.2962L165.241 85.307L165.251 85.3846C165.185 85.473 165.103 85.5373 165.004 85.5776C164.905 85.6178 164.806 85.6581 164.707 85.6984ZM161.473 75.5359C161.114 75.4018 160.751 75.288 160.385 75.1945C160.018 75.101 159.656 74.9873 159.297 74.8532C159.203 74.7477 159.129 74.6395 159.075 74.5285C159.02 74.4176 158.996 74.2957 159.003 74.1629L159.141 73.7481C159.233 73.6561 159.334 73.5826 159.444 73.5276C159.554 73.4726 159.688 73.4472 159.846 73.4514C160.172 73.5374 160.503 73.616 160.84 73.6873C161.177 73.7585 161.503 73.8906 161.818 74.0836C161.91 74.1762 161.99 74.2803 162.059 74.3958C162.127 74.5114 162.159 74.6486 162.156 74.8073L162.018 75.2221C161.952 75.3105 161.869 75.3748 161.77 75.4151C161.671 75.4553 161.572 75.4956 161.473 75.5359ZM82.2194 122.407L81.766 122.253C81.6892 122.172 81.6252 122.065 81.574 121.934C81.5229 121.803 81.4882 121.673 81.47 121.543L81.4135 120.583C81.3319 119.909 81.2406 119.236 81.1397 118.565C81.0389 117.894 80.9357 117.229 80.8302 116.572L80.7899 115.866L80.6882 115.841L79.909 116.86L79.832 116.87L79.7823 117.075C79.6777 117.169 79.57 117.24 79.459 117.289C79.3481 117.337 79.2267 117.358 79.0947 117.35L78.6991 117.188C78.604 117.069 78.5322 116.954 78.4838 116.842C78.4353 116.731 78.4195 116.594 78.4362 116.434C78.6016 116.028 78.8458 115.648 79.1688 115.293C79.4917 114.938 79.7634 114.567 79.9838 114.18C80.3637 113.718 80.7198 113.25 81.0521 112.774C81.3844 112.299 81.6992 111.817 81.9967 111.327C82.1105 111.205 82.2274 111.107 82.3476 111.03C82.4677 110.954 82.6203 110.923 82.8054 110.936L83.2202 111.096C83.2989 111.19 83.3625 111.293 83.4109 111.405C83.4593 111.517 83.4798 111.639 83.4723 111.772L83.3151 112.189C83.0802 112.473 82.8736 112.772 82.6955 113.087C82.5173 113.402 82.3108 113.701 82.0759 113.985L82.0922 114.101C82.1673 114.17 82.2089 114.256 82.217 114.36C82.2251 114.465 82.2364 114.569 82.251 114.672L82.3048 115.613L82.4054 116.469L82.3915 116.649C82.5426 117.445 82.6758 118.253 82.7912 119.074C82.9065 119.895 83.0012 120.709 83.0754 121.516C83.0514 121.624 83.0316 121.739 83.0159 121.86C83.0001 121.981 82.9583 122.079 82.8904 122.154C82.7969 122.233 82.6914 122.298 82.5741 122.347C82.4567 122.397 82.3385 122.417 82.2194 122.407ZM91.9738 121.155C90.9183 121.092 89.8804 120.899 88.8601 120.574C87.8397 120.25 86.8194 119.948 85.799 119.67C85.7455 119.941 85.6503 120.218 85.5135 120.501C85.3766 120.784 85.2475 121.052 85.1263 121.306C85.0345 121.398 84.9341 121.475 84.825 121.537C84.7159 121.598 84.5825 121.627 84.4249 121.622L84.0128 121.483C83.9213 121.39 83.8481 121.288 83.7932 121.177C83.7384 121.066 83.7083 120.945 83.703 120.814C84.0778 120.037 84.3843 119.239 84.6227 118.421C84.861 117.604 85.0595 116.782 85.2181 115.955C85.3098 115.863 85.4075 115.79 85.5111 115.736C85.6147 115.682 85.7316 115.652 85.8617 115.647L86.2931 115.784C86.3846 115.877 86.4578 115.979 86.5126 116.09C86.5675 116.201 86.593 116.335 86.5891 116.494C86.5649 116.788 86.5238 117.077 86.4657 117.362C86.4076 117.647 86.3472 117.938 86.2846 118.237C86.5998 118.246 86.9066 118.311 87.2052 118.434C87.5037 118.557 87.7996 118.637 88.0928 118.675C87.9818 117.979 87.897 117.282 87.8383 116.585C87.7796 115.889 87.7077 115.19 87.6224 114.49L87.4829 113.917L87.2135 113.955L87.1804 113.999L85.3411 114.317C85.1944 114.39 85.0317 114.443 84.853 114.474C84.6743 114.506 84.4951 114.535 84.3155 114.56C84.2092 114.548 84.108 114.526 84.0118 114.494C83.9156 114.461 83.8254 114.424 83.7412 114.383C83.6515 114.304 83.576 114.209 83.5148 114.099C83.4535 113.989 83.4266 113.868 83.4341 113.735L83.5694 113.3C83.74 113.118 83.9646 113.018 84.2432 112.998C84.5218 112.979 84.7647 112.915 84.9719 112.807L86.8909 112.498L87.2319 112.41L86.9843 110.369L86.4481 110.464L85.6535 110.675C85.5215 110.667 85.3878 110.646 85.2522 110.612C85.1166 110.579 84.993 110.537 84.8813 110.487C84.7898 110.394 84.7129 110.289 84.6508 110.173C84.5886 110.056 84.5613 109.932 84.5688 109.799L84.7067 109.384C84.7966 109.279 84.8966 109.199 85.0066 109.144C85.1167 109.089 85.2505 109.064 85.4081 109.068L85.9551 109.051L86.714 108.865C86.6705 108.462 86.611 108.062 86.5354 107.664C86.4599 107.266 86.4819 106.887 86.6015 106.528C86.6932 106.436 86.7941 106.362 86.9041 106.307C87.0141 106.252 87.1342 106.222 87.2643 106.217L87.6765 106.357C87.768 106.45 87.8476 106.55 87.9152 106.66C87.9829 106.769 88.013 106.89 88.0055 107.023L88.262 108.568L88.8751 108.462L90.5716 108.105L90.9837 108.245C91.0752 108.338 91.1484 108.439 91.2032 108.55C91.2581 108.661 91.2817 108.783 91.2742 108.916L91.1583 109.347C90.7749 109.599 90.3496 109.761 89.8822 109.833C89.4148 109.905 88.9529 109.993 88.4965 110.097L88.7798 112.113L90.5504 111.865L91.3313 111.696C91.6208 111.708 91.9237 111.675 92.2399 111.598C92.5561 111.52 92.8397 111.536 93.0906 111.646C93.1949 111.737 93.2745 111.838 93.3294 111.949C93.3842 112.059 93.4097 112.194 93.4058 112.353L93.2871 112.765C93.0541 112.969 92.7759 113.084 92.4524 113.11C92.1289 113.135 91.8151 113.183 91.5108 113.252L90.9114 113.316L90.378 113.431L88.9924 113.626L89.0769 114.227L89.2163 114.8L89.2734 115.346C89.8654 115.276 90.4707 115.184 91.0893 115.071C91.7079 114.958 92.2893 114.975 92.8334 115.122C92.9249 115.215 92.9981 115.317 93.0529 115.428C93.1078 115.538 93.1378 115.659 93.1432 115.791L93.0052 116.205C92.9135 116.297 92.8131 116.374 92.7039 116.435C92.5948 116.497 92.4615 116.526 92.3039 116.521C91.8365 116.548 91.3554 116.592 90.8606 116.655C90.3657 116.718 89.8754 116.79 89.3897 116.872L89.422 117.381L89.7305 119.157C90.1426 119.296 90.5649 119.415 90.9972 119.512C91.4296 119.61 91.8822 119.619 92.3551 119.539C92.7291 119.407 93.0889 119.268 93.4346 119.121C93.7802 118.973 94.1034 118.76 94.4043 118.48L94.4319 118.397L94.5118 118.267C94.6219 118.12 94.7481 117.994 94.8902 117.888C95.0324 117.782 95.1951 117.73 95.3783 117.73L95.7905 117.87C95.882 117.963 95.9579 118.061 96.0183 118.164C96.0786 118.268 96.1059 118.392 96.1003 118.538C96.0891 118.645 96.0519 118.753 95.9885 118.86C95.9252 118.968 95.8733 119.064 95.8329 119.149L95.753 119.279L95.6208 119.456C95.1383 119.932 94.5848 120.3 93.9605 120.559C93.3362 120.818 92.674 121.017 91.9738 121.155ZM79.3312 112.888C79.2249 112.876 79.1241 112.858 79.0289 112.831C78.9336 112.805 78.8439 112.772 78.7596 112.731C78.6681 112.638 78.5949 112.537 78.5401 112.426C78.4852 112.315 78.4616 112.193 78.4691 112.06L78.607 111.645C79.0144 111.192 79.3939 110.727 79.7454 110.249C80.0969 109.772 80.4681 109.294 80.8591 108.818L81.3155 108.714L81.7277 108.854C81.8192 108.946 81.8923 109.048 81.9472 109.159C82.002 109.27 82.0257 109.392 82.0182 109.525L81.8802 109.94L80.8696 111.406C80.666 111.54 80.4807 111.711 80.3137 111.919C80.1467 112.127 80.0007 112.346 79.8758 112.574C79.8098 112.662 79.7272 112.727 79.6282 112.767C79.5292 112.807 79.4302 112.848 79.3312 112.888ZM103.361 119.653C103.255 119.642 103.154 119.623 103.059 119.597C102.964 119.571 102.874 119.537 102.79 119.496C102.696 119.391 102.626 119.285 102.578 119.18C102.531 119.074 102.511 118.955 102.518 118.823L102.659 118.427C104.115 117.893 105.395 117.202 106.499 116.355C107.603 115.508 108.632 114.47 109.584 113.243L109.612 113.16L110.003 112.729L110.096 112.558L109.454 112.035L108.822 111.59C108.731 111.498 108.657 111.396 108.603 111.285C108.548 111.174 108.531 111.051 108.551 110.916L108.689 110.502C108.781 110.41 108.885 110.339 109.002 110.29C109.12 110.24 109.244 110.219 109.376 110.227C109.527 110.272 109.68 110.343 109.838 110.439C109.995 110.536 110.159 110.631 110.33 110.726L110.53 110.895L110.706 111.029L111.063 111.335C111.134 111.47 111.225 111.556 111.335 111.593C111.445 111.63 111.556 111.68 111.67 111.744L112.131 112.094L112.689 112.431L112.7 112.508L113.18 112.717L113.191 112.795L113.268 112.784C113.362 112.89 113.433 112.998 113.481 113.11C113.529 113.222 113.552 113.357 113.548 113.516L113.407 113.911C113.303 114.005 113.195 114.08 113.085 114.135C112.975 114.19 112.853 114.207 112.72 114.186C112.474 114.115 112.245 113.999 112.033 113.838C111.82 113.676 111.593 113.573 111.351 113.528L111.269 113.639L111.17 113.771L111.093 113.782L111.104 113.859L110.768 114.263L110.281 114.845L110.063 114.974L110.055 115.055L109.513 115.665L109.152 116.032C109.009 116.131 108.875 116.249 108.75 116.385C108.625 116.521 108.516 116.675 108.423 116.846C107.634 117.563 106.844 118.132 106.052 118.553C105.261 118.974 104.364 119.341 103.361 119.653ZM106.435 115.129L106.022 114.989C105.755 114.578 105.617 114.103 105.606 113.564C105.596 113.025 105.542 112.499 105.443 111.986L105.422 111.554L105.144 109.853L103.296 110.113L100.23 110.781C100.124 110.77 100.023 110.751 99.9281 110.725C99.8328 110.698 99.743 110.665 99.6588 110.624C99.5673 110.531 99.4941 110.43 99.4393 110.319C99.3844 110.208 99.3608 110.086 99.3683 109.953L99.5062 109.538C99.8693 109.329 100.265 109.188 100.693 109.115C101.121 109.041 101.536 108.95 101.94 108.84L101.853 108.22C101.761 107.943 101.676 107.662 101.597 107.376C101.517 107.091 101.456 106.793 101.412 106.483C101.423 106.376 101.442 106.274 101.468 106.178C101.493 106.083 101.526 105.992 101.567 105.907C101.659 105.815 101.759 105.742 101.869 105.687C101.979 105.632 102.1 105.608 102.232 105.616L102.645 105.756C102.86 106.174 103.021 106.622 103.128 107.102C103.235 107.581 103.335 108.064 103.43 108.552L105.008 108.33L104.635 105.674L104.641 105.436L104.428 104.201C104.439 104.093 104.457 103.992 104.483 103.896C104.509 103.8 104.542 103.71 104.582 103.625C104.674 103.533 104.775 103.46 104.885 103.405C104.995 103.35 105.116 103.326 105.248 103.334L105.66 103.474C105.854 103.736 105.963 104.044 105.986 104.397C106.009 104.749 106.069 105.077 106.164 105.38L108.781 105.012L109.193 105.152C109.285 105.245 109.358 105.346 109.413 105.457C109.467 105.568 109.491 105.69 109.484 105.823L109.348 106.257C109.165 106.441 108.951 106.55 108.707 106.584C108.464 106.619 108.215 106.667 107.962 106.729L107.918 106.695L106.34 106.917L106.509 108.119L107.477 108.023L110.017 107.666C110.406 107.637 110.81 107.607 111.231 107.574C111.652 107.541 112.04 107.579 112.395 107.687C112.487 107.78 112.56 107.882 112.615 107.993C112.669 108.104 112.693 108.225 112.686 108.358L112.548 108.773C112.456 108.865 112.349 108.939 112.226 108.996C112.103 109.053 111.964 109.092 111.81 109.114L110.076 109.2L107.536 109.557L106.683 109.637L106.798 110.451L106.999 111.886L107.097 112.861L107.238 114.423L107.1 114.837C107.008 114.929 106.908 115.003 106.798 115.058C106.687 115.113 106.567 115.136 106.435 115.129ZM101.987 115.042C101.881 115.03 101.777 115.012 101.675 114.987C101.573 114.962 101.481 114.929 101.396 114.888C101.305 114.795 101.232 114.693 101.177 114.582C101.122 114.471 101.098 114.35 101.106 114.217L101.244 113.802L101.508 113.448L102.1 112.772C102.225 112.544 102.364 112.326 102.518 112.12C102.673 111.914 102.798 111.686 102.893 111.435C102.985 111.343 103.086 111.269 103.196 111.214C103.306 111.159 103.427 111.136 103.559 111.144L103.971 111.283C104.062 111.376 104.136 111.478 104.19 111.589C104.245 111.7 104.271 111.834 104.267 111.993C104.237 112.155 104.193 112.307 104.134 112.447C104.076 112.587 104.004 112.729 103.919 112.872L103.842 112.883L103.853 112.961L103.341 113.784L103.033 114.104L102.818 114.253L102.829 114.33L102.73 114.463L102.323 114.916L101.987 115.042ZM121.338 117.562C121.232 117.55 121.131 117.531 121.036 117.505C120.941 117.479 120.851 117.445 120.767 117.405C120.675 117.312 120.602 117.21 120.547 117.099C120.493 116.988 120.469 116.867 120.476 116.734L120.614 116.319C121.069 116.018 121.534 115.741 122.009 115.49C122.484 115.239 122.897 114.871 123.247 114.387C123.526 113.952 123.739 113.507 123.884 113.052C124.029 112.596 124.078 112.108 124.031 111.588C123.991 111.303 123.902 111.039 123.763 110.795C123.624 110.551 123.437 110.34 123.203 110.162C122.665 109.869 122.08 109.76 121.45 109.835C120.819 109.911 120.235 109.802 119.696 109.508C119.455 109.279 119.275 109.021 119.156 108.734C119.037 108.448 118.965 108.122 118.94 107.756C119.033 106.926 119.133 106.104 119.241 105.292C119.349 104.479 119.518 103.675 119.746 102.878C119.838 102.786 119.938 102.713 120.048 102.658C120.158 102.603 120.279 102.579 120.411 102.587L120.824 102.727C120.886 102.797 120.943 102.881 120.996 102.979C121.049 103.077 121.083 103.178 121.098 103.281C121.97 103.159 122.849 103.081 123.734 103.049C124.619 103.017 125.478 103.074 126.31 103.221C126.401 103.314 126.481 103.414 126.548 103.523C126.616 103.633 126.649 103.773 126.647 103.945L126.509 104.359C126.417 104.451 126.316 104.525 126.206 104.58C126.096 104.635 125.975 104.658 125.843 104.651C125.107 104.622 124.373 104.613 123.641 104.624C122.91 104.634 122.16 104.694 121.39 104.802L120.818 104.922C120.788 105.453 120.719 105.984 120.61 106.513C120.501 107.042 120.472 107.58 120.523 108.127L120.825 108.322C121.419 108.264 122.001 108.268 122.573 108.333C123.145 108.398 123.678 108.606 124.172 108.958L124.183 109.036L124.26 109.025C124.674 109.362 124.986 109.767 125.196 110.238C125.406 110.709 125.536 111.218 125.587 111.765C125.601 112.237 125.555 112.698 125.448 113.148C125.341 113.598 125.187 114.042 124.987 114.478L124.761 114.827L124.684 114.837C124.655 115 124.585 115.154 124.475 115.302C124.365 115.449 124.267 115.595 124.183 115.738C123.772 116.165 123.325 116.524 122.843 116.816C122.361 117.108 121.859 117.357 121.338 117.562ZM140.892 114.26L140.48 114.12C140.389 114.027 140.315 113.926 140.261 113.815C140.206 113.704 140.18 113.569 140.184 113.41L140.322 112.996L140.553 112.686L140.983 112.112L141.06 112.101C141.363 111.281 141.583 110.472 141.72 109.675C141.856 108.878 141.863 108.041 141.739 107.162L141.476 106.685C141.227 106.588 140.953 106.547 140.654 106.563C140.356 106.578 140.065 106.606 139.783 106.646L139.403 106.739C139.336 107.565 139.19 108.337 138.963 109.054C138.737 109.772 138.44 110.499 138.073 111.236L137.996 111.246L137.819 111.667L137.742 111.678L137.753 111.755L137.315 112.548L136.743 113.222L136.248 113.331L135.836 113.191C135.744 113.098 135.671 112.997 135.616 112.886C135.561 112.775 135.538 112.653 135.545 112.52L135.68 112.086L135.757 112.075L135.746 111.998C135.908 111.843 136.04 111.666 136.143 111.467C136.246 111.268 136.349 111.069 136.452 110.87C136.672 110.576 136.849 110.254 136.983 109.906C137.117 109.558 137.265 109.214 137.427 108.875L137.831 106.999L137.754 107.01C137.405 107.138 137.043 107.261 136.668 107.38C136.292 107.499 135.911 107.585 135.526 107.639L135.114 107.5C135.023 107.407 134.95 107.305 134.895 107.194C134.84 107.083 134.816 106.962 134.824 106.829L134.962 106.414C135.526 106.15 136.122 105.921 136.749 105.728C137.376 105.534 138.023 105.39 138.69 105.297L138.927 105.303L140.109 105.058C140.498 105.03 140.877 105.029 141.247 105.056C141.617 105.083 141.96 105.193 142.275 105.386C142.421 105.497 142.55 105.624 142.662 105.767C142.774 105.909 142.879 106.052 142.978 106.197C143.054 106.371 143.126 106.558 143.194 106.759C143.262 106.961 143.299 107.18 143.306 107.416C143.393 108.405 143.35 109.357 143.177 110.271C143.005 111.185 142.707 112.094 142.285 112.996L142.186 113.129L141.855 113.571L141.756 113.703L141.624 113.88L141.547 113.891L141.558 113.969C141.466 114.061 141.365 114.134 141.255 114.189C141.145 114.244 141.024 114.268 140.892 114.26ZM145.548 105.915C145.226 105.854 144.905 105.735 144.585 105.556C144.265 105.377 143.95 105.203 143.639 105.036C142.778 104.498 142.023 103.876 141.375 103.17C140.726 102.463 140.087 101.733 139.457 100.978L139.353 100.518L139.491 100.103C139.583 100.011 139.684 99.9375 139.794 99.8825C139.904 99.8275 140.025 99.8039 140.157 99.8118L140.569 99.9515L141.189 100.734L141.266 100.723L142.524 102.128C142.712 102.352 142.919 102.567 143.144 102.773C143.369 102.978 143.608 103.143 143.861 103.265L144.358 103.591L144.369 103.668L144.446 103.657L145.006 104.014L145.808 104.415L145.94 104.515C146.032 104.608 146.105 104.709 146.16 104.82C146.214 104.931 146.238 105.053 146.231 105.186L146.093 105.601C146.027 105.689 145.944 105.753 145.845 105.794C145.746 105.834 145.647 105.874 145.548 105.915ZM133.116 107.108L132.704 106.968C132.613 106.876 132.54 106.774 132.485 106.663C132.43 106.552 132.406 106.43 132.414 106.297L132.585 105.838L132.717 105.662L133.576 104.513C133.991 103.927 134.399 103.32 134.801 102.69C135.203 102.06 135.542 101.422 135.818 100.777C135.91 100.685 136.011 100.612 136.121 100.557C136.231 100.502 136.352 100.478 136.484 100.486L136.896 100.626C136.987 100.719 137.06 100.82 137.115 100.931C137.17 101.042 137.196 101.177 137.192 101.336C137.107 101.664 136.981 101.978 136.814 102.278C136.647 102.579 136.482 102.892 136.318 103.218L136.241 103.229L136.098 103.605L135.674 104.218L135.597 104.229L135.453 104.605L135.376 104.616L135.293 104.865L135.217 104.875L135.134 105.124L134.919 105.273L134.93 105.351L134.765 105.572L134.487 105.967L134.41 105.977L134.421 106.055L134.019 106.546L133.92 106.679C133.806 106.8 133.689 106.902 133.57 106.985C133.451 107.068 133.3 107.109 133.116 107.108ZM153.911 107.606L153.556 107.597C153.455 107.532 153.372 107.471 153.305 107.414C153.238 107.358 153.195 107.265 153.177 107.136C153.139 105.652 153.091 104.169 153.033 102.688C152.975 101.207 152.952 99.76 152.963 98.3481C153.027 98.2468 153.11 98.1594 153.21 98.0859C153.311 98.0124 153.426 97.9667 153.554 97.9487L153.986 97.9473C154.098 97.9975 154.188 98.0573 154.256 98.1268C154.325 98.1962 154.375 98.2947 154.406 98.4221C154.428 99.7898 154.461 101.209 154.504 102.679C154.547 104.149 154.556 105.637 154.532 107.143C154.455 107.246 154.37 107.334 154.275 107.407C154.181 107.479 154.059 107.546 153.911 107.606ZM153.87 111.645L153.194 111.305C153.103 111.213 153.023 111.112 152.955 111.003C152.888 110.893 152.804 110.767 152.706 110.622L152.711 110.384L152.718 109.869L152.856 109.455C153.021 109.326 153.21 109.227 153.422 109.158C153.635 109.088 153.842 109.026 154.044 108.971C154.201 108.976 154.347 108.988 154.481 109.009C154.614 109.03 154.74 109.084 154.857 109.173C155.011 109.336 155.117 109.532 155.175 109.761C155.234 109.99 155.292 110.219 155.35 110.448L155.212 110.863L155.135 110.874L155.146 110.952C154.959 111.11 154.771 111.261 154.582 111.407C154.393 111.552 154.156 111.631 153.87 111.645Z" fill="#222222"/>
</svg>
