<svg width="309" height="161" viewBox="0 0 309 161" fill="none" xmlns="http://www.w3.org/2000/svg">
<path d="M149.582 9.77692C169.99 11.204 186.611 13.7994 192.548 14.9724C193.258 15.1125 194.204 15.2916 195.301 15.4989C203.44 17.038 222.5 20.6425 241.996 26.7957C266.334 34.4772 283.338 43.5342 292.535 53.7151C296.712 58.3397 299.767 63.6678 301.615 69.5516C302.484 72.3187 303.077 75.199 303.376 78.1125C303.668 80.9523 303.684 83.8431 303.423 86.7047C302.9 92.4391 301.243 98.1103 298.632 103.105C297.314 105.627 295.752 107.987 293.99 110.12C292.189 112.301 290.17 114.255 287.989 115.927C284.1 118.911 280.078 121.997 275.168 124.743C269.651 127.828 263.824 130.058 256.83 131.761C248.632 133.757 238.971 134.961 227.296 135.444C214.297 135.982 199.082 135.621 180.783 134.341C174.677 133.915 168.155 133.377 161.396 132.743C161.39 132.742 161.385 132.741 161.38 132.741C160.976 132.693 120.835 127.91 88.033 123.389C84.1145 128.681 77.9601 133.383 69.7327 137.37C63.0126 140.627 56.7059 142.526 53.5447 143.368C53.2028 143.459 52.8509 143.26 52.7528 142.92C52.6547 142.58 52.8465 142.223 53.1843 142.118C57.2786 140.843 60.5693 137.791 62.9649 133.045C64.7075 129.593 65.9588 125.31 66.6873 120.308C57.8439 118.947 51.8241 117.885 48.2967 117.064C35.8629 114.169 25.1985 107.976 17.4565 99.154C13.8226 95.013 10.9251 90.3977 8.84447 85.4361C6.7817 80.5171 5.57295 75.3819 5.25182 70.1733C4.62084 59.9402 7.44102 50.0274 13.4074 41.5066C16.5751 36.9825 20.6037 32.9005 25.3813 29.3738C30.4342 25.6438 36.3491 22.5206 42.9617 20.0908C57.9124 14.5957 76.0655 11.0516 96.9165 9.55708C113.143 8.39394 130.862 8.4679 149.582 9.77692ZM180.874 133.044C199.125 134.32 214.292 134.68 227.242 134.144C238.831 133.665 248.409 132.472 256.523 130.497C263.4 128.823 269.123 126.633 274.534 123.607C279.361 120.907 283.345 117.851 287.198 114.895C289.301 113.282 291.249 111.397 292.988 109.292C294.692 107.228 296.204 104.943 297.48 102.502C300.013 97.6567 301.62 92.1532 302.128 86.5865C302.647 80.8971 302.057 75.297 300.375 69.9418C298.583 64.238 295.621 59.0721 291.57 54.5876C286.67 49.1633 279.382 43.9911 269.908 39.2145C262.009 35.2316 252.486 31.4708 241.605 28.0365C222.182 21.9065 203.175 18.3121 195.059 16.7773C193.96 16.5695 193.011 16.39 192.296 16.2489C186.387 15.0813 169.835 12.4974 149.491 11.0748C95.1698 7.27626 61.8208 14.5452 43.4099 21.3121C36.9129 23.6994 31.1069 26.764 26.1533 30.4207C21.4892 33.8636 17.5591 37.8446 14.4723 42.253C8.67658 50.5302 5.93698 60.1571 6.54962 70.0931C6.86175 75.1557 8.03732 80.1485 10.0435 84.9327C12.0697 89.7644 14.8926 94.2603 18.4336 98.2955C25.9954 106.912 36.4238 112.964 48.5914 115.796C52.1202 116.618 58.4884 117.736 67.5189 119.119C67.8694 119.173 68.1122 119.498 68.0647 119.849C67.3319 125.268 66.0066 129.905 64.1255 133.631C62.7236 136.409 61.0243 138.647 59.0445 140.331C67.3089 137.511 80.3689 131.807 87.2098 122.311C87.3506 122.116 87.5881 122.013 87.8261 122.047C120.538 126.561 160.763 131.357 161.525 131.448C168.271 132.081 174.781 132.618 180.874 133.044Z" fill="#222222"/>
<path d="M51.2673 57.5138L50.8151 57.2467C50.7302 57.1152 50.6692 56.9775 50.6322 56.8336C50.5951 56.6898 50.5988 56.5252 50.6431 56.3399L50.9102 55.8877L51.2643 55.5357C51.6741 55.0621 52.0459 54.5701 52.3798 54.0597C52.7137 53.5493 53.0486 53.0234 53.3847 52.4818C53.5961 52.1512 53.7311 51.7918 53.7897 51.4034C53.8482 51.0151 53.9676 50.6546 54.1478 50.3218C54.2793 50.2368 54.4169 50.1758 54.5608 50.1388C54.7046 50.1018 54.8535 50.1043 55.0075 50.1465L55.4596 50.4136C55.5737 50.5785 55.6392 50.7636 55.6562 50.9689C55.6733 51.1741 55.6741 51.3861 55.6588 51.6048C55.3703 52.5892 54.9528 53.5097 54.4064 54.3662C53.86 55.2228 53.2684 56.0526 52.6316 56.8557L52.2273 57.2513L52.1335 57.2447L52.127 57.3384C51.9955 57.4234 51.8578 57.4844 51.714 57.5215C51.5702 57.5585 51.4213 57.5559 51.2673 57.5138ZM64.837 58.0388L64.3615 57.7701C63.8045 56.758 63.2158 55.7514 62.5952 54.7505C61.9747 53.7496 61.4829 52.7027 61.1199 51.6099L61.3869 51.1577C61.5184 51.0727 61.6561 51.0117 61.7999 50.9746C61.9438 50.9376 62.0927 50.9402 62.2467 50.9823L62.6988 51.2494L63.1116 52.0788L63.2053 52.0854L64.8458 54.8843L65.6241 56.2102C65.7693 56.3773 65.8744 56.5574 65.9394 56.7503C66.0044 56.9432 66.0125 57.1635 65.9638 57.4113L65.6968 57.8635C65.5653 57.9485 65.4276 58.0095 65.2838 58.0465C65.1399 58.0836 64.991 58.081 64.837 58.0388ZM66.5851 49.873C66.3396 49.793 66.1019 49.7136 65.872 49.6347C65.6421 49.5559 65.4311 49.4312 65.239 49.2608L65.1083 49.1104L64.6725 48.609C64.5618 48.3972 64.4901 48.1881 64.4574 47.9818C64.4248 47.7754 64.4161 47.5629 64.4314 47.3442C64.5179 47.0049 64.6418 46.6918 64.8031 46.4048C64.9644 46.1179 65.1798 45.8425 65.4494 45.5788C65.5987 45.4637 65.748 45.3486 65.8973 45.2334C66.0466 45.1183 66.2171 45.036 66.4089 44.9867C66.6007 44.9373 66.8142 44.913 67.0496 44.9137C67.2849 44.9145 67.5119 44.9225 67.7306 44.9378C67.9783 44.9865 68.2082 45.0654 68.4202 45.1744C68.6323 45.2834 68.8422 45.4237 69.05 45.5952L69.3986 45.9963C69.66 46.2971 69.7938 46.6282 69.7999 46.9897C69.806 47.3512 69.7803 47.7183 69.7229 48.091C69.6451 48.3053 69.5526 48.5068 69.4452 48.6955C69.3379 48.8842 69.2163 49.0523 69.0804 49.1998L68.9867 49.1932L68.9801 49.287C68.6481 49.5463 68.282 49.7326 67.8817 49.8459C67.4815 49.9592 67.0492 49.9682 66.5851 49.873ZM67.6146 47.9435L67.9153 47.682L67.9514 47.1665C67.8374 47.0016 67.7044 46.8824 67.5526 46.809C67.4008 46.7356 67.2301 46.708 67.0405 46.7261L66.84 46.9005L66.3823 47.3865L66.3659 47.6208L66.4029 47.7646L66.4967 47.7712L66.5805 47.9183L67.3705 48.0678L67.6146 47.9435ZM73.5838 61.217L73.1333 60.9265C73.0483 60.7949 72.9873 60.6572 72.9503 60.5134C72.9133 60.3695 72.9159 60.2206 72.958 60.0665C73.0002 59.9125 73.0886 59.7696 73.2234 59.6377C73.3582 59.5059 73.4768 59.3808 73.5792 59.2623C74.9807 58.0732 76.324 56.8171 77.6092 55.4943C78.8944 54.1714 80.0893 52.7951 81.1936 51.3654L81.2035 51.2248L80.2664 51.1593C79.3562 51.1584 78.4611 51.1665 77.5811 51.1834C76.7011 51.2004 75.8317 51.2887 74.9731 51.4484L74.521 51.1813C74.436 51.0498 74.375 50.9121 74.338 50.7683C74.301 50.6244 74.3035 50.4755 74.3457 50.3214L74.6127 49.8692C75.7387 49.477 76.9054 49.2878 78.1129 49.3016C79.3203 49.3154 80.5342 49.3493 81.7546 49.4032C82.0044 49.4207 82.2521 49.4694 82.4976 49.5494C82.7432 49.6293 82.9536 49.7618 83.129 49.9467C83.243 50.1117 83.3242 50.2978 83.3724 50.5053C83.4207 50.7127 83.4216 50.9247 83.375 51.1412C83.1861 51.5989 82.9514 52.0377 82.6709 52.4576C82.3905 52.8775 82.0955 53.2807 81.786 53.6672L81.6923 53.6607L81.4285 54.066L81.3348 54.0595L80.9642 54.6458L80.8705 54.6392L80.6068 55.0446C80.4419 55.1586 80.2842 55.281 80.1338 55.4118C79.9834 55.5426 79.8705 55.6995 79.7949 55.8826L80.1097 56.0929C80.2528 56.2913 80.4298 56.4528 80.6408 56.5775C80.8518 56.7021 81.0623 56.8345 81.2722 56.9748L81.2656 57.0685L81.6709 57.3323L82.9205 58.3144L83.2724 58.6687C83.4779 58.8714 83.7007 59.0518 83.9408 59.2099C84.1808 59.3679 84.4192 59.5494 84.656 59.7544L85.1086 60.3511L85.1129 60.9636L84.8458 61.4158C84.6987 61.4997 84.5533 61.5602 84.4094 61.5972C84.2656 61.6343 84.1167 61.6317 83.9627 61.5895L83.333 61.1688C82.6227 60.554 81.9046 59.9387 81.1786 59.3228C80.4527 58.707 79.7001 58.1363 78.9207 57.6109L78.5286 57.1597L76.9048 58.8356L75.8488 59.7978L75.3943 60.2369L75.1938 60.4113L74.9029 60.5322L74.8963 60.6259L74.7459 60.7567C74.5788 60.902 74.4053 61.0272 74.2253 61.1323C74.0453 61.2375 73.8315 61.2657 73.5838 61.217ZM94.7986 65.5259L94.3465 65.2589C94.2615 65.1273 94.2005 64.9897 94.1635 64.8458C94.1265 64.7019 94.1301 64.5374 94.1745 64.3521C94.9672 63.3401 95.7004 62.2808 96.3741 61.1742C97.0479 60.0676 97.6449 58.9359 98.1652 57.7793C97.5689 57.3295 96.9642 56.8869 96.3512 56.4517C95.7382 56.0164 95.0791 55.6799 94.3738 55.4422L94.2136 55.7135C94.0799 55.8298 93.9333 55.9058 93.7739 55.9418C93.6144 55.9777 93.4421 55.9735 93.2569 55.9292L92.8047 55.6621C92.7198 55.5306 92.6588 55.3929 92.6218 55.249C92.5847 55.1052 92.5873 54.9562 92.6295 54.8022C93.2485 54.0292 93.7916 53.2196 94.2588 52.3732C94.7261 51.5268 95.1782 50.6715 95.6153 49.8074C95.7468 49.7224 95.8844 49.6614 96.0283 49.6243C96.1721 49.5873 96.321 49.5899 96.475 49.632L96.9271 49.8991L97.0949 50.1934C97.9695 50.2545 98.833 50.362 99.6854 50.5158C100.538 50.6696 101.344 50.9222 102.104 51.2736C102.247 51.472 102.318 51.6966 102.316 51.9477C102.314 52.1987 102.304 52.4492 102.287 52.6991C101.538 54.8758 100.661 56.9885 99.6545 59.0372C98.648 61.086 97.4519 63.0429 96.0659 64.9082L95.9722 64.9016L95.7586 65.2634L95.6649 65.2569L95.6583 65.3506C95.5269 65.4356 95.3892 65.4966 95.2454 65.5336C95.1015 65.5707 94.9526 65.5681 94.7986 65.5259ZM99.0361 56.0978L99.0426 56.0041C99.2403 55.4214 99.4687 54.8488 99.7277 54.2861C99.9868 53.7234 100.2 53.1496 100.366 52.5648C99.7479 52.4274 99.1208 52.305 98.4849 52.1978C97.8489 52.0905 97.2019 52.0296 96.5438 52.015L95.5628 53.9242C96.2034 54.1888 96.8001 54.5209 97.3528 54.9206C97.9056 55.3203 98.4666 55.7127 99.0361 56.0978ZM112.444 66.0064C111.676 65.5445 111.053 65.0339 110.574 64.4746C110.095 63.9153 109.498 63.3595 108.784 62.8072C108.699 62.6757 108.638 62.538 108.601 62.3941C108.564 62.2502 108.566 62.1013 108.608 61.9473L108.875 61.495C109.007 61.41 109.144 61.349 109.288 61.312C109.432 61.275 109.597 61.2786 109.782 61.323C109.996 61.4007 110.2 61.517 110.393 61.6718C110.586 61.8266 110.771 61.9886 110.948 62.1579L111.521 62.716L111.873 63.0703C112.06 63.3032 112.287 63.5388 112.553 63.7771L112.994 64.2082L113.258 64.4622C113.343 64.5937 113.404 64.7314 113.441 64.8753C113.478 65.0191 113.476 65.1681 113.434 65.3221L113.166 65.7743C113.066 65.8615 112.953 65.9163 112.825 65.9388C112.698 65.9614 112.571 65.9839 112.444 66.0064ZM130.338 67.3047L129.886 67.0377C129.801 66.9061 129.74 66.7685 129.703 66.6246C129.666 66.4807 129.67 66.3162 129.714 66.1309C130.503 64.7262 131.185 63.2826 131.759 61.8002C132.333 60.3177 132.77 58.7864 133.069 57.2062L131.617 57.1046L128.136 57.0496L128.127 57.1902L128.064 60.1055L127.797 60.5578C127.665 60.6427 127.528 60.7038 127.384 60.7408C127.24 60.7778 127.091 60.7753 126.937 60.7331L126.485 60.466C126.301 59.9509 126.23 59.3965 126.272 58.8029C126.313 58.2093 126.322 57.6292 126.299 57.0624L126.206 57.0559L124.392 57.0703L123.94 56.8033C123.855 56.6717 123.794 56.5341 123.757 56.3902C123.72 56.2463 123.722 56.0974 123.765 55.9434L124.032 55.4911C124.359 55.2943 124.73 55.2103 125.144 55.2393C125.558 55.2682 125.954 55.2645 126.333 55.2283L126.405 54.1973L126.375 53.9597C126.415 53.8369 126.462 53.7225 126.517 53.6164C126.571 53.5103 126.633 53.4126 126.702 53.3233C126.834 53.2383 126.971 53.1773 127.115 53.1402C127.259 53.1032 127.408 53.1058 127.562 53.1479L128.014 53.415C128.184 53.678 128.258 53.9658 128.236 54.2782C128.214 54.5906 128.192 54.903 128.17 55.2154L128.639 55.2482C129.455 55.2425 130.271 55.2524 131.085 55.278C131.899 55.3035 132.713 55.3447 133.525 55.4015L133.623 53.9956L133.546 53.072C133.586 52.9492 133.634 52.8348 133.688 52.7287C133.743 52.6226 133.804 52.5249 133.873 52.4355C134.005 52.3506 134.143 52.2895 134.286 52.2525C134.43 52.2155 134.579 52.218 134.733 52.2602L135.185 52.5273C135.373 52.9799 135.457 53.4685 135.436 53.9929C135.415 54.5173 135.386 55.045 135.349 55.5761C135.786 55.6067 136.234 55.6459 136.694 55.6937C137.154 55.7416 137.564 55.8723 137.926 56.086C138.011 56.2175 138.072 56.3552 138.109 56.4991C138.146 56.6429 138.142 56.8075 138.098 56.9927L137.831 57.445C137.697 57.5612 137.54 57.6287 137.358 57.6474C137.176 57.666 136.993 57.6532 136.807 57.6089L134.987 57.3874C134.617 59.0882 134.123 60.7568 133.507 62.3933C132.89 64.0298 132.12 65.6085 131.198 67.1294C131.067 67.2144 130.929 67.2754 130.785 67.3124C130.641 67.3495 130.492 67.3469 130.338 67.3047ZM148.169 68.5045L147.717 68.2374C147.632 68.1059 147.571 67.9682 147.534 67.8243C147.497 67.6805 147.499 67.5315 147.541 67.3775L148.062 66.6605L148.263 66.4861L149.12 65.6749C149.592 65.2056 150.02 64.7018 150.403 64.1634C150.786 63.6251 151.169 63.0868 151.551 62.5485C151.74 62.0908 151.944 61.642 152.163 61.2021C152.383 60.7622 152.556 60.2956 152.685 59.8023L151.848 59.6496L149.927 59.5152C149.019 59.4831 148.124 59.4912 147.242 59.5394C146.36 59.5876 145.492 59.6603 144.637 59.7575C144.515 59.7175 144.4 59.6703 144.294 59.6158C144.188 59.5613 144.09 59.4995 144.001 59.4305C143.916 59.2989 143.855 59.1613 143.818 59.0174C143.781 58.8735 143.784 58.7246 143.826 58.5706L144.093 58.1183C145.018 57.9005 145.985 57.7718 146.992 57.7324C147.999 57.6929 149.004 57.6769 150.008 57.6843L151.976 57.8219C152.38 57.8816 152.783 57.9568 153.184 58.0477C153.586 58.1386 153.951 58.3054 154.279 58.5481C154.481 58.8133 154.569 59.1177 154.545 59.4614C154.521 59.8051 154.497 60.1487 154.473 60.4924C154.139 61.2225 153.814 61.9454 153.497 62.661C153.181 63.3766 152.78 64.0628 152.294 64.7195C152.018 65.077 151.725 65.4489 151.416 65.8354C151.106 66.2219 150.796 66.6162 150.486 67.0183L150.285 67.1926L149.78 67.6753L149.58 67.8497L149.43 67.9805L149.279 68.1112C149.112 68.2565 148.939 68.37 148.761 68.4517C148.583 68.5334 148.385 68.551 148.169 68.5045ZM146.772 54.8209C146.649 54.7809 146.534 54.7336 146.428 54.6791C146.322 54.6246 146.225 54.5629 146.135 54.4938C146.05 54.3623 145.99 54.2207 145.953 54.069C145.917 53.9174 145.92 53.7645 145.962 53.6105L146.229 53.1582C146.775 52.9767 147.368 52.9083 148.009 52.9531C148.649 52.9978 149.268 53.0097 149.866 52.9887L152.302 53.1591L152.754 53.4262C152.839 53.5577 152.9 53.6954 152.937 53.8393C152.974 53.9831 152.972 54.1321 152.93 54.2861L152.661 54.7618C152.561 54.8489 152.447 54.9038 152.32 54.9263C152.193 54.9488 152.066 54.9713 151.938 54.9938L149.83 54.8464L146.772 54.8209ZM163.981 69.6102L163.529 69.3431C163.444 69.2116 163.383 69.0739 163.346 68.9301C163.309 68.7862 163.313 68.6216 163.357 68.4364C164.18 67.4422 164.969 66.375 165.723 65.2348C166.478 64.0945 167.101 62.9294 167.592 61.7394C166.991 61.3521 166.381 60.9954 165.76 60.6695C165.139 60.3435 164.565 60.1463 164.036 60.078L163.789 60.249C163.657 60.334 163.519 60.395 163.376 60.4321C163.232 60.4691 163.067 60.4655 162.882 60.4211L162.43 60.154C162.345 60.0225 162.284 59.8848 162.247 59.741C162.21 59.5971 162.214 59.4325 162.258 59.2473L162.525 58.795L162.725 58.6207L162.819 58.6272C163.253 57.8099 163.623 57.1137 163.93 56.5387C164.237 55.9637 164.567 55.3981 164.92 54.842C165.051 54.757 165.189 54.696 165.333 54.659C165.477 54.6219 165.626 54.6245 165.78 54.6667C166.672 54.9174 167.608 55.1163 168.586 55.2632C169.565 55.4101 170.48 55.6781 171.332 56.0673C171.446 56.2323 171.504 56.409 171.506 56.5976C171.509 56.7861 171.502 56.9897 171.487 57.2084C170.823 59.077 170.065 60.9313 169.215 62.7712C168.364 64.611 167.265 66.4178 165.917 68.1915L165.823 68.185L165.042 69.2605L164.898 69.2976L164.794 69.4316C164.694 69.5188 164.573 69.5731 164.43 69.5945C164.287 69.6159 164.138 69.6211 163.981 69.6102ZM168.419 60.0078L168.426 59.914C168.613 59.4876 168.799 59.0689 168.985 58.6581C169.17 58.2472 169.326 57.8108 169.453 57.3487C168.897 57.2157 168.317 57.0966 167.712 56.9915C167.108 56.8865 166.51 56.7976 165.918 56.7248L165.098 58.3627C165.68 58.5604 166.244 58.8039 166.788 59.0932C167.333 59.3824 167.86 59.7018 168.369 60.0514L168.419 60.0078ZM173.884 57.6115C173.491 57.3956 173.131 57.1036 172.803 56.7353C172.476 56.3671 172.134 56.0371 171.778 55.7454C171.693 55.6138 171.632 55.4761 171.595 55.3323C171.558 55.1884 171.56 55.0395 171.602 54.8855L171.87 54.4332C172.001 54.3482 172.139 54.2872 172.282 54.2502C172.426 54.2131 172.575 54.2157 172.729 54.2579L173.738 54.9877L174.133 55.392L174.793 56.0504C174.877 56.1975 174.945 56.3436 174.998 56.4885C175.051 56.6335 175.055 56.7986 175.01 56.9839L174.743 57.4361C174.612 57.5211 174.474 57.5821 174.33 57.6191C174.187 57.6562 174.038 57.6536 173.884 57.6115ZM175.803 55.7443C175.681 55.7043 175.566 55.6571 175.46 55.6026C175.354 55.5481 175.256 55.4863 175.167 55.4173L174.906 55.1164L173.911 54.5289C173.826 54.3973 173.765 54.2597 173.728 54.1158C173.691 53.9719 173.693 53.823 173.736 53.669L174.003 53.2167C174.134 53.1317 174.272 53.0707 174.416 53.0337C174.559 52.9966 174.724 53.0003 174.909 53.0446C175.184 53.158 175.442 53.2859 175.683 53.4284C175.924 53.5708 176.164 53.7289 176.403 53.9026L176.789 54.4475L176.793 55.06L176.526 55.5123C176.425 55.5994 176.312 55.6543 176.185 55.6768C176.058 55.6993 175.93 55.7218 175.803 55.7443ZM182.769 70.924C182.001 70.4621 181.378 69.9516 180.899 69.3922C180.42 68.8329 179.823 68.2771 179.109 67.7248C179.024 67.5933 178.963 67.4556 178.926 67.3117C178.889 67.1678 178.891 67.0189 178.933 66.8649L179.2 66.4126C179.332 66.3276 179.47 66.2666 179.613 66.2296C179.757 66.1926 179.922 66.1962 180.107 66.2406C180.321 66.3183 180.525 66.4346 180.718 66.5894C180.911 66.7442 181.096 66.9062 181.273 67.0756L181.846 67.6336L182.198 67.9879C182.385 68.2208 182.612 68.4564 182.878 68.6947L183.319 69.1258L183.583 69.3798C183.668 69.5113 183.729 69.649 183.766 69.7929C183.803 69.9367 183.801 70.0857 183.759 70.2397L183.492 70.6919C183.391 70.7791 183.278 70.834 183.151 70.8565C183.023 70.879 182.896 70.9015 182.769 70.924ZM197.457 71.6214L197.005 71.3543C196.922 71.1916 196.863 71.0226 196.828 70.8475C196.793 70.6724 196.783 70.4911 196.796 70.3037L196.846 70.2601L197.06 67.1906L197.199 65.8817L197.155 65.8316L197.382 62.5981L197.533 61.1018C197.557 60.3185 197.563 59.5538 197.552 58.8074C197.542 58.061 197.516 57.3097 197.475 56.5533L197.742 56.1011C197.873 56.0161 198.011 55.9551 198.155 55.9181C198.299 55.881 198.447 55.8836 198.601 55.9258L199.054 56.1928C199.309 57.027 199.428 57.9104 199.41 58.8431C199.392 59.7758 199.365 60.7119 199.331 61.6513L199.425 61.6579L199.586 62.0459L199.68 62.0524L200.203 62.6541L200.554 63.0083L201.339 63.9108L201.731 64.3621L202.338 65.1109C202.423 65.2424 202.484 65.3801 202.521 65.5239C202.558 65.6678 202.554 65.8324 202.51 66.0176L202.243 66.4699C202.111 66.5549 201.974 66.6159 201.83 66.6529C201.686 66.69 201.537 66.6874 201.383 66.6452L200.931 66.3782L199.231 64.4227L199.097 64.3192L198.983 65.9594L198.938 67.2748L198.888 67.3184L198.634 70.9502L198.317 71.4461C198.185 71.531 198.047 71.5921 197.904 71.6291C197.76 71.6661 197.611 71.6636 197.457 71.6214ZM205.792 61.1613C205.669 61.1213 205.555 61.074 205.449 61.0195C205.343 60.965 205.237 60.9027 205.132 60.8326L205.139 60.7389C204.779 60.494 204.428 60.2418 204.085 59.9824C203.742 59.7229 203.409 59.4406 203.085 59.1354C203 59.0039 202.939 58.8662 202.902 58.7223C202.865 58.5785 202.868 58.4295 202.91 58.2755L203.179 57.7998C203.31 57.7149 203.448 57.6538 203.592 57.6168C203.735 57.5798 203.884 57.5823 204.038 57.6245L206.12 59.1593C206.236 59.293 206.354 59.4111 206.472 59.5135C206.59 59.616 206.691 59.7486 206.774 59.9114L206.781 60.477L206.514 60.9292C206.414 61.0164 206.3 61.0712 206.173 61.0937C206.046 61.1163 205.919 61.1388 205.792 61.1613ZM207.217 58.9535C206.916 58.7754 206.615 58.5856 206.316 58.3842C206.016 58.1827 205.732 57.9784 205.464 57.7713C205.363 57.6387 205.295 57.5004 205.258 57.3566C205.221 57.2127 205.223 57.0638 205.265 56.9097L205.556 56.4591C205.687 56.3742 205.825 56.3131 205.969 56.2761C206.113 56.2391 206.277 56.2427 206.462 56.2871L208.174 57.3957C208.259 57.5272 208.32 57.6649 208.357 57.8088C208.394 57.9526 208.39 58.1172 208.346 58.3024L208.077 58.7781C207.946 58.8631 207.808 58.9241 207.664 58.9612C207.52 58.9982 207.371 58.9956 207.217 58.9535ZM218.424 73.4172L217.972 73.1501C217.884 73.0498 217.83 72.9283 217.809 72.7855C217.787 72.6428 217.765 72.5078 217.743 72.3806C218.732 70.8016 219.383 69.1283 219.695 67.3606C220.007 65.5929 220.32 63.8096 220.634 62.0107L220.775 59.9957L220.66 58.2688L220.927 57.8166C221.059 57.7316 221.196 57.6706 221.34 57.6335C221.484 57.5965 221.633 57.599 221.787 57.6412L222.239 57.9083C222.438 58.2047 222.54 58.5337 222.547 58.8952C222.553 59.2566 222.574 59.6192 222.612 59.9828L222.461 62.1385C222.14 64.0311 221.811 65.9389 221.472 67.8616C221.134 69.7844 220.404 71.5778 219.283 73.2418C219.152 73.3268 219.014 73.3878 218.87 73.4249C218.727 73.4619 218.578 73.4593 218.424 73.4172ZM215.123 66.7584C215 66.7184 214.886 66.6711 214.78 66.6166C214.674 66.5621 214.576 66.5004 214.487 66.4313C214.404 66.2686 214.344 66.1074 214.308 65.948C214.273 65.7885 214.261 65.615 214.274 65.4275L214.367 64.7748L214.368 63.4092L214.63 59.6602C214.67 59.5374 214.718 59.423 214.772 59.3169C214.827 59.2108 214.888 59.1131 214.957 59.0238C215.09 58.9232 215.228 58.8543 215.372 58.8173C215.516 58.7803 215.665 58.7828 215.819 58.825L216.269 59.1155L216.471 59.6005L216.202 63.4432L216.112 66.0741L215.845 66.5263C215.745 66.6135 215.631 66.6683 215.504 66.6908C215.377 66.7134 215.25 66.7359 215.123 66.7584ZM232.739 72.6994C232.586 72.6572 232.424 72.6067 232.256 72.5478C232.087 72.489 231.944 72.4083 231.825 72.3058C231.74 72.1743 231.679 72.0366 231.642 71.8928C231.605 71.7489 231.608 71.6 231.65 71.4459L231.917 70.9937C233.459 70.9445 234.949 70.617 236.388 70.0113C237.827 69.4056 239.163 68.5964 240.395 67.5837L242.049 66.1454L242.968 65.4562C242.975 65.3625 243.005 65.2704 243.058 65.1799C243.112 65.0895 243.173 64.9996 243.242 64.9102C243.376 64.794 243.53 64.7184 243.705 64.6836C243.88 64.6487 244.06 64.6535 244.245 64.6978L244.698 64.9649C244.783 65.0964 244.844 65.2341 244.881 65.378C244.918 65.5219 244.915 65.6708 244.873 65.8248C244.795 66.0391 244.688 66.2279 244.551 66.3909C244.414 66.554 244.276 66.7249 244.138 66.9037L244.045 66.8971L244.038 66.9908L243.44 67.467L242.985 67.9061L242.835 68.0369C242.325 68.3779 241.837 68.7284 241.372 69.0884C240.908 69.4483 240.442 69.8317 239.974 70.2385C238.859 70.914 237.705 71.4848 236.511 71.9507C235.317 72.4166 234.06 72.6662 232.739 72.6994ZM234.848 64.0878L234.396 63.8207L233.035 62.407L232.288 61.6484C232.203 61.5169 232.142 61.3792 232.105 61.2353C232.068 61.0915 232.071 60.9347 232.115 60.7651L232.382 60.3128C232.513 60.2278 232.651 60.1668 232.795 60.1298C232.938 60.0928 233.087 60.0953 233.241 60.1375C233.456 60.2153 233.65 60.3466 233.826 60.5315C234.001 60.7165 234.177 60.9014 234.352 61.0863L234.389 61.2302L235.759 62.5033C235.844 62.6349 235.913 62.7809 235.964 62.9415C236.016 63.1021 236.019 63.275 235.975 63.4602L235.708 63.9125C235.577 63.9975 235.439 64.0585 235.295 64.0955C235.151 64.1326 235.002 64.13 234.848 64.0878ZM253.068 76.2165L252.616 75.9494C252.547 75.819 252.489 75.6855 252.444 75.5489C252.398 75.4123 252.398 75.2513 252.442 75.0661C253.652 73.2513 254.769 71.3594 255.794 69.3904C256.818 67.4214 257.731 65.4211 258.532 63.3894L255.471 63.0576L255.117 63.0799C254.696 63.7098 254.259 64.3425 253.807 64.9779C253.354 65.6134 252.91 66.2456 252.474 66.8743C252.341 66.9749 252.202 67.0516 252.057 67.1042C251.912 67.1569 251.747 67.161 251.562 67.1167L251.108 66.873C251.023 66.7415 250.959 66.6036 250.914 66.4592C250.869 66.3147 250.868 66.1655 250.91 66.0115C251.388 65.2287 251.905 64.4604 252.46 63.7065C253.015 62.9526 253.556 62.1702 254.083 61.3595C254.301 61.1706 254.543 61.0776 254.809 61.0806C255.076 61.0835 255.35 61.0948 255.631 61.1145C256.47 61.2359 257.31 61.3378 258.152 61.4203C258.993 61.5027 259.763 61.7174 260.461 62.0644C260.546 62.1959 260.611 62.3339 260.655 62.4783C260.7 62.6227 260.701 62.7875 260.656 62.9728C259.822 65.2534 258.858 67.4856 257.763 69.6694C256.669 71.8533 255.408 73.9549 253.98 75.9741C253.848 76.0591 253.71 76.1279 253.565 76.1806C253.42 76.2332 253.254 76.2452 253.068 76.2165ZM93.9743 92.2948L93.5222 92.0277C93.4372 91.8962 93.3765 91.7546 93.34 91.6029C93.3035 91.4513 93.3075 91.2828 93.3518 91.0975L93.6188 90.6453C93.8572 90.3794 94.0815 90.089 94.2918 89.7741C94.5022 89.4591 94.7131 89.1364 94.9245 88.8058C95.1091 88.4106 95.2624 88.0132 95.3845 87.6136C95.5066 87.214 95.5684 86.7788 95.57 86.308C95.5715 85.8372 95.4761 85.4067 95.2836 85.0165C95.0912 84.6263 94.8352 84.2474 94.5157 83.8797C94.1315 83.5389 93.6928 83.3042 93.1996 83.1755C92.7064 83.0468 92.1786 82.9628 91.6164 82.9235C91.6002 84.0526 91.425 85.0999 91.0907 86.0654C90.7564 87.031 90.2619 87.9304 89.6073 88.7637L89.5136 88.7571L89.3534 89.0284L88.949 89.424L88.6483 89.6855L88.3573 89.8064L88.3508 89.9002C87.9875 90.1573 87.5834 90.3253 87.1385 90.404C86.6936 90.4828 86.2379 90.4902 85.7716 90.4262C85.5261 90.3462 85.2978 90.2439 85.0868 90.1193C84.8758 89.9947 84.6821 89.8477 84.5056 89.6784C84.2195 89.2816 84.0582 88.8387 84.0218 88.3495C83.9854 87.8604 83.9846 87.3659 84.0196 86.866C84.1389 86.0581 84.3988 85.3149 84.7993 84.6366C85.1999 83.9582 85.6875 83.3252 86.2622 82.7375C86.9327 82.1251 87.6694 81.69 88.4721 81.4322C89.2748 81.1744 90.1011 81.0281 90.951 80.9933C91.7631 81.0501 92.5558 81.1605 93.329 81.3244C94.1022 81.4884 94.8037 81.7807 95.4334 82.2015L95.9629 82.7094L95.9563 82.8032L96.05 82.8097L96.4825 83.358C96.9273 83.9542 97.2121 84.5941 97.337 85.2778C97.4618 85.9615 97.4656 86.6917 97.3486 87.4684C97.1624 88.3344 96.8597 89.1295 96.4402 89.8537C96.0208 90.5778 95.5355 91.2895 94.9844 91.9887L94.834 92.1195C94.7025 92.2044 94.5649 92.2655 94.4211 92.3025C94.2772 92.3395 94.1283 92.337 93.9743 92.2948ZM87.2309 88.4091C87.5273 88.2101 87.7947 87.9776 88.033 87.7117C88.2713 87.4459 88.4784 87.1778 88.6542 86.9075C89.0081 86.3358 89.2782 85.7268 89.4646 85.0805C89.6511 84.4343 89.7538 83.7508 89.7728 83.0301L89.5854 83.017C89.3936 83.0663 89.2096 83.1163 89.0335 83.1667C88.8573 83.2172 88.6879 83.2838 88.5252 83.3666L88.5186 83.4604L87.4387 84.0912C86.9621 84.623 86.5686 85.1998 86.2584 85.8217C85.9481 86.4436 85.798 87.1316 85.808 87.8858L85.9092 88.458C85.9986 88.527 86.0895 88.5726 86.1822 88.5948C86.2748 88.617 86.3835 88.6324 86.5085 88.6411L87.2309 88.4091ZM105.32 93.3236C105.043 93.2415 104.777 93.1169 104.522 92.9499C104.267 92.783 104.037 92.5825 103.834 92.3485C103.633 92.0833 103.497 91.7834 103.426 91.4488C103.355 91.1142 103.316 90.774 103.309 90.4282C103.436 89.9661 103.576 89.5285 103.731 89.1155C103.885 88.7025 104.132 88.3195 104.47 87.9664C104.771 87.7049 105.092 87.4919 105.433 87.3273C105.774 87.1628 106.108 86.9821 106.436 86.7853L107.011 86.6372L107.054 86.0279L107.035 84.2842L106.753 84.2645C106.347 84.2362 105.955 84.2401 105.576 84.2764C105.196 84.3126 104.817 84.3489 104.438 84.3852C104.284 84.343 104.123 84.2925 103.954 84.2336C103.786 84.1748 103.634 84.0935 103.5 83.99C103.416 83.8585 103.355 83.7208 103.318 83.5769C103.28 83.4331 103.283 83.2841 103.325 83.1301L103.592 82.6778C104.087 82.5555 104.602 82.4894 105.136 82.4797C105.671 82.47 106.204 82.4681 106.737 82.4739L106.747 82.3334C106.738 82.0188 106.68 81.7204 106.574 81.4383C106.469 81.1562 106.428 80.8433 106.452 80.4997L106.719 80.0474C106.85 79.9624 106.988 79.9014 107.132 79.8644C107.276 79.8274 107.424 79.8299 107.578 79.8721L108.031 80.1392C108.227 80.4669 108.359 80.8254 108.426 81.2146C108.493 81.6039 108.544 82.0038 108.578 82.4143L108.953 82.4405C109.238 82.3977 109.545 82.3799 109.874 82.3872C110.203 82.3945 110.524 82.4091 110.836 82.4309L111.289 82.698C111.374 82.8295 111.435 82.9672 111.472 83.1111C111.509 83.255 111.506 83.4039 111.464 83.5579L111.197 84.0102C110.869 84.207 110.503 84.2834 110.098 84.2394C109.693 84.1954 109.3 84.2072 108.918 84.2747L108.826 84.9275L108.871 86.2963L109.106 86.3127C109.485 86.2764 109.863 86.2558 110.24 86.2507C110.617 86.2457 111.008 86.2574 111.414 86.2858C111.876 86.4123 112.319 86.5845 112.744 86.8025C113.168 87.0206 113.573 87.2844 113.959 87.5939L114.482 88.1956C114.829 88.628 115.05 89.1065 115.147 89.6313C115.244 90.1561 115.256 90.7141 115.183 91.3055C115.157 91.6804 115.097 92.0373 115.002 92.376C114.908 92.7148 114.756 93.0338 114.547 93.3331C114.415 93.4181 114.277 93.4869 114.132 93.5396C113.987 93.5922 113.822 93.5964 113.637 93.552L113.185 93.2849C113.1 93.1534 113.039 93.0157 113.002 92.8719C112.965 92.728 112.969 92.5634 113.013 92.3782C113.157 92.1057 113.241 91.8055 113.264 91.4775C113.287 91.1494 113.325 90.8303 113.378 90.5201C113.369 90.2055 113.303 89.9105 113.181 89.6351C113.059 89.3597 112.865 89.1028 112.599 88.8645C112.271 88.6218 111.924 88.4248 111.558 88.2736C111.192 88.1225 110.789 88.0472 110.35 88.0479L108.837 88.1305C108.807 89.0074 108.671 89.8299 108.429 90.5978C108.187 91.3658 107.793 92.0603 107.248 92.6814L106.997 92.8993C106.734 93.0693 106.467 93.188 106.195 93.2553C105.924 93.3227 105.632 93.3454 105.32 93.3236ZM105.927 91.3647C106.268 90.9804 106.517 90.5661 106.673 90.1219C106.83 89.6776 106.927 89.1899 106.964 88.6588L106.87 88.6522L106.141 88.978L106.135 89.0717L105.787 89.33L105.693 89.3234C105.551 89.5646 105.432 89.8153 105.335 90.0753C105.238 90.3354 105.18 90.6061 105.16 90.8872L105.275 91.272L105.78 91.4486L105.927 91.3647ZM115.579 85.6352L115.104 85.3665C114.93 85.1659 114.714 84.9939 114.457 84.8504C114.201 84.7068 113.968 84.5493 113.761 84.3778C113.676 84.2463 113.615 84.1086 113.578 83.9647C113.541 83.8209 113.543 83.6719 113.585 83.5179L113.852 83.0657C113.984 82.9807 114.122 82.9197 114.265 82.8826C114.409 82.8456 114.574 82.8492 114.759 82.8936L116.407 83.9036C116.521 84.0685 116.611 84.2396 116.677 84.4169C116.743 84.5942 116.753 84.7911 116.706 85.0076L116.439 85.4599C116.308 85.5448 116.17 85.6059 116.026 85.6429C115.882 85.6799 115.733 85.6774 115.579 85.6352ZM135.002 98.7427L134.55 98.4756C134.463 98.3753 134.408 98.2538 134.387 98.111C134.366 97.9683 134.344 97.8333 134.321 97.7062C134.667 96.8042 134.922 95.841 135.088 94.8166C135.254 93.7922 135.389 92.7656 135.492 91.7368L135.455 91.5929L133.721 91.4717L132.848 91.5048L130.927 91.3705L128.712 91.4039C128.589 91.364 128.475 91.3167 128.369 91.2622C128.263 91.2077 128.165 91.1459 128.076 91.0769C127.991 90.9454 127.93 90.8077 127.893 90.6638C127.856 90.52 127.858 90.371 127.9 90.217L128.167 89.7647C128.618 89.6079 129.093 89.5391 129.594 89.5584C130.095 89.5778 130.582 89.5726 131.055 89.5428L132.929 89.6739L135.442 89.7554L135.459 89.5211L135.444 89.0492L135.712 88.597C135.843 88.512 135.981 88.451 136.124 88.4139C136.268 88.3769 136.417 88.3795 136.571 88.4216L137.023 88.6887C137.184 88.8569 137.28 89.052 137.312 89.274C137.344 89.496 137.352 89.7163 137.336 89.935C137.711 89.9612 138.086 89.9874 138.461 90.0136C138.836 90.0398 139.173 90.1576 139.472 90.3669C139.557 90.4984 139.618 90.6361 139.655 90.7799C139.692 90.9238 139.689 91.0727 139.647 91.2268L139.38 91.679C139.215 91.7931 139.046 91.8597 138.872 91.8789C138.698 91.8982 138.517 91.9012 138.33 91.8881L137.349 91.7724C137.235 92.9574 137.09 94.1325 136.914 95.2975C136.739 96.4625 136.388 97.5524 135.862 98.5674C135.73 98.6523 135.593 98.7134 135.449 98.7504C135.305 98.7874 135.156 98.7849 135.002 98.7427ZM124.709 96.7986L124.257 96.5315C124.087 96.2685 124.014 95.9729 124.037 95.6449C124.06 95.3169 124.082 94.9966 124.104 94.6842L124.274 92.9302L124.258 91.1396L124.417 90.2089L124.373 90.1587L124.537 87.8156L124.54 87.1094L124.399 87.0996L124.095 87.4079L123.697 87.7098L123.346 88.0149L123.253 88.0083L123.142 88.2361C123.011 88.3211 122.873 88.3821 122.73 88.4191C122.586 88.4561 122.421 88.4525 122.236 88.4081L121.784 88.1411C121.699 88.0095 121.638 87.8719 121.601 87.728C121.564 87.5841 121.566 87.4352 121.609 87.2812C121.653 87.0959 121.742 86.9451 121.876 86.8289C122.009 86.7127 122.144 86.5808 122.28 86.4334C123.173 85.7738 124.012 85.0632 124.795 84.3017C125.578 83.5402 126.372 82.7796 127.179 82.0197C127.31 81.9347 127.448 81.8737 127.592 81.8367C127.736 81.7996 127.885 81.8022 128.039 81.8444L128.491 82.1114C128.576 82.2429 128.637 82.3806 128.674 82.5245C128.711 82.6684 128.708 82.8173 128.666 82.9713C128.59 83.1544 128.477 83.3191 128.325 83.4655C128.174 83.6119 128.046 83.7599 127.941 83.9096L126.177 85.5757L126.224 85.579C126.421 85.9067 126.498 86.2652 126.455 86.6547C126.412 87.0441 126.393 87.4273 126.398 87.8044L126.234 90.1475L126.235 90.8069L126.073 92.4438L126.134 92.919L125.995 94.9106C125.913 95.1874 125.876 95.491 125.884 95.8212C125.893 96.1514 125.795 96.4193 125.593 96.6249C125.461 96.7099 125.323 96.7709 125.18 96.8079C125.036 96.845 124.879 96.8418 124.709 96.7986ZM132.179 95.3431C131.724 95.1229 131.271 94.8636 130.821 94.5653C130.371 94.267 129.938 93.9541 129.522 93.6268C129.437 93.4953 129.376 93.3576 129.339 93.2137C129.302 93.0698 129.304 92.9209 129.346 92.7669L129.613 92.3146C129.745 92.2296 129.883 92.1686 130.026 92.1316C130.17 92.0946 130.335 92.0982 130.52 92.1426L132.952 93.7253C133.037 93.8569 133.105 93.999 133.157 94.1518C133.209 94.3045 133.213 94.4736 133.169 94.6588L132.902 95.1111C132.802 95.1982 132.688 95.2531 132.561 95.2756C132.434 95.2981 132.307 95.3206 132.179 95.3431ZM129.068 87.9912C128.946 87.9512 128.831 87.904 128.725 87.8494C128.619 87.7949 128.521 87.7332 128.432 87.6641C128.347 87.5326 128.286 87.3949 128.249 87.2511C128.212 87.1072 128.215 86.9582 128.257 86.8042L128.524 86.352C129.224 86.2126 129.951 86.1379 130.705 86.1278C131.459 86.1177 132.213 86.1077 132.967 86.0976L135.778 86.2942L135.822 86.3443L137.954 86.4934L138.8 86.5055C138.923 86.5455 139.046 86.5854 139.169 86.6254C139.291 86.6654 139.396 86.7355 139.483 86.8358C139.568 86.9673 139.629 87.105 139.666 87.2489C139.703 87.3927 139.701 87.5417 139.659 87.6957L139.392 88.148C139.26 88.2329 139.123 88.2861 138.98 88.3076C138.838 88.329 138.687 88.3498 138.529 88.3702L137.923 88.2807L137.873 88.3243L135.6 88.1654L135.557 88.1153L132.886 87.9285C132.257 87.9473 131.62 87.9656 130.976 87.9833C130.331 88.001 129.695 88.0036 129.068 87.9912ZM131.026 85.5851L130.574 85.318C130.404 85.055 130.33 84.7594 130.353 84.4314C130.376 84.1034 130.398 83.7831 130.42 83.4707L130.47 83.4271L130.655 80.7794L130.694 79.5577C130.738 79.3725 130.821 79.1977 130.942 79.0335C131.064 78.8694 131.177 78.7124 131.281 78.5628C131.544 78.3928 131.854 78.336 132.211 78.3924C132.568 78.4487 132.905 78.4566 133.222 78.4159L136.689 78.6584C136.874 78.7027 137.059 78.7471 137.245 78.7914C137.43 78.8358 137.604 78.9264 137.767 79.0634C137.883 79.1971 137.959 79.3515 137.994 79.5266C138.028 79.7017 138.024 79.8819 137.979 80.0672L137.91 80.3919L137.955 83.1029C137.891 83.5693 137.812 84.0269 137.718 84.4755C137.624 84.9241 137.417 85.3099 137.096 85.6328C136.737 85.8275 136.332 85.8934 135.881 85.8305C135.431 85.7675 134.985 85.752 134.543 85.7839L131.451 85.5677L131.026 85.5851ZM135.892 83.9946L135.899 83.9009L135.982 83.3887C135.645 83.2709 135.281 83.1984 134.89 83.1711C134.5 83.1438 134.117 83.1171 133.742 83.0909L132.33 83.0863L132.234 83.786L134.53 83.9465L135.892 83.9946ZM123.984 82.2672L123.531 82.0001C123.447 81.8686 123.386 81.727 123.349 81.5753C123.313 81.4236 123.317 81.2552 123.361 81.0699L123.628 80.6177L124.972 79.5814L126.092 78.7179C126.223 78.6329 126.361 78.5719 126.505 78.5349C126.648 78.4978 126.797 78.5004 126.951 78.5425L127.403 78.8096C127.488 78.9411 127.549 79.0788 127.586 79.2227C127.623 79.3666 127.621 79.5155 127.579 79.6695C127.503 79.8526 127.39 80.0173 127.238 80.1637C127.087 80.3101 126.927 80.4559 126.76 80.6012L126.172 80.9368L125.965 81.2049L125.141 81.8772L124.85 81.9981L124.843 82.0918C124.712 82.1768 124.574 82.2378 124.43 82.2749C124.287 82.3119 124.138 82.3093 123.984 82.2672ZM136.071 81.4406L136.077 81.3469L136.093 80.4532L133.141 80.2468L132.482 80.2478L132.439 80.8571L132.46 81.2352L132.928 81.268L135.605 81.361L136.071 81.4406ZM151.53 97.3555C151.189 97.3003 150.883 97.1847 150.613 97.0088C150.343 96.833 150.09 96.6269 149.856 96.3908C149.597 96.0587 149.426 95.6975 149.343 95.3071C149.261 94.9168 149.233 94.5185 149.262 94.1124C149.348 93.7731 149.457 93.4511 149.588 93.1463C149.72 92.8415 149.904 92.5562 150.143 92.2903L150.343 92.116C150.744 91.7673 151.191 91.5474 151.684 91.4563C152.177 91.3652 152.703 91.3549 153.263 91.4254L153.385 89.6915L153.419 87.8573L153.686 87.4051C153.817 87.3201 153.955 87.2591 154.099 87.2221C154.243 87.185 154.391 87.1876 154.545 87.2298L154.998 87.4968C155.163 87.8224 155.241 88.1653 155.232 88.5257C155.222 88.886 155.22 89.2548 155.225 89.6319L155.094 91.5064C155.525 91.6307 155.955 91.7628 156.384 91.9027C156.814 92.0426 157.19 92.2808 157.511 92.6172C157.612 92.7498 157.681 92.8881 157.718 93.032C157.755 93.1758 157.752 93.3248 157.71 93.4788L157.42 93.9294C157.288 94.0144 157.151 94.0754 157.007 94.1124C156.863 94.1495 156.698 94.1458 156.513 94.1014C156.274 93.9278 156.018 93.7764 155.745 93.6474C155.471 93.5184 155.178 93.443 154.866 93.4212C154.795 93.9813 154.696 94.5081 154.567 95.0014C154.438 95.4947 154.202 95.9569 153.858 96.3881L153.507 96.6932C153.211 96.8922 152.901 97.0511 152.579 97.1699C152.257 97.2886 151.907 97.3505 151.53 97.3555ZM152.339 95.2223C152.608 94.9586 152.778 94.6565 152.849 94.3162C152.92 93.9758 152.984 93.6192 153.042 93.2465L152.339 93.1974L151.667 93.3858L151.66 93.4795L151.256 93.8751L151.069 94.5213L151.261 95.1469L151.804 95.4674L152.339 95.2223ZM145.922 89.3581L145.446 89.0893C145.361 88.9578 145.3 88.8201 145.263 88.6763C145.226 88.5324 145.23 88.3678 145.274 88.1826L146.58 86.0135L146.392 86.0003L145.803 86.0063L145.351 85.7392C145.266 85.6077 145.205 85.47 145.168 85.3261C145.131 85.1822 145.134 85.0333 145.176 84.8793L145.443 84.427C145.768 84.2614 146.132 84.1691 146.533 84.1501C146.935 84.1311 147.325 84.1034 147.704 84.0672C147.88 83.7969 148.026 83.5049 148.142 83.1913C148.258 82.8776 148.436 82.5878 148.674 82.3219C148.805 82.2369 148.943 82.1759 149.087 82.1389C149.231 82.1019 149.38 82.1044 149.534 82.1466L149.986 82.4137C150.071 82.5452 150.132 82.6829 150.169 82.8267C150.206 82.9706 150.202 83.1352 150.158 83.3204L149.986 83.7558L150.127 83.7656C150.446 83.6937 150.779 83.6347 151.128 83.5884C151.476 83.5421 151.837 83.5477 152.209 83.6052L152.704 83.9458C152.788 84.0773 152.849 84.215 152.886 84.3589C152.924 84.5028 152.921 84.6517 152.879 84.8057L152.612 85.258C152.48 85.343 152.351 85.3967 152.224 85.4192C152.097 85.4417 151.954 85.4631 151.796 85.4835L151.377 85.4071L148.952 85.7555C148.629 86.3294 148.29 86.9101 147.935 87.4975C147.58 88.0848 147.196 88.6466 146.782 89.1827C146.65 89.2677 146.513 89.3287 146.369 89.3658C146.225 89.4028 146.076 89.4002 145.922 89.3581ZM158.819 87.717C158.665 87.6748 158.526 87.5944 158.401 87.4758C158.276 87.3572 158.154 87.2466 158.035 87.1442L156.883 86.1217L156.752 85.9713L156.219 85.5102C156.105 85.3453 156.015 85.182 155.948 85.0203C155.88 84.8587 155.87 84.6696 155.917 84.4531L156.184 84.0008C156.315 83.9158 156.453 83.8548 156.597 83.8178C156.741 83.7807 156.889 83.7833 157.043 83.8255L157.496 84.0925L157.489 84.1863L158.115 84.6539L158.246 84.8043L158.755 85.2638L158.749 85.3575L159.335 85.7281L159.466 85.8785L159.459 85.9723L159.553 85.9788C159.698 86.1459 159.812 86.3187 159.893 86.4971C159.975 86.6754 159.993 86.8729 159.946 87.0894L159.679 87.5416C159.548 87.6266 159.41 87.6876 159.266 87.7247C159.122 87.7617 158.973 87.7591 158.819 87.717ZM173.941 98.0279C173.048 97.7771 172.155 97.538 171.261 97.3107C170.366 97.0833 169.582 96.6321 168.907 95.957C168.245 95.0945 167.808 94.1614 167.596 93.1576C167.384 92.1538 167.284 91.1187 167.295 90.0521L167.202 90.0455C166.883 90.1174 166.563 90.2049 166.242 90.308C165.921 90.4112 165.565 90.4491 165.174 90.4218L164.722 90.1547C164.637 90.0232 164.576 89.8855 164.539 89.7416C164.502 89.5978 164.505 89.4488 164.547 89.2948L164.814 88.8426C165.249 88.6846 165.674 88.5495 166.09 88.4373C166.506 88.3251 166.937 88.2218 167.383 88.1274L167.458 87.0496L167.428 86.812L167.524 86.1124L167.513 85.5936C167.56 85.3771 167.591 85.1556 167.607 84.9291C167.622 84.7026 167.714 84.5167 167.881 84.3714C168.012 84.2864 168.15 84.2254 168.294 84.1884C168.438 84.1513 168.587 84.1539 168.741 84.1961L169.193 84.4631C169.336 84.6615 169.407 84.8745 169.407 85.1021C169.407 85.3297 169.398 85.5684 169.381 85.8184L169.314 86.0963L169.305 86.8962L169.249 87.0335L169.24 87.8335L169.333 87.84C170.446 87.6353 171.564 87.478 172.686 87.368C173.808 87.2581 174.961 87.2603 176.146 87.3745C176.331 87.4189 176.516 87.4632 176.701 87.5076C176.887 87.5519 177.053 87.642 177.2 87.7779C177.314 87.9429 177.392 88.1288 177.432 88.3357C177.472 88.5426 177.462 88.7537 177.399 88.9691C177.288 89.2125 177.163 89.4392 177.022 89.6491C176.882 89.8591 176.726 90.068 176.555 90.2757C176.392 90.3585 176.258 90.4826 176.152 90.6479C176.046 90.8131 175.941 90.9706 175.837 91.1203L175.743 91.1137L175.372 91.7L175.279 91.6934L175.118 91.9648L174.21 92.843L174.009 93.0174L173.859 93.1482C173.725 93.2644 173.578 93.3483 173.417 93.3998C173.257 93.4514 173.084 93.455 172.899 93.4107L172.447 93.1436C172.362 93.0121 172.301 92.8744 172.264 92.7305C172.227 92.5867 172.229 92.4377 172.271 92.2837L172.692 91.6538C173.126 91.2761 173.546 90.8816 173.952 90.4704C174.357 90.0593 174.702 89.6125 174.987 89.1301L174.472 89.0941C173.559 89.1244 172.659 89.2028 171.772 89.3291C170.884 89.4554 169.997 89.566 169.112 89.6611L169.076 90.1766C169.111 91.0267 169.21 91.8499 169.374 92.6462C169.538 93.4425 169.863 94.1873 170.348 94.8805C171.042 95.2744 171.798 95.5784 172.614 95.7925C173.431 96.0065 174.26 96.1587 175.101 96.2489L176.376 96.1968L176.828 96.4639C176.929 96.5965 176.998 96.7347 177.035 96.8786C177.072 97.0224 177.068 97.187 177.024 97.3723L176.732 97.8463C176.31 98.0366 175.865 98.1232 175.395 98.106C174.926 98.0889 174.441 98.0628 173.941 98.0279ZM185.539 99.8278L185.086 99.5607C185.001 99.4292 184.94 99.2915 184.903 99.1476C184.866 99.0038 184.87 98.8392 184.914 98.654L185.181 98.2017C185.882 97.6071 186.516 96.9608 187.083 96.2626C187.649 95.5645 188.177 94.8558 188.667 94.1366C188.881 93.7748 189.071 93.4113 189.238 93.0463C189.405 92.6812 189.565 92.3 189.718 91.9026C189.849 91.8176 189.987 91.7566 190.131 91.7195C190.275 91.6825 190.424 91.6851 190.578 91.7272L191.03 91.9943C191.144 92.1592 191.21 92.3365 191.228 92.5262C191.246 92.7158 191.248 92.92 191.232 93.1387C190.892 93.9625 190.46 94.7564 189.936 95.5203C189.412 96.2842 188.873 97.0236 188.321 97.7384L187.917 98.134L187.823 98.1274L187.454 98.6903L187.1 99.0422L186.9 99.2166L186.549 99.5217L186.398 99.6525C186.267 99.7374 186.129 99.7984 185.985 99.8355C185.841 99.8725 185.693 99.87 185.539 99.8278ZM183.168 95.3531L182.716 95.0861C182.499 94.6 182.298 94.0993 182.114 93.5842C181.931 93.069 181.779 92.5404 181.66 91.9984L181.927 91.5462C182.059 91.4612 182.197 91.4002 182.34 91.3631C182.484 91.3261 182.633 91.3287 182.787 91.3708L183.239 91.6379L183.414 91.8384C183.602 92.2911 183.781 92.7589 183.951 93.2417C184.121 93.7245 184.236 94.2191 184.295 94.7256L184.028 95.1778C183.896 95.2628 183.758 95.3238 183.615 95.3608C183.471 95.3979 183.322 95.3953 183.168 95.3531ZM186.376 94.5885L185.924 94.3215C185.704 93.8666 185.517 93.4061 185.361 92.94C185.205 92.4739 185.098 91.9876 185.039 91.4812L185.306 91.029C185.438 90.944 185.575 90.883 185.719 90.8459C185.863 90.8089 186.012 90.8115 186.166 90.8536L186.618 91.1207C186.869 91.5778 187.072 92.0393 187.228 92.5054C187.383 92.9715 187.475 93.4567 187.502 93.9609L187.235 94.4132C187.104 94.4982 186.966 94.5592 186.822 94.5962C186.679 94.6333 186.53 94.6307 186.376 94.5885ZM201.834 101.438L201.382 101.171C201.236 101.004 201.162 100.826 201.16 100.638C201.157 100.449 201.147 100.26 201.129 100.07L201.317 97.3757L201.306 96.1976L201.356 96.154L201.729 90.8117L201.696 90.621L201.746 90.5774L201.996 86.9924L201.938 85.8111L202.205 85.3588C202.336 85.2738 202.474 85.2128 202.618 85.1758C202.762 85.1387 202.911 85.1413 203.065 85.1835L203.517 85.4505C203.689 85.6823 203.773 85.9394 203.769 86.2216C203.765 86.5039 203.785 86.7722 203.83 87.0265L203.573 90.7052L203.513 90.8894L203.55 91.0332L203.912 91.2469L204.659 92.0055L204.967 92.3096L205.276 92.6137L205.973 93.416L206.104 93.5664L207.022 94.5724L207.015 94.6661L207.109 94.6727C207.194 94.8042 207.255 94.9419 207.292 95.0858C207.329 95.2296 207.325 95.3942 207.281 95.5795L207.014 96.0317C206.883 96.1167 206.745 96.1777 206.601 96.2147C206.457 96.2518 206.308 96.2492 206.154 96.207L205.659 95.8898L204.61 94.7334L203.383 93.4232L203.176 96.3755L203.097 96.8409L203.145 97.5035L202.969 100.011L202.961 100.811L202.693 101.263C202.562 101.348 202.424 101.409 202.28 101.446C202.137 101.483 201.988 101.48 201.834 101.438ZM224.735 101.156C223.96 100.568 223.184 99.9447 222.406 99.286C221.628 98.6272 220.846 97.9643 220.061 97.2972L219.884 97.4732L218.948 98.067L218.943 98.1373C218.209 98.5412 217.489 98.9618 216.783 99.3991C216.078 99.8363 215.306 100.104 214.467 100.202L214.129 99.9905C214.058 99.8913 214.01 99.7859 213.986 99.6744C213.963 99.5629 213.971 99.4457 214.011 99.3229C214.363 98.547 214.754 97.7855 215.183 97.0385C215.612 96.2915 216.032 95.5557 216.444 94.831L215.941 94.2778C215.494 93.7128 215.019 93.1538 214.516 92.6006C214.014 92.0475 213.554 91.4973 213.137 90.9501L213.168 90.5049L213.357 90.1649C213.775 90.0215 214.218 89.9623 214.687 89.9872C215.156 90.0122 215.634 90.026 216.12 90.0286L218.145 90.3585C218.521 89.6941 218.891 89.0019 219.256 88.2817C219.62 87.5616 220.006 86.8704 220.413 86.2082C220.511 86.1523 220.616 86.1047 220.729 86.0655C220.842 86.0263 220.951 86.0261 221.059 86.065L221.554 86.3822C221.796 86.9642 221.957 87.5798 222.037 88.229C222.117 88.8782 222.254 89.5 222.448 90.0943L222.565 90.1025C222.866 90.0608 223.173 90.0469 223.486 90.061C223.799 90.075 224.12 90.0935 224.448 90.1164L225.36 90.2037L226.65 90.2704C226.832 90.3616 227.031 90.4266 227.248 90.4653C227.465 90.504 227.648 90.5835 227.796 90.7038C227.868 90.8029 227.919 90.9086 227.951 91.0207C227.982 91.1327 227.977 91.258 227.936 91.3964L227.723 91.7582L227.253 92.0785L227.128 92.1875L226.929 92.3384L226.859 92.3335L226.854 92.4038L226.437 92.6337L226.432 92.704L225.69 93.2172L225.62 93.2122L225.613 93.306L225.266 93.5642L224.922 93.7756L224.702 93.878L224.698 93.9483L224.4 94.163L224.273 94.2953L224.026 94.4664L223.676 94.7481L223.524 94.9023C223.883 95.8378 224.216 96.7951 224.524 97.7741C224.832 98.7532 225.158 99.71 225.501 100.644L225.287 101.006C225.204 101.063 225.115 101.104 225.019 101.129C224.923 101.153 224.829 101.162 224.735 101.156ZM216.361 98.0274C217 97.6483 217.64 97.2418 218.283 96.8079C218.925 96.3741 219.585 96.0239 220.263 95.7573C220.384 95.8286 220.51 95.8727 220.642 95.8898C220.774 95.9069 220.884 95.9656 220.971 96.0659L221.122 96.2648L221.298 96.4419C221.558 96.7584 221.837 97.0329 222.135 97.2657C222.433 97.4984 222.738 97.7277 223.052 97.9537L223.06 97.8366C222.911 97.2768 222.718 96.7256 222.481 96.1832C222.245 95.6408 222.1 95.0695 222.048 94.4694L222.365 93.9736L222.486 93.9349L222.489 93.888L222.536 93.8913L222.669 93.6652L223.388 93.1504L224.83 92.0504L225.474 91.6009L225.357 91.5927L224.277 91.5408L223.365 91.4535L221.784 91.5077L221.444 91.3191C221.254 90.8977 221.096 90.4707 220.969 90.038C220.842 89.6053 220.756 89.1519 220.711 88.6778L220.617 88.6713C220.347 89.1704 220.085 89.6622 219.832 90.1468C219.578 90.6314 219.294 91.106 218.979 91.5705C218.863 91.6566 218.736 91.7263 218.599 91.7795C218.462 91.8327 218.309 91.8376 218.139 91.7944L215.46 91.3951L215.405 91.509L216.588 92.769L216.849 93.0699L216.936 93.1701L217.037 93.4126L217.108 93.4176L217.61 93.9707L217.882 94.131C217.937 94.2291 217.989 94.3347 218.036 94.4478C218.083 94.561 218.086 94.679 218.047 94.8018C217.786 95.3801 217.489 95.9244 217.155 96.4348C216.822 96.9451 216.532 97.49 216.288 98.0694L216.335 98.0727L216.361 98.0274Z" fill="#222222"/>
</svg>
