<svg width="267" height="139" viewBox="0 0 267 139" fill="none" xmlns="http://www.w3.org/2000/svg">
<path d="M137.306 8.95295C119.696 10.1843 105.354 12.4157 100.231 13.4235C99.6188 13.5439 98.8018 13.6978 97.8558 13.8759C90.8324 15.1985 74.3848 18.2957 57.56 23.5779C36.5567 30.1718 21.8816 37.942 13.9423 46.6725C10.3363 50.6383 7.69812 55.2066 6.10096 60.2507C5.34987 62.6229 4.83739 65.0921 4.57784 67.5896C4.32488 70.0239 4.31029 72.5018 4.53429 74.9545C4.9833 79.8697 6.41033 84.7303 8.66128 89.0106C9.79764 91.1714 11.1443 93.1939 12.664 95.0221C14.2172 96.8905 15.9585 98.5644 17.8395 99.9973C21.1943 102.553 24.6633 105.197 28.8987 107.548C33.6574 110.191 38.6844 112.1 44.7187 113.557C51.7916 115.264 60.1268 116.293 70.2006 116.702C81.4168 117.158 94.5448 116.843 110.335 115.739C115.603 115.37 121.232 114.906 127.064 114.36C127.068 114.36 127.073 114.359 127.078 114.359C127.426 114.317 162.063 110.201 190.368 106.313C193.747 110.848 199.056 114.876 206.153 118.29C211.95 121.079 217.391 122.704 220.119 123.425C220.414 123.503 220.717 123.332 220.802 123.04C220.887 122.749 220.721 122.444 220.43 122.354C216.898 121.263 214.06 118.647 211.995 114.58C210.492 111.622 209.414 107.951 208.788 103.664C216.419 102.494 221.613 101.581 224.657 100.876C235.387 98.3898 244.591 93.077 251.275 85.5117C254.412 81.9607 256.914 78.0034 258.711 73.7496C260.493 69.5324 261.538 65.1302 261.817 60.6654C262.366 51.8937 259.936 43.3978 254.792 36.0964C252.06 32.2197 248.586 28.7224 244.465 25.7012C240.106 22.5061 235.004 19.8312 229.299 17.7511C216.401 13.0469 200.739 10.0163 182.749 8.7435C168.748 7.75298 153.459 7.82343 137.306 8.95295ZM110.257 114.626C94.5089 115.727 81.4216 116.042 70.2474 115.588C60.2482 115.182 51.9847 114.163 44.9844 112.473C39.0514 111.041 34.1141 109.167 29.4465 106.575C25.282 104.262 21.8457 101.644 18.5225 99.112C16.7085 97.7301 15.0285 96.115 13.5292 94.3113C12.0591 92.5429 10.7559 90.5854 9.65574 88.4933C7.47204 84.3409 6.0875 79.6241 5.65162 74.8527C5.20617 69.9762 5.7174 65.1757 7.17114 60.5847C8.71942 55.6949 11.2775 51.2656 14.7743 47.42C19.0043 42.7685 25.2948 38.3321 33.4711 34.2339C40.2887 30.8168 48.5067 27.5894 57.897 24.6413C74.6583 19.3791 91.0599 16.2905 98.0637 14.9717C99.0121 14.793 99.8312 14.6388 100.448 14.5176C105.547 13.5144 119.83 11.2929 137.384 10.0654C184.257 6.78775 213.029 13.0052 228.912 18.7982C234.517 20.8419 239.526 23.4665 243.798 26.5989C247.821 29.5483 251.211 32.9591 253.873 36.7366C258.87 43.8292 261.23 52.08 260.697 60.5972C260.426 64.9368 259.41 69.2169 257.677 73.3186C255.927 77.461 253.489 81.3159 250.432 84.7762C243.904 92.1654 234.904 97.3569 224.404 99.7894C221.358 100.495 215.863 101.456 208.071 102.645C207.768 102.691 207.559 102.97 207.599 103.271C208.23 107.916 209.371 111.89 210.993 115.083C212.201 117.463 213.667 119.381 215.374 120.824C208.244 118.41 196.978 113.526 191.079 105.389C190.958 105.222 190.753 105.134 190.547 105.163C162.321 109.045 127.61 113.172 126.952 113.251C121.132 113.796 115.514 114.258 110.257 114.626Z" fill="#222222"/>
<path d="M68.8657 60.9793L68.3681 60.8102C68.2576 60.6982 68.1615 60.5762 68.0798 60.4443C67.9981 60.3123 67.9595 60.1504 67.9642 59.9585C68.0175 59.6641 68.0284 59.3479 67.9966 59.0097C67.9649 58.6715 67.9271 58.3461 67.8831 58.0336L67.8169 57.8994L67.7777 57.2834L67.7247 57.243L67.3227 54.3831L67.1774 53.6863L67.1843 53.3985C67.0785 53.0946 66.9947 52.7797 66.9331 52.4536C66.8715 52.1276 66.7634 51.8639 66.6087 51.6625L65.7777 53.1659L65.5585 53.2923L65.06 54.1273L64.8606 54.3944L64.3957 54.7944L64.3357 55.0419L64.1363 55.309L63.7244 55.7494L63.4387 56.0764C63.328 56.1876 63.1996 56.2853 63.0535 56.3696C62.9074 56.4538 62.7393 56.4934 62.549 56.4883L62.0515 56.3192C61.941 56.2072 61.8526 56.0841 61.7864 55.95C61.7202 55.8159 61.6916 55.6685 61.7006 55.5079L61.867 55.0064L62.7241 54.0253L62.9633 53.7048C63.1847 53.4825 63.3962 53.2456 63.5978 52.9941C63.7993 52.7427 63.9755 52.4789 64.1262 52.2027C64.7687 51.1562 65.4124 50.1174 66.0572 49.0865C66.7019 48.0556 67.2273 46.9618 67.6333 45.8051C67.6999 45.6045 67.7498 45.3983 67.7832 45.1864C67.8166 44.9745 67.8821 44.7661 67.9796 44.5612C68.0904 44.45 68.2121 44.3612 68.3449 44.2947C68.4777 44.2282 68.6237 44.1997 68.783 44.2092L69.2805 44.3783C69.391 44.4903 69.4794 44.6133 69.5456 44.7475C69.6119 44.8816 69.6405 45.029 69.6315 45.1896C69.6047 45.4484 69.5629 45.7132 69.5062 45.9841C69.4495 46.2551 69.3746 46.5086 69.2815 46.7448L69.1553 46.8582L68.5565 48.3289L68.4636 48.3419C68.3792 48.6407 68.2684 48.9192 68.1309 49.1776C67.9935 49.4359 67.865 49.701 67.7452 49.9729L67.9907 50.034C68.2822 50.5349 68.5018 51.0857 68.6494 51.6865C68.797 52.2873 68.9302 52.8981 69.049 53.5189L69.0685 53.9943L69.1215 54.0346L69.5169 56.8477L69.817 58.6463C69.8344 58.9944 69.8429 59.3359 69.8425 59.6706C69.8422 60.0054 69.7844 60.3242 69.669 60.6273C69.5583 60.7385 69.4366 60.8273 69.3038 60.8938C69.171 60.9603 69.0249 60.9888 68.8657 60.9793ZM82.8094 57.0355C82.6501 57.026 82.482 57.0098 82.305 56.9868C82.1281 56.9639 81.9711 56.9142 81.834 56.8379C81.7235 56.7259 81.6352 56.6029 81.5689 56.4687C81.5027 56.3346 81.4741 56.1872 81.4831 56.0266L81.6495 55.5251C83.1453 55.1555 84.5329 54.5222 85.8124 53.6252C87.0919 52.7282 88.2278 51.6522 89.2201 50.3972L90.5359 48.6345L91.29 47.7635C91.2768 47.6697 91.2869 47.5727 91.3202 47.4724C91.3535 47.3721 91.3945 47.2707 91.4433 47.1682C91.5496 47.0258 91.6846 46.9192 91.8484 46.8483C92.0122 46.7775 92.1892 46.7447 92.3794 46.7498L92.877 46.9189C92.9875 47.0309 93.0758 47.1539 93.142 47.2881C93.2083 47.4222 93.2369 47.5696 93.2279 47.7302C93.1967 47.9577 93.1312 48.1661 93.0315 48.3555C92.9317 48.5448 92.8331 48.7419 92.7356 48.9469L92.6426 48.9599L92.6558 49.0537L92.1708 49.6478L91.8185 50.1754L91.6989 50.3357C91.2715 50.7782 90.8684 51.2253 90.4897 51.677C90.111 52.1286 89.7356 52.6037 89.3634 53.1023C88.4157 54.0004 87.4073 54.8035 86.3381 55.5116C85.269 56.2197 84.0927 56.7276 82.8094 57.0355ZM83.0705 48.1059L82.573 47.9368L80.9482 46.8264L80.0595 46.2341C79.949 46.1222 79.8606 45.9991 79.7944 45.865C79.7282 45.7309 79.6985 45.5757 79.7053 45.3994L79.8717 44.8979C79.9824 44.7867 80.1042 44.6979 80.237 44.6314C80.3698 44.565 80.5158 44.5365 80.675 44.546C80.9007 44.578 81.1185 44.6669 81.3285 44.8127C81.5385 44.9585 81.7485 45.1043 81.9585 45.2501L82.0247 45.3842L83.6297 46.3539C83.7402 46.4659 83.8374 46.5957 83.9213 46.7432C84.0053 46.8908 84.0449 47.0605 84.0403 47.2524L83.8739 47.7539C83.7632 47.8651 83.6414 47.9539 83.5086 48.0204C83.3758 48.0869 83.2298 48.1154 83.0705 48.1059ZM100.369 54.2091L99.8679 54.0165C99.7574 53.9045 99.669 53.7815 99.6028 53.6474C99.5366 53.5132 99.508 53.3659 99.517 53.2052C99.526 53.0446 99.5826 52.8852 99.6867 52.7272C99.7908 52.5691 99.8806 52.421 99.9559 52.2829C101.077 50.8186 102.127 49.3004 103.106 47.7284C104.085 46.1565 104.965 44.5507 105.746 42.9111L105.726 42.7704L104.797 42.901C103.907 43.0897 103.034 43.2841 102.178 43.4842C101.322 43.6842 100.491 43.9524 99.6852 44.2887L99.1877 44.1196C99.0772 44.0076 98.9888 43.8846 98.9226 43.7504C98.8563 43.6163 98.8277 43.4689 98.8367 43.3083L99.0032 42.8068C100.021 42.1856 101.122 41.756 102.304 41.5181C103.487 41.2802 104.68 41.0607 105.884 40.8597C106.132 40.8248 106.384 40.8213 106.64 40.849C106.897 40.8767 107.13 40.9634 107.34 41.1092C107.486 41.2481 107.604 41.4147 107.695 41.6092C107.785 41.8036 107.83 42.0125 107.83 42.2356C107.741 42.7262 107.604 43.2077 107.417 43.6802C107.231 44.1526 107.027 44.6115 106.805 45.0571L106.712 45.0701L106.539 45.5247L106.446 45.5378L106.207 46.193L106.114 46.2061L105.941 46.6607C105.804 46.8075 105.675 46.961 105.556 47.1212C105.436 47.2815 105.358 47.4597 105.323 47.656L105.674 47.7978C105.856 47.9636 106.062 48.0859 106.294 48.1649C106.527 48.2438 106.76 48.3305 106.994 48.4251L107.008 48.5188L107.459 48.6945L108.885 49.4025L109.303 49.6784C109.546 49.8355 109.801 49.967 110.069 50.0728C110.336 50.1786 110.607 50.3079 110.881 50.4606L111.448 50.9547L111.58 51.5576L111.414 52.0591C111.288 52.1725 111.158 52.2624 111.025 52.3289C110.893 52.3954 110.747 52.4239 110.587 52.4144L109.884 52.1307C109.062 51.6726 108.231 51.2155 107.394 50.7595C106.556 50.3036 105.701 49.8977 104.83 49.5421L104.352 49.1789L103.116 51.1695L102.285 52.3381L101.933 52.8657L101.773 53.0793L101.514 53.2592L101.528 53.3529L101.408 53.5132C101.275 53.6912 101.132 53.8508 100.978 53.992C100.824 54.1331 100.621 54.2055 100.369 54.2091ZM121.997 54.0381L121.499 53.869C121.389 53.757 121.3 53.634 121.234 53.4998C121.168 53.3657 121.137 53.2027 121.142 53.0108C121.705 51.848 122.2 50.6508 122.627 49.4194C123.054 48.188 123.401 46.948 123.668 45.6993C122.991 45.38 122.308 45.0697 121.618 44.7682C120.928 44.4667 120.214 44.2723 119.475 44.1849L119.375 44.4858C119.269 44.6282 119.142 44.7337 118.993 44.8024C118.845 44.871 118.676 44.9028 118.485 44.8977L117.988 44.7285C117.877 44.6166 117.789 44.4935 117.723 44.3594C117.657 44.2253 117.628 44.0779 117.637 43.9172C118.08 43.0262 118.442 42.1148 118.721 41.183C119.001 40.2513 119.264 39.3138 119.511 38.3708C119.621 38.2596 119.743 38.1708 119.876 38.1043C120.009 38.0378 120.155 38.0093 120.314 38.0188L120.812 38.188L121.037 38.4431C121.904 38.3213 122.77 38.2473 123.635 38.2214C124.5 38.1955 125.341 38.2765 126.157 38.4647C126.338 38.6304 126.454 38.8373 126.505 39.0851C126.555 39.333 126.598 39.582 126.633 39.832C126.357 42.134 125.941 44.3997 125.386 46.6292C124.83 48.8588 124.07 51.0374 123.106 53.1651L123.013 53.1781L122.88 53.5793L122.787 53.5924L122.8 53.6861C122.69 53.7973 122.568 53.8862 122.435 53.9526C122.302 54.0191 122.156 54.0476 121.997 54.0381ZM124.167 43.8601L124.154 43.7663C124.225 43.1507 124.329 42.5385 124.465 41.9298C124.6 41.321 124.688 40.711 124.729 40.0997C124.096 40.093 123.458 40.103 122.814 40.1298C122.17 40.1565 121.525 40.2312 120.879 40.3539L120.32 42.4406C121.001 42.568 121.653 42.7711 122.277 43.05C122.9 43.3289 123.53 43.599 124.167 43.8601ZM139.632 51.4162L139.135 51.247C139.024 51.1351 138.936 51.012 138.87 50.8779C138.804 50.7438 138.775 50.5964 138.784 50.4358C139.704 48.2187 140.528 46.1586 141.256 44.2554C141.983 42.3523 142.509 40.1985 142.835 37.7941L140.505 38.0737L138.859 38.4963L138.574 38.4886L137.243 42.1659C137.132 42.2771 137.011 42.3737 136.881 42.4558C136.75 42.5379 136.59 42.5764 136.399 42.5713L135.902 42.4021C135.791 42.2902 135.703 42.1671 135.637 42.033C135.571 41.8989 135.542 41.7515 135.551 41.5909C135.813 40.7572 136.098 39.9203 136.406 39.0801C136.715 38.2399 137.047 37.4043 137.404 36.5732C137.542 36.4264 137.682 36.303 137.826 36.2031C137.97 36.1032 138.152 36.0537 138.374 36.0545L138.871 36.2236L139.1 36.5022L139.425 36.4565L140.152 36.2348L142.196 35.9475C142.544 35.9465 142.893 35.9611 143.245 35.9914C143.597 36.0217 143.927 36.1266 144.237 36.3062C144.418 36.472 144.533 36.671 144.581 36.9032C144.63 37.1355 144.671 37.3766 144.706 37.6267C144.425 40.1205 143.914 42.3798 143.172 44.4045C142.43 46.4292 141.558 48.5957 140.555 50.904C140.449 51.0464 140.316 51.1687 140.157 51.2707C139.997 51.3728 139.823 51.4213 139.632 51.4162ZM146.41 36.4311L145.859 36.2216L144.738 35.4946L144.122 35.151C144.011 35.039 143.923 34.916 143.857 34.7819C143.79 34.6477 143.762 34.5004 143.771 34.3397L143.937 33.8382C144.048 33.727 144.17 33.6382 144.302 33.5717C144.435 33.5053 144.597 33.4746 144.787 33.4797L145.765 33.8681L146.442 34.299L146.86 34.5749L146.873 34.6687L147.025 34.7429C147.167 34.8505 147.256 34.9775 147.292 35.1238C147.329 35.27 147.358 35.4213 147.38 35.5776L147.213 36.0791C147.103 36.1903 146.981 36.2791 146.848 36.3456C146.715 36.4121 146.569 36.4406 146.41 36.4311ZM148.088 34.2111C147.822 34.1209 147.555 34.0151 147.285 33.8936C147.015 33.7721 146.746 33.6507 146.476 33.5292C146.365 33.4173 146.277 33.2942 146.211 33.1601C146.145 33.026 146.116 32.8786 146.125 32.7179L146.291 32.2165C146.402 32.1053 146.524 32.0164 146.657 31.95C146.789 31.8835 146.951 31.8528 147.141 31.858L148.548 32.4253C148.689 32.5329 148.811 32.6672 148.912 32.8283C149.014 32.9893 149.062 33.1657 149.058 33.3576L148.891 33.8591C148.78 33.9703 148.659 34.0591 148.526 34.1256C148.393 34.1921 148.247 34.2206 148.088 34.2111ZM160.756 47.8258L160.259 47.6567C160.148 47.5448 160.06 47.4217 159.994 47.2876C159.927 47.1535 159.899 47.0061 159.908 46.8454L160.267 46.03L160.426 45.8163L161.094 44.8379C161.458 44.2769 161.77 43.6911 162.032 43.0806C162.294 42.4701 162.555 41.8596 162.817 41.2491C162.906 40.7585 163.011 40.2735 163.134 39.7942C163.256 39.3148 163.328 38.8186 163.351 38.3054L162.501 38.3292L160.596 38.5969C159.702 38.7544 158.83 38.9488 157.978 39.1801C157.126 39.4113 156.293 39.6639 155.478 39.9377C155.35 39.9239 155.228 39.9011 155.113 39.8695C154.998 39.8378 154.89 39.7973 154.788 39.7478C154.678 39.6358 154.589 39.5128 154.523 39.3787C154.457 39.2445 154.428 39.0972 154.437 38.9365L154.604 38.435C155.463 38.0275 156.38 37.6994 157.356 37.4507C158.331 37.202 159.311 36.9767 160.293 36.7749L162.244 36.5006C162.651 36.4753 163.061 36.4656 163.472 36.4715C163.883 36.4774 164.275 36.5659 164.646 36.7368C164.898 36.9564 165.048 37.2381 165.097 37.5819C165.145 37.9257 165.193 38.2695 165.242 38.6134C165.068 39.4027 164.902 40.1831 164.742 40.9547C164.582 41.7262 164.333 42.4863 163.996 43.2349C163.801 43.6448 163.593 44.0725 163.371 44.518C163.149 44.9635 162.929 45.4168 162.709 45.878L162.55 46.0916L162.158 46.6727L161.998 46.8863L161.879 47.0466L161.759 47.2068C161.626 47.3849 161.481 47.5327 161.324 47.6505C161.167 47.7682 160.977 47.8266 160.756 47.8258ZM156.532 34.626C156.404 34.6121 156.282 34.5894 156.167 34.5578C156.052 34.5261 155.944 34.4856 155.842 34.4361C155.732 34.3241 155.643 34.1972 155.575 34.0552C155.508 33.9133 155.479 33.762 155.488 33.6014L155.654 33.0999C156.15 32.8071 156.716 32.6161 157.351 32.5268C157.986 32.4376 158.593 32.3203 159.173 32.1751L161.589 31.8356L162.086 32.0047C162.197 32.1167 162.285 32.2397 162.351 32.3738C162.418 32.508 162.446 32.6553 162.437 32.816L162.274 33.3409C162.194 33.4478 162.095 33.5255 161.975 33.5742C161.856 33.6228 161.736 33.6715 161.617 33.7202L159.526 34.014L156.532 34.626ZM174.014 42.8788C173.886 42.8649 173.764 42.8422 173.649 42.8105C173.534 42.7789 173.426 42.7383 173.324 42.6889C173.198 42.5791 173.101 42.4493 173.033 42.2996C172.964 42.1498 172.917 41.9812 172.89 41.7936C173.271 39.8915 173.749 38.0154 174.326 36.1653C174.903 34.3152 175.57 32.4843 176.326 30.6728C176.437 30.5616 176.558 30.4728 176.691 30.4063C176.824 30.3398 176.97 30.3113 177.129 30.3208L177.627 30.49C177.737 30.6019 177.826 30.7289 177.894 30.8708C177.961 31.0128 177.992 31.1797 177.988 31.3716C177.402 32.8244 176.864 34.3344 176.374 35.9014C175.883 37.4684 175.447 39.0278 175.065 40.5796L175.158 40.5665C176.331 40.1467 177.488 39.729 178.63 39.3136C179.772 38.8981 180.905 38.4201 182.029 37.8796L182.009 37.739C181.74 37.3943 181.448 37.0608 181.134 36.7384C180.821 36.4159 180.631 36.0203 180.565 35.5514L180.731 35.0499C180.842 34.9387 180.964 34.8499 181.097 34.7834C181.229 34.717 181.375 34.6885 181.535 34.698L182.032 34.8671L183.649 36.9347L183.742 36.9217L184.853 38.2478L184.946 38.2347L186.152 39.4039C186.263 39.5158 186.352 39.6467 186.421 39.7964C186.489 39.9462 186.521 40.117 186.516 40.3089L186.35 40.8104C186.239 40.9216 186.117 41.0104 185.985 41.0769C185.852 41.1434 185.706 41.1719 185.547 41.1624L185.026 40.9965L183.368 39.317L183.183 39.3431C181.704 40.0609 180.189 40.6881 178.638 41.2249C177.087 41.7616 175.545 42.3129 174.014 42.8788ZM199.094 41.4816C198.683 41.4756 198.283 41.4363 197.893 41.3635C197.504 41.2907 197.131 41.112 196.776 40.8273C196.298 40.3525 195.887 39.8445 195.543 39.3033C195.198 38.762 194.918 38.1719 194.702 37.5329C194.419 37.5409 194.141 37.5321 193.869 37.5066C193.597 37.481 193.341 37.4054 193.103 37.2796C192.992 37.1676 192.904 37.0446 192.838 36.9104C192.771 36.7763 192.743 36.6289 192.752 36.4683L192.918 35.9668C193.029 35.8556 193.151 35.7668 193.283 35.7003C193.416 35.6338 193.578 35.6032 193.768 35.6083L194.252 35.6837L194.147 34.9335L193.896 33.4866L193.871 32.6296L193.778 32.6427L193.001 32.8474L192.503 32.6783C192.393 32.5663 192.305 32.4433 192.238 32.3092C192.172 32.175 192.143 32.0277 192.152 31.867L192.319 31.3655C192.514 31.1788 192.748 31.0502 193.023 30.9797C193.297 30.9093 193.571 30.8389 193.846 30.7684C193.824 30.1658 193.891 29.5708 194.045 28.9834C194.199 28.3959 194.396 27.8304 194.636 27.2867C194.746 27.1755 194.868 27.0867 195.001 27.0202C195.134 26.9538 195.28 26.9253 195.439 26.9348L195.937 27.1039C196.047 27.2159 196.136 27.3389 196.202 27.473C196.268 27.6072 196.299 27.7702 196.294 27.9621C196.161 28.3633 196.035 28.7595 195.916 29.1507C195.798 29.5419 195.72 29.9472 195.685 30.3666C196.061 30.3456 196.438 30.3324 196.816 30.3271C197.194 30.3217 197.552 30.3911 197.888 30.5351C197.998 30.647 198.086 30.7701 198.153 30.9042C198.219 31.0383 198.25 31.2013 198.245 31.3932L198.079 31.8947C197.968 32.0059 197.846 32.0947 197.713 32.1612C197.581 32.2277 197.435 32.2562 197.275 32.2467C197.014 32.1878 196.749 32.1533 196.479 32.1435C196.209 32.1336 195.937 32.1638 195.663 32.2343L195.906 34.6385L196.045 35.2883L196.37 35.2426C196.693 35.0697 197.023 34.8879 197.359 34.6972C197.696 34.5065 198.065 34.3828 198.468 34.3262L198.965 34.4954C199.076 34.6073 199.164 34.7304 199.23 34.8645C199.297 34.9986 199.325 35.146 199.316 35.3066L199.15 35.8081C198.747 36.0879 198.332 36.3375 197.905 36.5569C197.478 36.7763 197.021 36.952 196.534 37.0842L196.56 37.2717C196.741 37.6607 196.952 38.0374 197.193 38.402C197.434 38.7666 197.702 39.1034 197.998 39.4124C198.197 39.4801 198.403 39.5388 198.615 39.5887C198.827 39.6385 199.055 39.6304 199.299 39.5643C199.688 39.4139 200.043 39.1887 200.365 38.8886C200.686 38.5885 200.979 38.2604 201.245 37.9043C201.524 37.4188 201.779 36.9288 202.01 36.4342C202.24 35.9396 202.316 35.411 202.237 34.8484L202.131 34.4329L202.297 33.9315C202.408 33.8203 202.538 33.7304 202.686 33.6617C202.834 33.593 203.003 33.5613 203.194 33.5664L203.714 33.7323C203.86 33.8712 203.955 34.0411 203.999 34.2421C204.043 34.4431 204.081 34.653 204.112 34.8718C204.168 35.7244 204.017 36.5345 203.659 37.302C203.301 38.0694 202.872 38.8071 202.371 39.5149C201.937 40.0222 201.453 40.4528 200.918 40.8069C200.384 41.1609 199.776 41.3858 199.094 41.4816ZM60.1765 92.2816L59.6623 92.1627C59.5363 92.0529 59.4369 91.9354 59.364 91.8101C59.2912 91.6849 59.2493 91.5274 59.2384 91.3377C59.3871 90.8228 59.5175 90.4578 59.6294 90.2429C59.7413 90.0279 59.812 89.6315 59.8413 89.0537C58.6889 88.9447 57.5292 88.9244 56.3622 88.9928C55.1953 89.0612 54.0278 89.0978 52.8598 89.1026C52.7493 88.9906 52.6532 88.8686 52.5715 88.7367C52.4897 88.6047 52.4379 88.4606 52.4159 88.3043L52.7211 85.082C52.3694 85.0517 52.0315 85.0634 51.7074 85.1169C51.3833 85.1704 51.0631 85.1397 50.7469 85.0248C50.6364 84.9128 50.5441 84.7903 50.4702 84.6573C50.3962 84.5242 50.356 84.3785 50.3495 84.22L50.4927 83.7218C50.5857 83.5972 50.7058 83.4966 50.853 83.4202C51.0002 83.3437 51.1678 83.3002 51.3558 83.2897L52.9288 83.1882C52.9824 82.6707 53.0189 82.1436 53.0382 81.607C53.0575 81.0704 53.1183 80.5479 53.2206 80.0394L53.6091 79.7697L53.6426 79.502C53.7533 79.3909 53.8706 79.2987 53.9946 79.2255C54.1185 79.1523 54.259 79.1126 54.4161 79.1065C55.655 79.0439 56.8972 78.9211 58.1428 78.7381C59.3884 78.5551 60.6217 78.5371 61.8426 78.6843C61.9686 78.7941 62.0686 78.9155 62.1426 79.0485C62.2165 79.1815 62.249 79.3284 62.24 79.489C62.2682 80.0269 62.2738 80.572 62.2566 81.1242C62.2395 81.6765 62.2295 82.2237 62.2268 82.7659C62.6094 82.7919 62.9927 82.7938 63.3765 82.7717C63.7603 82.7496 64.1269 82.8017 64.4763 82.9279C64.6023 83.0377 64.7095 83.1541 64.7978 83.2772C64.8862 83.4002 64.9358 83.5566 64.9467 83.7463L64.8068 84.268C64.7116 84.377 64.5948 84.4731 64.4564 84.5563C64.3181 84.6395 64.1693 84.6763 64.01 84.6668L62.1353 84.6434L61.9102 87.4242C62.1336 87.4406 62.3454 87.4587 62.5456 87.4784C62.7457 87.498 62.9464 87.5495 63.1476 87.6328C63.2736 87.7426 63.3731 87.8601 63.4459 87.9853C63.5188 88.1105 63.5585 88.2524 63.565 88.4108L63.4251 88.9325C63.3187 89.0749 63.2036 89.1828 63.0797 89.256C62.9557 89.3292 62.7997 89.371 62.6117 89.3815L61.6694 89.251C61.6445 89.8601 61.5777 90.3117 61.469 90.6059C61.3603 90.9001 61.1873 91.3268 60.95 91.8861C60.8393 91.9972 60.7225 92.0933 60.5997 92.1744C60.4768 92.2554 60.3358 92.2911 60.1765 92.2816ZM60.0755 87.1801L60.0557 87.0394L60.3037 84.5901C59.983 84.5555 59.6467 84.5509 59.295 84.5765C58.9432 84.602 58.597 84.6387 58.2563 84.6866L57.7926 87.1184L60.0755 87.1801ZM55.8315 87.155L55.8183 87.0612C55.9227 86.68 56.0232 86.2993 56.1198 85.9192C56.2164 85.539 56.2682 85.1493 56.2753 84.7498L54.6791 84.8546C54.6101 85.2628 54.5516 85.6614 54.5037 86.0507C54.4557 86.4399 54.4293 86.842 54.4245 87.2571L55.8315 87.155ZM60.4383 82.6826L60.4019 82.5921L60.4241 80.3897L58.4529 80.5233C58.4945 80.9318 58.5052 81.3168 58.4849 81.6782C58.4647 82.0396 58.4499 82.4122 58.4407 82.796L60.4383 82.6826ZM56.5559 82.8697C56.554 82.5193 56.5721 82.1702 56.61 81.8222C56.648 81.4742 56.6572 81.1183 56.6376 80.7545L54.9551 80.9192C54.9282 81.2896 54.9019 81.6359 54.8761 81.9583C54.8504 82.2806 54.8318 82.6259 54.8203 82.9941L56.516 82.9231L56.5559 82.8697ZM50.9733 80.9051L50.4957 80.7093C50.3985 80.5795 50.3207 80.447 50.2622 80.3118C50.2037 80.1766 50.1768 80.013 50.1814 79.8211L50.5603 79.1463C51.1073 78.5435 51.5847 77.8947 51.9924 77.2C52.4001 76.5052 52.7537 75.818 53.053 75.1385C53.1218 74.9535 53.1651 74.7562 53.183 74.5465C53.2009 74.3368 53.2653 74.1205 53.3761 73.8978C53.4912 73.8178 53.6196 73.748 53.7612 73.6883C53.9029 73.6285 54.0544 73.6112 54.2159 73.6363L54.667 73.812C54.8172 73.9821 54.9055 74.1609 54.9319 74.3485C54.9582 74.536 54.9868 74.7392 55.0175 74.958C54.9244 75.1942 54.8334 75.446 54.7447 75.7135C54.6559 75.981 54.5749 76.2473 54.5017 76.5126L55.9518 76.3805L55.995 76.3506L59.0381 76.0902L61.2748 75.8237C61.4672 75.8445 61.663 75.8608 61.8621 75.8726C62.0611 75.8845 62.2491 75.9577 62.4259 76.0922C62.5275 76.2532 62.6037 76.4019 62.6544 76.5382C62.7052 76.6745 62.7338 76.8219 62.7403 76.9804L62.5241 77.4649C62.3979 77.5783 62.2606 77.6693 62.1124 77.738C61.9641 77.8066 61.8103 77.8362 61.651 77.8267C61.4564 77.7903 61.2418 77.7806 61.0073 77.7976C60.7728 77.8146 60.545 77.8228 60.3238 77.822L57.4399 78.2034L56.2419 78.2761L53.8161 78.5453L53.3582 78.4902C53.1942 78.7841 53.0136 79.0725 52.8165 79.3552C52.6193 79.6379 52.3978 79.916 52.152 80.1896L51.9129 80.3428L51.8065 80.5968C51.6803 80.7101 51.5497 80.7922 51.4147 80.8431C51.2797 80.8939 51.1326 80.9146 50.9733 80.9051ZM77.499 87.4327L77.0015 87.2635C76.7297 86.9033 76.5438 86.5071 76.4435 86.0749C76.3433 85.6428 76.2448 85.1945 76.1479 84.73L75.8053 82.2919L75.5018 80.47C75.5006 79.4502 75.4071 78.4194 75.2212 77.3778C75.0354 76.3361 75.0712 75.327 75.3288 74.3505C76.0946 73.9561 76.9089 73.6822 77.7718 73.5291C78.6347 73.3759 79.5109 73.205 80.4003 73.0162L84.4425 72.4482C84.6947 72.4446 84.9346 72.4666 85.1624 72.5143C85.3902 72.562 85.6213 72.6331 85.8557 72.7276L86.174 72.9698C86.3597 73.1668 86.5027 73.3977 86.603 73.6625C86.7034 73.9273 86.7966 74.1971 86.8826 74.4719L87.2384 77.0037L87.4261 78.5072L87.9532 82.2581L88.3198 84.0234C88.3195 84.2465 88.337 84.4831 88.3721 84.7332C88.4073 84.9832 88.3539 85.2218 88.2121 85.4489L87.993 85.5753L88.0062 85.6691C87.7582 85.9271 87.424 86.0776 87.0036 86.1208C86.5833 86.1639 86.1718 86.2138 85.7691 86.2704L83.6187 86.477L82.3244 86.7067L82.2714 86.6663L78.7868 87.1561L77.499 87.4327ZM86.4381 84.2878L86.4183 84.1472L86.4318 83.9062L86.1676 82.7003L85.8447 80.4029L85.5659 80.4421L83.7141 80.7501C83.4265 80.7268 83.1356 80.7358 82.8414 80.7772C82.5471 80.8185 82.2451 80.861 81.9354 80.9045L81.6233 81.044L78.0923 81.5402L77.5216 81.5248L77.5677 81.853L77.6207 81.8934L77.97 84.3783L78.1614 85.4032L78.4402 85.364L78.48 85.3106L82.1505 84.7948L83.2257 84.6915L84.7523 84.4291L86.4381 84.2878ZM85.5943 78.6213L85.39 77.1678L85.0672 74.8704L84.9482 74.3612L84.5169 74.3262L80.7535 74.8551C80.1075 74.9778 79.4614 75.1005 78.8153 75.2232C78.1693 75.3458 77.5254 75.4841 76.8837 75.6381L77.311 79.6898L78.1141 79.6725L81.134 79.2481L81.3532 79.1217L83.5368 78.8148C83.8598 78.865 84.1982 78.8573 84.5522 78.7916C84.9062 78.7259 85.2403 78.6869 85.5544 78.6747L85.5943 78.6213ZM114.062 84.6369C113.294 84.4578 112.541 84.1852 111.803 83.8188C111.064 83.4525 110.337 83.0806 109.621 82.7031L109.222 83.2373L108.664 83.8177L108.046 84.4783C107.763 84.7094 107.486 84.9315 107.216 85.1448C106.946 85.3581 106.607 85.4774 106.2 85.5027L105.702 85.3336C105.592 85.2216 105.504 85.0985 105.437 84.9644C105.371 84.8303 105.343 84.6829 105.352 84.5223L105.518 84.0208C106 83.7458 106.444 83.4165 106.848 83.033C107.252 82.6495 107.649 82.2152 108.039 81.7302L108.065 81.583L107.654 81.3539C107.438 81.1612 107.219 80.9529 106.998 80.729C106.777 80.505 106.668 80.2335 106.67 79.9144L106.837 79.4129C106.949 79.3174 107.072 79.2364 107.205 79.1699C107.338 79.1034 107.484 79.0749 107.643 79.0844L108.141 79.2535L108.565 79.5764C108.645 79.6927 108.734 79.7957 108.834 79.8853C108.933 79.9749 109.049 80.0423 109.182 80.0874L109.321 80.0678C109.614 79.6761 109.882 79.2837 110.127 78.8907C110.372 78.4977 110.566 78.0839 110.711 77.6493L110.01 77.7238C109.411 77.8399 108.823 77.9583 108.248 78.079C107.673 78.1997 107.11 78.3227 106.559 78.4479C106.4 78.4384 106.248 78.4279 106.104 78.4162C105.96 78.4045 105.826 78.3438 105.7 78.234C105.589 78.122 105.501 77.999 105.435 77.8649C105.368 77.7307 105.34 77.5834 105.349 77.4227L105.515 76.9212C105.626 76.81 105.748 76.7212 105.88 76.6547C106.013 76.5883 106.175 76.5576 106.365 76.5627L106.514 76.6135C107.291 76.4087 108.084 76.2335 108.892 76.088C109.701 75.9425 110.508 75.8131 111.313 75.7C111.534 75.7007 111.767 75.696 112.01 75.6857C112.253 75.6754 112.456 75.7386 112.617 75.8753C112.728 75.9873 112.816 76.1103 112.882 76.2444C112.948 76.3786 112.979 76.5416 112.975 76.7335C112.841 77.1347 112.721 77.542 112.613 77.9556C112.506 78.3692 112.343 78.7585 112.126 79.1237L112.033 79.1368L111.77 79.7953L111.677 79.8083L111.578 80.1092L110.949 81.0342L110.969 81.1749L111.069 81.2087C111.409 81.4955 111.77 81.7278 112.15 81.9054C112.53 82.083 112.908 82.2729 113.284 82.4751C113.514 82.5384 113.74 82.6023 113.962 82.6666C114.185 82.731 114.414 82.8183 114.651 82.9285C114.792 83.0361 114.897 83.1648 114.966 83.3145C115.034 83.4643 115.066 83.6351 115.061 83.827L114.892 84.3051C114.763 84.4028 114.633 84.4849 114.5 84.5514C114.367 84.6179 114.221 84.6464 114.062 84.6369ZM101.716 86.1328L101.219 85.9637C101.108 85.8517 101.029 85.7354 100.98 85.6147C100.932 85.494 100.881 85.3577 100.828 85.2058L100.809 84.061L100.042 78.5989L99.9488 78.6119C99.5217 78.8313 99.1166 79.0954 98.7336 79.4043C98.3505 79.7131 97.9333 79.947 97.4819 80.1061L96.9843 79.937C96.8738 79.825 96.7855 79.702 96.7193 79.5678C96.653 79.4337 96.6244 79.2863 96.6334 79.1257L96.7998 78.6242C97.2427 78.1795 97.7253 77.7929 98.2477 77.4645C98.7701 77.1361 99.3047 76.8378 99.8513 76.5697L99.6672 74.9222L99.5812 74.6475L99.5683 74.219L99.4754 74.232L97.2948 74.7297C97.1356 74.7202 96.9697 74.7196 96.7971 74.728C96.6246 74.7363 96.4697 74.7023 96.3327 74.6259C96.2222 74.5139 96.1338 74.3909 96.0676 74.2568C96.0014 74.1226 95.9727 73.9752 95.9818 73.8146L96.1482 73.3131C96.2589 73.2019 96.3806 73.1131 96.5134 73.0466C96.6462 72.9802 96.8034 72.9182 96.9848 72.8609L97.3631 72.8555L99.3047 72.3436L99.1795 71.4527L98.8062 69.8079C98.8153 69.6473 98.8254 69.4945 98.8366 69.3494C98.8478 69.2044 98.9065 69.0607 99.0129 68.9183C99.1236 68.8071 99.2453 68.7183 99.3781 68.6518C99.5109 68.5853 99.657 68.5568 99.8162 68.5663L100.314 68.7354C100.57 69.2094 100.738 69.7316 100.818 70.3021C100.898 70.8725 100.991 71.4212 101.097 71.9483C101.469 71.896 101.84 71.8438 102.212 71.7915C102.584 71.7393 102.938 71.7852 103.274 71.9292C103.384 72.0412 103.473 72.1642 103.539 72.2983C103.605 72.4325 103.634 72.5798 103.625 72.7405L103.458 73.242C103.347 73.3532 103.218 73.4431 103.07 73.5117C102.921 73.5804 102.754 73.6278 102.569 73.6539L101.54 73.7506L101.361 73.8237L101.598 75.5115L101.691 75.4985C101.832 75.3829 101.993 75.2887 102.172 75.2156C102.351 75.1426 102.549 75.0909 102.766 75.0604L103.264 75.2296C103.374 75.3415 103.463 75.4646 103.529 75.5987C103.595 75.7328 103.624 75.8802 103.615 76.0408L103.408 76.5958C103.152 76.7912 102.884 76.9643 102.605 77.1151C102.326 77.2658 102.04 77.4255 101.748 77.594L102.648 83.9939C102.661 84.3108 102.673 84.6199 102.683 84.9212C102.694 85.2225 102.64 85.509 102.52 85.7808C102.409 85.892 102.287 85.9809 102.155 86.0473C102.022 86.1138 101.876 86.1423 101.716 86.1328ZM111.851 74.9789L111.374 74.783C110.791 73.8928 110.337 72.9925 110.011 72.082C109.686 71.1715 109.466 70.1425 109.352 68.9951L108.931 69.0304C108.57 69.1608 108.183 69.247 107.771 69.2891C107.358 69.3311 106.964 69.4184 106.588 69.551L106.713 70.6092L106.851 71.5938C106.802 72.2541 106.739 72.9044 106.663 73.5446C106.587 74.1847 106.452 74.8213 106.257 75.4544C106.144 75.55 106.021 75.631 105.888 75.6974C105.755 75.7639 105.608 75.7846 105.447 75.7595L104.949 75.5903C104.836 75.4628 104.75 75.3235 104.689 75.1727C104.628 75.0218 104.608 74.8494 104.628 74.6553C104.717 74.0531 104.81 73.4465 104.905 72.8354C105.001 72.2243 105.018 71.5884 104.957 70.9276C104.911 70.5994 104.847 70.2578 104.766 69.9027C104.684 69.5476 104.598 69.217 104.508 68.911L104.701 68.4297L104.9 68.1626C105.695 67.8597 106.512 67.6333 107.351 67.4834C108.191 67.3336 109.044 67.1977 109.912 67.0758L110.658 67.3295C111.028 68.5046 111.349 69.6588 111.618 70.7923C111.888 71.9257 112.299 73.0513 112.851 74.169L112.658 74.6503C112.547 74.7615 112.425 74.8464 112.291 74.9051C112.157 74.9638 112.011 74.9883 111.851 74.9789ZM138.4 81.5031L137.873 81.2904C137.763 81.1784 137.667 81.0604 137.586 80.9362C137.506 80.8121 137.476 80.653 137.496 80.4589C137.567 80.0664 137.592 79.6526 137.57 79.2174C137.548 78.7821 137.547 78.3559 137.568 77.9387L137.341 75.9864C137.2 75.6557 137.085 75.3211 136.998 74.9827C136.911 74.6443 136.776 74.3287 136.593 74.0357C136.423 73.948 136.239 73.934 136.042 73.9935C135.845 74.0531 135.663 74.0469 135.495 73.9749L132.744 74.2898C132.073 74.4637 131.388 74.5918 130.689 74.6741C129.99 74.7565 129.325 74.9136 128.694 75.1457L128.812 76.6591L128.925 77.1214L128.881 77.3188L128.994 77.7811L129.118 79.6761L129.507 81.7728L129.341 82.2743C129.228 82.3699 129.105 82.447 128.971 82.5057C128.837 82.5643 128.69 82.5889 128.531 82.5794L127.98 82.3699C127.7 81.8356 127.512 81.2285 127.417 80.5487C127.321 79.8689 127.235 79.1997 127.158 78.5411L127.149 77.8013L126.954 76.5856L126.817 74.9315L126.75 74.7974C126.764 74.668 126.79 74.5448 126.829 74.4278C126.868 74.3108 126.912 74.2089 126.963 74.122L127.528 73.7558L127.561 73.6555C128.486 73.2705 129.467 73.0012 130.504 72.8475C131.54 72.6939 132.579 72.504 133.622 72.2779C134.31 72.229 135.004 72.1712 135.706 72.1045C136.407 72.0378 137.064 72.1606 137.676 72.473L137.689 72.5668L137.782 72.5537C138.218 73.0663 138.538 73.6627 138.744 74.3429C138.951 75.0231 139.125 75.7038 139.268 76.3849C139.369 77.2154 139.43 78.0396 139.45 78.8575C139.47 79.6754 139.397 80.4467 139.23 81.1714C139.104 81.2847 138.975 81.3746 138.842 81.4411C138.709 81.5076 138.562 81.5283 138.4 81.5031ZM124.808 82.8875L124.31 82.7184C124.189 82.6399 124.102 82.5325 124.052 82.3962C124.001 82.2599 123.951 82.1314 123.903 82.0107L123.896 81.6291L123.692 80.8451L123.405 78.8056L123.445 78.7522L123.181 76.8768L123.069 76.4145L122.976 76.4275L122.497 77.4032L122.404 77.4163L122.271 77.8175L121.906 78.2513L121.746 78.465C121.604 78.5805 121.462 78.6882 121.318 78.7882C121.174 78.8881 121.007 78.9354 120.817 78.9303L120.319 78.7612C120.209 78.6492 120.12 78.5262 120.054 78.392C119.988 78.2579 119.957 78.0949 119.962 77.903L120.128 77.4015C120.243 77.3216 120.339 77.2204 120.417 77.0979C120.494 76.9755 120.555 76.8474 120.6 76.7137C120.821 76.4913 121.007 76.242 121.158 75.9658C121.309 75.6897 121.444 75.4157 121.564 75.1439C121.692 74.7114 121.815 74.2878 121.93 73.8732C122.045 73.4585 122.152 73.0372 122.25 72.6091L121.925 72.6548C121.628 72.7921 121.348 72.935 121.085 73.0836C120.821 73.2322 120.517 73.3148 120.172 73.3314L119.674 73.1623C119.564 73.0503 119.475 72.9273 119.409 72.7931C119.343 72.659 119.314 72.5116 119.323 72.351L119.49 71.8495C119.924 71.5654 120.387 71.3249 120.881 71.1281C121.374 70.9312 121.86 70.7354 122.338 70.5408L122.226 69.7437L122.153 69.5627L122.173 69.3686L122.034 69.3882C121.95 69.4638 121.855 69.517 121.748 69.5479C121.642 69.5788 121.527 69.6029 121.403 69.6203L120.906 69.4512C120.795 69.3392 120.707 69.2162 120.641 69.082C120.574 68.9479 120.546 68.8005 120.555 68.6399L120.718 68.1149L121.708 67.0674L122.86 65.997C122.971 65.8859 123.101 65.7959 123.249 65.7273C123.397 65.6586 123.566 65.6269 123.757 65.632L124.254 65.8011C124.365 65.9131 124.453 66.0362 124.519 66.1703C124.585 66.3044 124.616 66.4674 124.612 66.6593L124.445 67.1608L123.927 67.5205L123.94 67.6142L123.814 67.7276L124.14 70.0484L124.605 69.9831L125.707 69.7326L126.204 69.9018C126.315 70.0137 126.403 70.1368 126.47 70.2709C126.536 70.405 126.567 70.568 126.562 70.7599L126.396 71.2614C126.174 71.4838 125.901 71.6178 125.576 71.6635C125.25 71.7093 124.935 71.7695 124.63 71.8443L124.643 71.9381L124.795 72.0122L125.279 72.4223L125.293 72.5161L126.002 72.8466L126.467 73.1161C126.577 73.228 126.673 73.35 126.755 73.4819C126.837 73.6139 126.875 73.7758 126.871 73.9677L126.704 74.4692C126.594 74.5804 126.472 74.6692 126.339 74.7357C126.206 74.8022 126.06 74.8307 125.901 74.8212C125.706 74.7848 125.514 74.7082 125.324 74.5915C125.134 74.4748 124.941 74.3982 124.747 74.3618L124.93 76.3441C125.014 76.4917 125.069 76.6592 125.096 76.8468C125.122 77.0343 125.149 77.2218 125.175 77.4094L125.247 78.2598L125.353 78.6753C125.313 78.8403 125.306 79.0165 125.332 79.2041C125.359 79.3916 125.385 79.5791 125.411 79.7667L125.521 80.2056L125.5 80.3996C125.593 80.6097 125.658 80.8476 125.695 81.1133C125.733 81.379 125.769 81.6368 125.804 81.8869L125.611 82.5356C125.5 82.6468 125.379 82.7356 125.246 82.8021C125.113 82.8685 124.967 82.897 124.808 82.8875ZM133.789 81.0516C133.399 80.9788 132.975 80.9907 132.514 81.0873C132.054 81.1838 131.641 81.1623 131.273 81.0226L130.955 80.7805C130.84 80.6373 130.749 80.4908 130.68 80.341C130.612 80.1913 130.549 80.0248 130.492 79.8416L130.179 77.6146L129.941 76.5962L130.107 76.0947L130.2 76.0816C130.156 75.9922 130.159 75.9041 130.21 75.8172C130.261 75.7304 130.298 75.6535 130.32 75.5866C130.541 75.3643 130.825 75.2448 131.17 75.2281C131.515 75.2115 131.838 75.1502 132.139 75.0441C132.546 75.0188 132.951 74.9778 133.353 74.9212C133.756 74.8647 134.128 74.924 134.468 75.0993L135.058 75.5901C135.213 76.0146 135.338 76.4591 135.435 76.9236C135.532 77.3881 135.637 77.8515 135.749 78.3138L135.702 78.8224L135.808 79.2379L135.808 79.5726L135.913 79.988L135.747 80.4895C135.636 80.6007 135.514 80.6896 135.382 80.756C135.249 80.8225 135.103 80.851 134.944 80.8415L134.798 80.8142C134.651 80.8985 134.493 80.9526 134.323 80.9765C134.153 81.0005 133.974 81.0255 133.789 81.0516ZM133.903 79.1709L133.775 78.2566L133.736 77.6406L133.517 76.7628L131.891 76.9914L131.924 77.2258L131.977 77.2661L132.257 79.2588C132.536 79.2196 132.816 79.1882 133.097 79.1647C133.378 79.1411 133.647 79.1432 133.903 79.1709ZM129.142 72.5967C129.013 72.5828 128.892 72.5601 128.777 72.5285C128.662 72.4968 128.553 72.4563 128.452 72.4068C128.151 71.8434 127.946 71.2268 127.836 70.5569C127.726 69.8871 127.61 69.2261 127.487 68.5741C127.5 68.4447 127.522 68.3221 127.553 68.2061C127.584 68.0902 127.624 67.981 127.673 67.8785C127.784 67.7674 127.905 67.6746 128.037 67.6003C128.168 67.526 128.315 67.5015 128.476 67.5266L129.134 67.482L131.38 66.9511C131.823 66.9527 132.265 66.9503 132.706 66.9441C133.147 66.9378 133.569 67.018 133.972 67.1846L133.985 67.2783L134.078 67.2653C134.275 67.4289 134.39 67.6357 134.426 67.8858C134.461 68.1358 134.511 68.3837 134.578 68.6294L134.643 69.433L134.749 69.8484C134.718 70.0759 134.712 70.3158 134.732 70.568C134.751 70.8202 134.689 71.0521 134.545 71.2636C134.381 71.446 134.175 71.5546 133.928 71.5894C133.68 71.6242 133.432 71.6591 133.184 71.6939L132.481 71.7449L132.441 71.7984L130.304 72.0987C130.087 72.1292 129.892 72.2044 129.719 72.3243C129.547 72.4442 129.354 72.535 129.142 72.5967ZM132.828 69.8315L132.689 68.847L130.997 68.9414L129.483 69.2975L129.503 69.4382L129.721 70.3159L129.96 70.3302C130.328 70.2467 130.712 70.1766 131.115 70.12C131.518 70.0634 131.901 69.9778 132.264 69.863L132.828 69.8315ZM126.595 67.6237L126.097 67.4545C125.987 67.3426 125.891 67.2206 125.809 67.0887C125.727 66.9567 125.689 66.7948 125.693 66.6029L125.86 66.1014C126.316 65.7504 126.845 65.5247 127.447 65.4242C128.048 65.3237 128.639 65.2008 129.219 65.0556L129.186 64.8212C129.067 64.6467 128.94 64.4733 128.805 64.301C128.67 64.1287 128.601 63.9153 128.597 63.6609L128.763 63.1594C128.874 63.0482 128.995 62.9594 129.128 62.8929C129.261 62.8265 129.407 62.798 129.566 62.8075L130.064 62.9766C130.32 63.2274 130.54 63.4993 130.723 63.7923C130.907 64.0853 131.038 64.4015 131.117 64.741L131.867 64.6834L133.58 64.3949C133.825 64.456 134.087 64.467 134.366 64.4278C134.645 64.3886 134.888 64.4341 135.096 64.5643C135.206 64.6763 135.296 64.8071 135.364 64.9569C135.433 65.1066 135.465 65.2775 135.46 65.4694L135.294 65.9709C135.183 66.082 135.061 66.1709 134.928 66.2373C134.796 66.3038 134.634 66.3345 134.444 66.3293C134.079 66.3169 133.715 66.3122 133.352 66.3154C132.989 66.3186 132.624 66.3619 132.257 66.4454L132.217 66.4988L129.197 66.9233C128.733 66.9886 128.289 67.0908 127.866 67.2299C127.444 67.3689 127.02 67.5002 126.595 67.6237ZM151.206 77.2172C150.507 77.1879 149.823 77.1247 149.154 77.0275C148.485 76.9303 147.871 76.6341 147.312 76.139C146.284 75.0084 145.603 73.7017 145.268 72.2188C144.934 70.7358 144.531 68.7685 144.06 66.3166C144.069 66.156 144.09 65.9976 144.123 65.8415C144.157 65.6854 144.211 65.5383 144.286 65.4002C144.397 65.2891 144.523 65.2036 144.665 65.1439C144.807 65.0841 144.949 65.0601 145.093 65.0717L145.594 65.2643C145.704 65.3763 145.79 65.5038 145.849 65.6468C145.909 65.7898 145.933 65.9338 145.922 66.0788L146.406 69.0228C146.633 69.9631 146.865 70.9067 147.1 71.8537C147.336 72.8007 147.716 73.6757 148.239 74.4787L148.339 74.5125L148.743 74.862C148.818 74.9471 148.914 75.0094 149.03 75.0488C149.146 75.0883 149.247 75.1338 149.334 75.1855C149.752 75.2383 150.176 75.2822 150.608 75.3172C151.039 75.3522 151.494 75.3281 151.971 75.245C152.912 74.9694 153.674 74.6073 154.259 74.1586C154.843 73.7099 155.29 73.3483 155.599 73.0738C155.908 72.7993 156.259 72.7141 156.653 72.8181C156.75 72.9479 156.831 73.0799 156.898 73.214C156.964 73.3481 156.987 73.5122 156.967 73.7063L156.774 74.1876C156.014 74.9637 155.211 75.6225 154.363 76.164C153.515 76.7055 152.463 77.0565 151.206 77.2172ZM171.261 74.4465L170.657 74.1967C170.032 73.5674 169.545 72.8549 169.196 72.0593C168.847 71.2636 168.609 70.4126 168.482 69.5061C168.483 68.6135 168.582 67.747 168.78 66.9064C168.978 66.0658 169.289 65.2491 169.715 64.4562L169.908 64.1422L169.768 64.1618C168.666 64.4123 167.553 64.6962 166.429 65.0135C165.305 65.3309 164.171 65.6337 163.027 65.922L162.53 65.7528C162.419 65.6409 162.331 65.5178 162.264 65.3837C162.198 65.2496 162.17 65.1022 162.179 64.9415L162.345 64.44C163.737 63.8938 165.149 63.4324 166.58 63.0559C168.012 62.6794 169.469 62.3711 170.951 62.1308C171.142 62.136 171.336 62.1724 171.535 62.24C171.734 62.3077 171.918 62.3775 172.086 62.4495C172.196 62.5615 172.285 62.6845 172.351 62.8187C172.417 62.9528 172.448 63.1158 172.443 63.3077L172.277 63.8092L172.184 63.8222L172.197 63.916L171.931 64.3837L171.838 64.3967L171.406 65.3659L171.313 65.379L171.326 65.4727C171.162 65.6551 171.042 65.8634 170.964 66.0974C170.886 66.3314 170.799 66.5509 170.701 66.7559C170.612 67.2465 170.516 67.7382 170.411 68.231C170.307 68.7238 170.294 69.2515 170.373 69.8141C170.478 70.5643 170.737 71.2213 171.147 71.785C171.558 72.3488 171.918 72.9437 172.227 73.5696L172.064 74.0946C171.954 74.2057 171.832 74.2946 171.699 74.3611C171.566 74.4275 171.42 74.456 171.261 74.4465ZM187.136 73.1238C186.698 73.1535 186.28 73.1007 185.882 72.9653C185.484 72.83 185.108 72.6279 184.755 72.3588C184.467 72.1124 184.259 71.8109 184.13 71.4545C184.001 71.0982 183.91 70.7324 183.858 70.3573C183.858 70.1342 183.891 69.9223 183.958 69.7217C184.024 69.5211 184.124 69.3318 184.257 69.1537C184.664 68.6821 185.133 68.3055 185.662 68.024C186.191 67.7425 186.78 67.556 187.431 67.4646L187.385 67.1364L186.849 65.3471L186.192 65.3916L184.287 65.6593C184.128 65.6498 183.96 65.6336 183.783 65.6107C183.606 65.5877 183.447 65.5224 183.305 65.4148C183.195 65.3029 183.106 65.1798 183.04 65.0457C182.974 64.9116 182.945 64.7642 182.954 64.6035L183.121 64.102C183.231 63.9909 183.353 63.902 183.486 63.8356C183.619 63.7691 183.78 63.7384 183.97 63.7436L184.216 63.8047L186.074 63.5435L186.36 63.5512L186.34 63.4105L185.691 61.4936L185.087 61.5785L183.992 61.8759C183.864 61.862 183.742 61.8393 183.627 61.8076C183.512 61.776 183.404 61.7354 183.302 61.686C183.192 61.574 183.103 61.4509 183.037 61.3168C182.971 61.1827 182.942 61.0353 182.951 60.8747L183.118 60.3732C183.436 60.169 183.787 60.0241 184.17 59.9384C184.553 59.8527 184.943 59.766 185.342 59.6781L185.286 59.2796L185.041 58.2143C185.054 58.0849 185.077 57.9623 185.108 57.8464C185.139 57.7304 185.179 57.6212 185.228 57.5188C185.338 57.4076 185.46 57.3187 185.593 57.2523C185.726 57.1858 185.872 57.1573 186.031 57.1668L186.529 57.3359C186.727 57.6267 186.863 57.9742 186.936 58.3784C187.008 58.7825 187.087 59.1778 187.173 59.5641C187.456 59.5562 187.742 59.5639 188.029 59.5873C188.317 59.6106 188.596 59.683 188.865 59.8044C188.976 59.9164 189.064 60.0395 189.13 60.1736C189.197 60.3077 189.225 60.4551 189.216 60.6157L189.05 61.1172C188.944 61.2597 188.807 61.3585 188.641 61.4137C188.475 61.4689 188.297 61.4939 188.107 61.4888L187.629 61.4603L187.649 61.601L188.145 63.109L188.563 63.0502C188.771 62.9572 188.996 62.8699 189.237 62.7882C189.479 62.7065 189.725 62.6638 189.977 62.6603L190.475 62.8294C190.585 62.9414 190.674 63.0644 190.74 63.1985C190.806 63.3327 190.835 63.48 190.826 63.6407L190.659 64.1422C190.372 64.342 190.054 64.4982 189.707 64.6108C189.359 64.7233 189.002 64.8214 188.635 64.9049L188.687 65.2799C188.833 65.642 188.958 66.0229 189.061 66.4227C189.165 66.8225 189.289 67.2034 189.435 67.5654C189.833 67.7007 190.216 67.8382 190.583 67.9779C190.95 68.1175 191.321 68.2884 191.697 68.4906C191.807 68.6026 191.905 68.7323 191.989 68.8799C192.073 69.0275 192.112 69.1972 192.108 69.3891L191.941 69.8906C191.83 70.0018 191.709 70.0906 191.576 70.1571C191.443 70.2236 191.297 70.2521 191.138 70.2426L189.532 69.6076C189.523 69.9914 189.489 70.3667 189.43 70.7336C189.371 71.1005 189.253 71.4398 189.076 71.7516L188.916 71.9652L188.657 72.1451L188.67 72.2388C188.449 72.4612 188.214 72.6456 187.966 72.792C187.718 72.9384 187.442 73.049 187.136 73.1238ZM187.222 71.032L187.614 70.451L187.688 69.2931L187.456 69.3258C187.119 69.4049 186.812 69.5198 186.533 69.6706C186.254 69.8214 185.99 70.0257 185.742 70.2837L185.716 70.4309L185.981 70.9674C186.149 71.0394 186.317 71.1114 186.485 71.1834C186.653 71.2554 186.828 71.2627 187.009 71.2053L187.222 71.032ZM208.296 69.9587C208.168 69.9448 208.046 69.9221 207.932 69.8904C207.816 69.8588 207.708 69.8183 207.606 69.7688C207.496 69.6568 207.408 69.5338 207.341 69.3997C207.275 69.2655 207.247 69.1181 207.256 68.9575C207.415 68.5207 207.527 68.0787 207.59 67.6315C207.654 67.1843 207.684 66.7219 207.68 66.2444L207.54 66.264L206.677 66.5287C206.394 66.5366 206.122 66.5111 205.861 66.4522C205.6 66.3932 205.348 66.2852 205.105 66.1281L204.787 65.886C204.495 65.6083 204.274 65.2728 204.124 64.8795C203.974 64.4862 203.868 64.0708 203.807 63.6332C203.798 63.3475 203.828 63.0564 203.897 62.7599C203.966 62.4633 204.078 62.1926 204.233 61.9477C204.561 61.5829 204.923 61.2929 205.319 61.0779C205.715 60.8628 206.181 60.7496 206.716 60.7381L207.101 60.7796L206.91 59.4199L206.831 59.192L206.412 59.2508C205.156 59.5231 203.92 59.8322 202.705 60.1782C201.49 60.5243 200.299 60.9228 199.13 61.3739C198.986 61.3622 198.857 61.3406 198.742 61.3089C198.627 61.2773 198.519 61.2367 198.417 61.1873C198.307 61.0753 198.218 60.9523 198.152 60.8181C198.086 60.684 198.057 60.5366 198.066 60.376L198.233 59.8745C199.523 59.2788 200.859 58.7881 202.242 58.4025C203.625 58.0169 205.023 57.6771 206.434 57.3831L206.368 56.9143L205.863 55.0012L206.029 54.4997C206.14 54.3885 206.262 54.2997 206.394 54.2332C206.527 54.1667 206.673 54.1382 206.832 54.1477L207.33 54.3168C207.604 54.6927 207.791 55.1246 207.891 55.6126C207.991 56.1005 208.121 56.5724 208.28 57.0282L209.488 56.8584L209.527 56.805L211.734 56.4948L212.232 56.6639C212.342 56.7759 212.438 56.8979 212.52 57.0298C212.602 57.1618 212.64 57.3237 212.636 57.5156L212.469 58.0171C212.332 58.1639 212.165 58.267 211.968 58.3266C211.771 58.3861 211.564 58.4312 211.347 58.4616L209.831 58.627L208.629 58.8436L208.643 58.9374L208.696 58.9777L209.117 61.9784L209.169 63.0229L209.315 63.3849L209.612 65.4948C209.584 66.1998 209.54 66.8953 209.478 67.5813C209.417 68.2673 209.242 68.9333 208.954 69.5794C208.874 69.6863 208.774 69.764 208.655 69.8127C208.535 69.8614 208.416 69.91 208.296 69.9587ZM206.958 64.4812C207.082 64.2406 207.166 63.9977 207.211 63.7524C207.255 63.5071 207.258 63.2437 207.218 62.9624C207.174 62.873 207.109 62.8025 207.023 62.7509C206.937 62.6992 206.843 62.6487 206.741 62.5992L206.137 62.6841L205.652 63.2782L205.678 63.8005C205.726 63.9211 205.776 64.0496 205.827 64.1859C205.878 64.3222 205.956 64.4307 206.062 64.5115L206.162 64.5453L206.175 64.6391L206.832 64.5945L206.958 64.4812ZM221.011 63.6775L220.583 63.6659C220.462 63.5874 220.361 63.5139 220.28 63.4456C220.199 63.3772 220.148 63.2649 220.126 63.1086C220.079 61.3143 220.021 59.5217 219.951 57.7306C219.881 55.9396 219.852 54.1906 219.865 52.4835C219.942 52.361 220.042 52.2554 220.164 52.1666C220.285 52.0777 220.424 52.0224 220.579 52.0007L221.099 51.9992C221.234 52.0599 221.343 52.1323 221.426 52.2162C221.509 52.3002 221.569 52.4193 221.607 52.5734C221.634 54.227 221.673 55.9426 221.726 57.7202C221.778 59.4978 221.79 61.297 221.762 63.1178C221.669 63.2424 221.565 63.3486 221.451 63.4364C221.337 63.5241 221.191 63.6045 221.011 63.6775ZM220.963 68.561L220.148 68.1497C220.037 68.0377 219.941 67.9158 219.859 67.7838C219.777 67.6519 219.677 67.4987 219.558 67.3242L219.565 67.0363L219.572 66.4138L219.738 65.9123C219.938 65.7568 220.166 65.6371 220.422 65.5532C220.679 65.4693 220.929 65.3943 221.172 65.3282C221.363 65.3334 221.538 65.3485 221.7 65.3736C221.861 65.3987 222.013 65.4651 222.154 65.5727C222.34 65.7698 222.468 66.0068 222.538 66.2837C222.609 66.5607 222.68 66.8376 222.75 67.1146L222.584 67.6161L222.491 67.6291L222.504 67.7229C222.278 67.914 222.051 68.0973 221.823 68.2728C221.595 68.4483 221.308 68.5443 220.963 68.561Z" fill="#222222"/>
</svg>
