<svg width="168" height="109" viewBox="0 0 168 109" fill="none" xmlns="http://www.w3.org/2000/svg">
<path d="M139.757 31.3345C139.814 31.5555 139.974 31.7353 140.187 31.8163C154.728 37.3335 164.033 47.9858 163.06 59.1014C162.416 66.4596 157.391 72.8199 149.603 77.142C141.818 81.4615 131.342 83.697 120.004 82.8063C119.919 82.7996 119.833 82.8086 119.751 82.8329C108.277 86.2248 92.116 87.5813 74.391 86.0306C72.0115 85.8224 69.6712 85.5611 67.3684 85.263C67.2154 85.2432 67.0601 85.2745 66.9267 85.3521L47.2636 96.7856L54.0695 83.8672C54.1712 83.6742 54.1771 83.4449 54.0855 83.2469C53.9939 83.049 53.8153 82.9051 53.6024 82.8576C42.9632 80.4883 33.8648 77.1793 27.2371 73.3855C20.5664 69.5672 16.5673 65.3562 15.7967 61.2597C15.7606 61.0678 15.6459 60.8997 15.4805 60.796C10.1181 57.4352 7.15284 54.224 5.81512 51.264C4.49248 48.3373 4.72782 45.5836 5.93325 43.0156C7.15144 40.4204 9.36637 38.0094 12.0004 35.8637C14.6279 33.7233 17.63 31.8809 20.3671 30.4113C20.5411 30.3179 20.6676 30.1553 20.7152 29.9636C20.7629 29.7719 20.7274 29.569 20.6174 29.4049C19.258 27.3765 18.6391 25.3577 18.8121 23.3805C19.0569 20.5823 20.855 17.9627 24.0989 15.6325C27.3403 13.304 31.9503 11.3231 37.6269 9.80352C48.9741 6.7659 64.4308 5.61153 81.2976 7.08719C96.8438 8.4473 110.82 11.8001 121.248 16.2044C126.463 18.4069 130.768 20.8632 133.937 23.4474C137.113 26.0384 139.09 28.7113 139.757 31.3345Z" fill="white" stroke="#222222" stroke-width="1.4" stroke-linecap="round" stroke-linejoin="round"/>
<path d="M50.3332 44.8235C50.2409 44.7889 50.1498 44.7229 50.0598 44.6257C49.9698 44.5284 49.9109 44.4322 49.8831 44.3371L49.8962 43.9611C50.4398 41.7681 50.8369 39.5386 51.0873 37.2726C51.3376 35.0067 51.607 32.8669 51.8953 30.8532L51.7087 30.8467C51.5821 30.905 51.4476 30.967 51.3052 31.0326C51.1627 31.0983 50.9988 31.1121 50.8133 31.0743C50.7211 31.0397 50.6301 30.9698 50.5404 30.8647C50.4506 30.7596 50.3918 30.6595 50.364 30.5644L50.3772 30.1884C50.4437 30.0652 50.5411 29.951 50.6694 29.8456C50.7976 29.7403 50.925 29.6585 51.0516 29.6001L51.9478 29.349C51.9533 29.1924 51.9668 29.0281 51.9883 28.8563C52.0099 28.6845 52.0845 28.5538 52.2122 28.4641C52.3077 28.4047 52.4024 28.3688 52.4962 28.3563C52.5901 28.3439 52.6992 28.3399 52.8236 28.3442C52.9158 28.3788 53.0069 28.4448 53.0969 28.542C53.1869 28.6393 53.2459 28.7355 53.2737 28.8306L53.3088 29.1613L53.5887 29.171C53.9797 29.1219 54.3853 29.0969 54.8057 29.0959C55.2261 29.0949 55.6385 29.1014 56.0428 29.1155C56.6326 29.1675 57.1799 29.32 57.6849 29.5729C58.1898 29.8259 58.6523 30.1793 59.0724 30.6332C59.3081 31.018 59.4414 31.4344 59.4725 31.8826C59.5035 32.3308 59.4953 32.7894 59.4478 33.2583C59.3403 33.6625 59.1214 34.1333 58.7913 34.6708C58.4611 35.2084 58.0391 35.7035 57.525 36.1562C56.7268 36.7244 55.8951 37.2444 55.0301 37.7162C54.1652 38.188 53.2473 38.5011 52.2767 38.6555C52.1162 39.6853 51.9636 40.7114 51.8189 41.7339C51.6742 42.7564 51.3827 43.7463 50.9445 44.7036C50.849 44.763 50.7544 44.7989 50.6605 44.8114C50.5667 44.8238 50.4576 44.8278 50.3332 44.8235ZM54.478 36.4733C55.081 36.1493 55.6772 35.7936 56.2668 35.4063C56.8564 35.019 57.3337 34.5023 57.6988 33.8561C57.8652 33.5482 57.9836 33.2778 58.0541 33.0449C58.1245 32.8121 58.1512 32.4914 58.1344 32.083L57.7891 31.2708C57.3652 30.9266 56.8827 30.698 56.3418 30.5849C55.8008 30.4719 55.2343 30.4208 54.6423 30.4315L53.3079 30.5261C53.2035 31.7304 53.0556 32.8469 52.864 33.8756C52.6724 34.9043 52.5247 36.0129 52.4209 37.2016L52.5608 37.2064C52.9062 37.1244 53.233 37.0181 53.5411 36.8877C53.8493 36.7573 54.1616 36.6192 54.478 36.4733ZM64.0128 42.9715L63.3745 42.5257C63.1858 41.6876 63.1058 40.8573 63.1345 40.0347C63.1632 39.2121 63.1849 38.3697 63.1994 37.5074L63.2477 37.462L63.4063 34.9261L63.7816 34.2097L64.2481 34.226L64.7739 34.5503C64.8473 34.6784 64.9046 34.8216 64.9458 34.9799C64.9869 35.1382 64.989 35.303 64.9519 35.4743L64.7014 35.9597L64.5452 38.425L64.4904 38.6584C64.4835 39.3014 64.4805 39.9445 64.4814 40.5877C64.4823 41.2309 64.5098 41.8908 64.564 42.5672L64.3852 43.0081L64.0128 42.9715ZM63.393 33.302L62.7989 32.9283C62.7271 32.7532 62.6783 32.5907 62.6524 32.4408C62.6265 32.2908 62.6171 32.114 62.6242 31.9103L62.8931 31.5667C63.2584 31.3599 63.6252 31.1099 63.9935 30.8168C64.3619 30.5238 64.7879 30.3622 65.2716 30.332L65.9132 30.6839C65.986 30.8276 66.0469 30.9788 66.0958 31.1373C66.1448 31.2959 66.151 31.453 66.1144 31.6086L65.938 31.979C65.4671 32.088 65.0436 32.2889 64.6675 32.5817C64.2914 32.8745 63.8666 33.1146 63.393 33.302ZM72.5837 42.9649C71.9961 42.8503 71.4427 42.6466 70.9236 42.354C70.4045 42.0613 69.9435 41.6648 69.5406 41.1644C69.216 40.6511 69.0168 40.1146 68.9429 39.5551C68.869 38.9957 68.8583 38.4109 68.9107 37.8009C69.0243 37.2244 69.2106 36.6819 69.4697 36.1732C69.7288 35.6646 70.0606 35.1899 70.4652 34.7491C70.9326 34.2947 71.439 33.9477 71.9845 33.7079C72.53 33.4681 73.1443 33.3758 73.8274 33.431C74.1657 33.5527 74.4872 33.709 74.7919 33.9001C75.0966 34.0911 75.3765 34.3244 75.6315 34.6C75.7343 34.7762 75.8256 34.948 75.9054 35.1155C75.9852 35.283 76.0054 35.4837 75.9661 35.7177L75.8114 36.1359L75.4382 36.1228L74.8457 35.7021C74.7734 35.5427 74.6881 35.4221 74.5898 35.3402C74.4914 35.2583 74.3964 35.1922 74.3048 35.142L73.6783 35.026C73.2691 35.1529 72.8703 35.3154 72.4819 35.5137C72.0936 35.7119 71.7298 35.9855 71.3907 36.3345C71.0505 36.7148 70.7755 37.1209 70.5658 37.5528C70.3561 37.9847 70.227 38.4509 70.1784 38.9512C70.198 39.2813 70.2378 39.5886 70.298 39.8731C70.3581 40.1576 70.509 40.406 70.7507 40.6184C71.1135 40.9291 71.5188 41.1354 71.9668 41.2374C72.4147 41.3393 72.8958 41.3835 73.4101 41.3701C74.0686 41.2362 74.7101 41.0351 75.3344 40.7667C75.9588 40.4982 76.526 40.1925 77.0362 39.8495L77.0428 39.6615L77.5559 39.6794L78.0592 39.9794C78.1309 40.1545 78.1918 40.3056 78.2419 40.4329C78.2919 40.5601 78.2976 40.7329 78.2588 40.9511L78.0124 41.319C77.2141 41.8873 76.3694 42.3363 75.4783 42.666C74.5871 42.9957 73.6223 43.0953 72.5837 42.9649ZM81.5214 45.1596L80.974 44.7875C80.7809 44.0748 80.6911 43.4128 80.7047 42.8014C80.7182 42.1901 80.6899 41.5537 80.6196 40.8924C80.4968 40.841 80.3682 40.7346 80.2337 40.573C80.0992 40.4114 80.0044 40.2277 79.9494 40.0219C79.9098 39.8165 79.8899 39.608 79.8895 39.3962C79.8891 39.1844 79.8935 38.9453 79.9028 38.6789L80.5687 37.6668L80.7674 35.3206C80.8657 34.2886 80.9835 33.2574 81.1207 32.2268C81.2579 31.1962 81.4842 30.1765 81.7996 29.1679L82.2661 29.1842L82.7686 29.5076C82.8414 29.6513 82.8986 29.7984 82.94 29.9489C82.9815 30.0994 82.9839 30.2524 82.9474 30.408C82.6785 31.4184 82.475 32.4545 82.3367 33.5164C82.1984 34.5783 82.0896 35.5786 82.0101 36.517C82.78 35.8694 83.6826 35.3243 84.7178 34.882C85.753 34.4397 86.8222 34.026 87.9255 33.641L88.4496 34.0123C88.538 34.1565 88.599 34.3038 88.6327 34.454C88.6664 34.6042 88.6647 34.7649 88.6276 34.9362L88.452 35.283C87.3937 35.7167 86.3663 36.1593 85.3697 36.6108C84.3731 37.0623 83.4112 37.6327 82.4842 38.322C82.3704 38.4592 82.2334 38.5917 82.0733 38.7194C81.9131 38.8472 81.8531 39.0059 81.8932 39.1955L81.9328 40.0676C82.4705 40.2746 83.0624 40.4875 83.7087 40.7061C84.355 40.9248 85.0274 41.062 85.7261 41.1178L86.9856 41.1618L87.5114 41.486C87.5526 41.6444 87.6019 41.7912 87.6595 41.9265C87.717 42.0619 87.7189 42.2306 87.6652 42.4327L87.4646 42.8257L87.1373 42.8378L86.4408 42.7194L85.1812 42.6754C84.5942 42.5451 84.0045 42.3794 83.4121 42.1783C82.8197 41.9772 82.316 41.7988 81.9011 41.6431L81.9286 41.5264C81.9544 42.1234 81.9711 42.6496 81.9785 43.1048C81.986 43.56 82.0174 44.1101 82.0727 44.7552L81.8713 45.1718L81.5214 45.1596ZM102.338 44.9217C101.719 44.806 101.151 44.5743 100.634 44.2268C100.116 43.8793 99.6495 43.4316 99.2327 42.8837C98.9125 42.245 98.6904 41.5823 98.5665 40.8955C98.4425 40.2088 98.3854 39.5048 98.395 38.7835L98.5962 36.3668C98.7646 35.5569 98.9633 34.7716 99.1922 34.0109C99.4212 33.2502 99.734 32.5395 100.131 31.8788C100.258 31.7891 100.396 31.7429 100.544 31.7403C100.692 31.7376 100.844 31.7468 100.999 31.7679L101.662 32.1676C101.734 32.327 101.787 32.5013 101.819 32.6907C101.851 32.8801 101.856 33.0842 101.833 33.303L101.641 33.4375L101.614 33.5307L101.187 33.7276C100.802 34.5142 100.493 35.3349 100.26 36.1896C100.028 37.0443 99.8876 37.9492 99.8387 38.9045C99.8324 39.5318 99.8806 40.157 99.9834 40.7803C100.086 41.4035 100.346 41.9735 100.764 42.4901C100.977 42.6387 101.186 42.7872 101.391 42.9355C101.596 43.0839 101.838 43.1708 102.118 43.1962C102.558 43.0704 103.007 42.9174 103.465 42.7373C103.923 42.5572 104.352 42.3094 104.752 41.994C105.413 41.3268 105.956 40.6124 106.38 39.8506C106.803 39.0889 107.116 38.2566 107.319 37.3538C107.362 36.5709 107.275 35.8384 107.057 35.1562C106.84 34.474 106.635 33.7766 106.441 33.0639L106.554 32.5031L107.02 32.5429L107.683 32.9426C108.228 33.8401 108.557 34.7889 108.67 35.789C108.783 36.7892 108.773 37.8438 108.641 38.953C108.407 39.8704 108.045 40.7481 107.557 41.586C107.068 42.4239 106.47 43.1835 105.761 43.8646C105.266 44.2239 104.742 44.5115 104.189 44.7275C103.637 44.9435 103.02 45.0083 102.338 44.9217ZM110.908 46.9388C110.816 46.9042 110.725 46.8382 110.635 46.741C110.544 46.6437 110.486 46.5475 110.458 46.4524L110.471 46.0764C111.015 43.8834 111.412 41.6539 111.662 39.388C111.912 37.122 112.182 34.9822 112.47 32.9685L112.283 32.962C112.157 33.0204 112.022 33.0823 111.88 33.148C111.737 33.2136 111.573 33.2275 111.388 33.1896C111.296 33.155 111.205 33.0852 111.115 32.9801C111.025 32.875 110.967 32.7749 110.939 32.6798L110.952 32.3037C111.018 32.1805 111.116 32.0663 111.244 31.9609C111.372 31.8556 111.5 31.7738 111.626 31.7154L112.522 31.4644C112.528 31.3077 112.541 31.1434 112.563 30.9716C112.585 30.7998 112.659 30.6691 112.787 30.5794C112.882 30.52 112.977 30.4841 113.071 30.4717C113.165 30.4593 113.274 30.4552 113.398 30.4596C113.49 30.4942 113.582 30.5601 113.672 30.6574C113.762 30.7546 113.821 30.8508 113.848 30.9459L113.884 31.2766L114.163 31.2864C114.554 31.2373 114.96 31.2122 115.38 31.2112C115.801 31.2102 116.213 31.2167 116.617 31.2309C117.207 31.2828 117.755 31.4353 118.26 31.6882C118.765 31.9412 119.227 32.2946 119.647 32.7485C119.883 33.1333 120.016 33.5497 120.047 33.9979C120.078 34.4461 120.07 34.9047 120.022 35.3737C119.915 35.7778 119.696 36.2486 119.366 36.7861C119.036 37.3237 118.614 37.8188 118.1 38.2715C117.301 38.8397 116.47 39.3598 115.605 39.8316C114.74 40.3034 113.822 40.6164 112.851 40.7708C112.691 41.8006 112.538 42.8267 112.394 43.8492C112.249 44.8717 111.957 45.8616 111.519 46.8189C111.424 46.8783 111.329 46.9143 111.235 46.9267C111.141 46.9391 111.032 46.9431 110.908 46.9388ZM115.053 38.5886C115.656 38.2646 116.252 37.9089 116.841 37.5216C117.431 37.1343 117.908 36.6176 118.273 35.9715C118.44 35.6635 118.558 35.3931 118.629 35.1603C118.699 34.9274 118.726 34.6067 118.709 34.1983L118.364 33.3861C117.94 33.0419 117.457 32.8133 116.916 32.7003C116.375 32.5872 115.809 32.5361 115.217 32.5468L113.883 32.6414C113.778 33.8457 113.63 34.9622 113.439 35.9909C113.247 37.0196 113.099 38.1282 112.996 39.3169L113.136 39.3218C113.481 39.2397 113.808 39.1334 114.116 39.003C114.424 38.8726 114.736 38.7345 115.053 38.5886ZM47.8183 64.0079L47.36 63.7566C47.2711 63.628 47.2058 63.4924 47.164 63.3497C47.1223 63.2071 47.1197 63.058 47.1563 62.9024L47.406 62.4404C47.9123 62.2071 48.4654 62.0853 49.0652 62.0748C49.6649 62.0644 50.2463 62.0219 50.8094 61.9475L53.1886 62.0306L53.2368 61.9852L55.8026 62.0748L55.8509 62.0294L58.4633 62.1206C59.0209 62.2029 59.6071 62.2469 60.2218 62.2526C60.8366 62.2584 61.4045 62.3802 61.9255 62.618C62.0145 62.7466 62.0798 62.8823 62.1215 63.0249C62.1632 63.1676 62.1658 63.3167 62.1292 63.4723L61.8796 63.9342C61.7197 64.0541 61.5381 64.1262 61.3349 64.1505C61.1317 64.1748 60.9212 64.1831 60.7035 64.1755L58.2593 63.949L55.7869 63.8626L55.7386 63.908L53.1728 63.8184L53.1245 63.8638L50.7921 63.7823C50.2923 63.8276 49.8005 63.8654 49.3168 63.8955C48.8332 63.9257 48.3336 63.9632 47.8183 64.0079ZM51.1381 56.5467L50.6798 56.2954C50.5909 56.1668 50.5256 56.0312 50.4839 55.8885C50.4422 55.7459 50.4396 55.5967 50.4761 55.4411L50.7258 54.9792C51.0445 54.7707 51.3982 54.6733 51.7869 54.6869C52.1757 54.7004 52.5572 54.6981 52.9315 54.6798L56.8034 54.815C56.9889 54.8528 57.1669 54.8826 57.3374 54.9042C57.5079 54.9259 57.6532 55.0015 57.7732 55.1312C57.8621 55.2598 57.9352 55.3957 57.9925 55.5389C58.0498 55.6821 58.0596 55.8472 58.0219 56.0341L57.7723 56.496C57.6124 56.6159 57.4389 56.6805 57.2517 56.6896C57.0646 56.6988 56.8621 56.6995 56.6444 56.6919L56.5994 56.6433L52.9141 56.5146L51.1381 56.5467ZM65.6538 66.8662C65.5305 66.8306 65.4153 66.7873 65.3081 66.7365C65.2009 66.6857 65.1017 66.6273 65.0106 66.5614C64.9217 66.4328 64.8563 66.2972 64.8146 66.1545C64.7729 66.0119 64.7706 65.8549 64.8077 65.6837L65.0574 65.2217C65.7792 65.0587 66.5372 64.9754 67.3314 64.9717C68.1255 64.9681 68.9119 64.9642 69.6905 64.96C69.7756 64.3041 69.9989 63.7079 70.3601 63.1714C70.7214 62.635 70.9757 62.0399 71.123 61.3861L69.7702 61.3389C69.2715 61.3529 68.7801 61.3828 68.2958 61.4286C67.8116 61.4744 67.3196 61.52 66.8198 61.5653C66.6965 61.5296 66.5812 61.4864 66.474 61.4356C66.3668 61.3848 66.2676 61.3264 66.1765 61.2605C66.0876 61.1319 66.0223 60.9962 65.9806 60.8536C65.9388 60.7109 65.9363 60.5618 65.9728 60.4062L66.2225 59.9443C66.7889 59.7758 67.3764 59.6709 67.985 59.6294C68.5936 59.5879 69.1945 59.5461 69.7876 59.5041L72.1201 59.5855L72.8067 59.986C72.9867 60.1805 73.0876 60.4115 73.1094 60.679C73.1312 60.9464 73.1216 61.2206 73.0807 61.5016C72.8733 62.0905 72.6429 62.6707 72.3894 63.2423C72.1359 63.8139 71.8593 64.3768 71.5597 64.9311L71.6997 64.936L73.9422 64.9202L74.4004 65.1715C74.4894 65.3001 74.5625 65.436 74.6197 65.5792C74.677 65.7224 74.6868 65.8875 74.6492 66.0744L74.3987 66.5598C74.271 66.6495 74.1366 66.7075 73.9956 66.734C73.8545 66.7604 73.7057 66.7866 73.5491 66.8125L73.0843 66.7492L65.6538 66.8662ZM81.1897 60.6788C81.0669 60.6274 80.948 60.5762 80.8331 60.5251C80.7181 60.474 80.615 60.4155 80.5239 60.3496C80.4506 60.2215 80.393 60.0862 80.3513 59.9435C80.3096 59.8009 80.3073 59.6439 80.3444 59.4727L80.6174 59.0116C81.3242 58.8323 82.0045 58.7463 82.6581 58.7534C83.3118 58.7605 84.012 58.7693 84.759 58.7797L86.7874 58.8741L87.9545 58.8913L88.6968 59.0349L91.1209 59.1666C91.2753 59.2033 91.4296 59.244 91.5837 59.2886C91.7379 59.3332 91.8755 59.4047 91.9966 59.5031C92.07 59.6311 92.1313 59.7705 92.1805 59.9213C92.2297 60.072 92.2355 60.2409 92.1978 60.4278L91.9015 60.8881C91.7728 61.0091 91.6149 61.0703 91.4281 61.0716C91.2412 61.0729 91.0545 61.0703 90.8679 61.0638L90.8229 61.0152L88.4454 60.8851L86.8167 60.7105L86.7692 60.7324L84.6942 60.6364L81.1897 60.6788ZM98.3648 67.0673L97.9073 66.7925C97.8184 66.6639 97.7531 66.5282 97.7114 66.3856C97.6696 66.2429 97.6671 66.0938 97.7036 65.9382C97.7402 65.7826 97.8232 65.6365 97.9525 65.4998C98.0818 65.3631 98.1953 65.2337 98.293 65.1117C99.644 63.8724 100.935 62.5684 102.166 61.1995C103.397 59.8306 104.537 58.4114 105.584 56.942L105.589 56.801L104.656 56.7684C103.752 56.7996 102.863 56.8391 101.99 56.8871C101.116 56.935 100.256 57.054 99.4084 57.244L98.9502 56.9927C98.8612 56.8641 98.7959 56.7285 98.7542 56.5858C98.7125 56.4432 98.7099 56.2941 98.7464 56.1385L98.9961 55.6765C100.101 55.2445 101.253 55.0141 102.453 54.9854C103.653 54.9567 104.86 54.9479 106.074 54.9589C106.323 54.9676 106.57 55.0076 106.817 55.079C107.064 55.1504 107.277 55.2755 107.458 55.4543C107.577 55.6154 107.664 55.7988 107.719 56.0047C107.774 56.2105 107.782 56.4226 107.743 56.6409C107.571 57.1055 107.353 57.5528 107.089 57.9829C106.825 58.4129 106.546 58.8267 106.252 59.2243L106.159 59.2211L105.911 59.636L105.817 59.6327L105.469 60.2324L105.376 60.2291L105.128 60.644C104.968 60.764 104.816 60.892 104.671 61.0281C104.526 61.1642 104.419 61.3252 104.35 61.5111L104.67 61.7105C104.819 61.904 105.001 62.0593 105.215 62.1766C105.429 62.2939 105.642 62.419 105.855 62.552L105.852 62.646L106.264 62.8957L107.539 63.8344L107.9 64.1765C108.112 64.3721 108.339 64.5447 108.583 64.6945C108.827 64.8442 109.07 65.0174 109.312 65.2141L109.782 65.7952L109.808 66.408L109.558 66.8699C109.415 66.959 109.272 67.0246 109.131 67.0667C108.989 67.1088 108.841 67.1115 108.687 67.0748L108.047 66.6759C107.32 66.0858 106.586 65.4954 105.843 64.9047C105.101 64.314 104.334 63.7695 103.542 63.2712L103.137 62.8335L101.581 64.5676L100.566 65.5675L100.129 66.0229L99.9363 66.2044L99.6514 66.3357L99.6481 66.4297L99.5033 66.5658C99.3423 66.7171 99.1742 66.8485 98.9991 66.96C98.8239 67.0715 98.6125 67.1073 98.3648 67.0673ZM117.996 64.6467L117.579 64.5615C117.473 64.4637 117.387 64.3744 117.319 64.2936C117.252 64.2128 117.221 64.0941 117.227 63.9374C117.491 62.1739 117.743 60.41 117.984 58.6457C118.224 56.8814 118.498 55.1653 118.806 53.4975C118.903 53.3911 119.019 53.3049 119.153 53.239C119.288 53.1731 119.433 53.1429 119.589 53.1483L120.099 53.2367C120.221 53.3194 120.315 53.409 120.382 53.5055C120.449 53.6019 120.487 53.7287 120.497 53.886C120.238 55.5084 119.981 57.1937 119.725 58.9418C119.469 60.6899 119.17 62.4522 118.828 64.2286C118.715 64.3345 118.596 64.4205 118.469 64.4867C118.342 64.5528 118.184 64.6062 117.996 64.6467ZM117.106 69.416L116.377 68.8729C116.288 68.7443 116.215 68.6084 116.158 68.4652C116.101 68.322 116.029 68.1547 115.942 67.9635L115.998 67.6831L116.113 67.0752L116.363 66.6133C116.585 66.4956 116.829 66.4178 117.095 66.3801C117.361 66.3423 117.619 66.3121 117.869 66.2894C118.054 66.3273 118.224 66.3724 118.378 66.4248C118.532 66.4773 118.668 66.5683 118.788 66.698C118.936 66.9228 119.021 67.1768 119.042 67.4599C119.063 67.743 119.085 68.0261 119.106 68.3093L118.856 68.7712L118.763 68.7679L118.76 68.8619C118.505 69.0099 118.251 69.1501 117.998 69.2824C117.744 69.4147 117.447 69.4593 117.106 69.416Z" fill="#222222"/>
</svg>
