<svg width="166" height="93" viewBox="0 0 166 93" fill="none" xmlns="http://www.w3.org/2000/svg">
<path d="M40.1329 27.6172C40.1737 27.9077 40.2536 28.4283 40.3726 29.179C40.4916 29.9298 40.5789 30.5032 40.6346 30.8993C40.6902 31.2954 40.7278 31.8018 40.7471 32.4184C40.7664 33.0351 40.734 33.6186 40.6498 34.169C40.6419 34.3048 40.5429 35.1333 40.3528 36.6545C40.1627 38.1758 39.9725 39.3133 39.7822 40.0672C38.66 44.345 36.6925 48.8358 33.8798 53.5397C31.4343 57.5996 28.9299 61.0484 26.3666 63.8861C24.5518 65.9184 22.7566 67.6114 20.981 68.965C19.5983 70.048 18.3482 70.8296 17.2309 71.3098C16.4192 71.6662 15.5022 71.9432 14.4797 72.1407C13.246 72.368 12.1118 71.9619 11.0771 70.9224C10.9492 70.7788 10.7695 70.6021 10.538 70.3923C10.3066 70.1825 10.0968 69.983 9.90865 69.7941C9.72052 69.6051 9.56065 69.4256 9.42905 69.2556C8.92902 68.5718 8.60807 67.9168 8.46618 67.2904C8.24222 66.2717 8.15137 64.763 8.19362 62.7643C8.23287 62.0856 8.30431 61.3485 8.40794 60.553C8.51157 59.7575 8.63005 59.0676 8.76337 58.4834C8.89669 57.8991 9.06241 57.1622 9.26054 56.2727C9.45866 55.3831 9.60354 54.6895 9.69518 54.1919C9.71045 54.109 9.94797 53.3081 10.4077 51.7894C10.2196 51.6004 9.97413 51.3387 9.67131 51.0042C9.36848 50.6698 9.09948 50.3844 8.86432 50.1482C8.62915 49.912 8.4043 49.7012 8.18976 49.5159C7.73056 49.1227 7.41867 48.6279 7.25409 48.0317C7.08951 47.4355 7.03612 46.864 7.09393 46.3173C7.06966 45.3782 7.17279 44.3876 7.40332 43.3453C7.63385 42.3031 7.89232 41.4118 8.17873 40.6714C8.46514 39.931 8.84151 39.0164 9.30785 37.9275C10.843 34.4803 12.8663 31.153 15.3777 27.9456C17.3143 25.4384 19.3913 23.3557 21.6088 21.6976C23.3881 20.3704 25.2605 19.5148 27.2262 19.1309C30.471 18.4594 33.3526 19.1316 35.871 21.1474C37.294 22.2669 38.437 23.7893 39.3 25.7146C39.345 25.8429 39.4238 26.0203 39.5364 26.2469C39.649 26.4734 39.7278 26.6508 39.7728 26.7792C39.9943 27.2058 40.1144 27.4852 40.1329 27.6172ZM37.9954 32.2397C37.9996 32.0775 38.0014 31.707 38.0008 31.1281C38.0002 30.5492 37.9889 30.1334 37.9668 29.8807C37.9448 29.628 37.9088 29.2762 37.8589 28.8254C37.809 28.3746 37.7317 27.9681 37.6269 27.6058C37.5222 27.2436 37.391 26.885 37.2334 26.5301C37.1657 26.4319 37.1282 26.3564 37.1208 26.3036C36.9542 24.9267 36.1082 23.7934 34.5829 22.9037C31.9164 21.3665 29.1127 21.2489 26.1719 22.5509C24.2958 23.3801 22.2652 24.9311 20.0802 27.204C18.0162 29.3791 16.0813 31.9938 14.2755 35.0482C11.9055 39.0705 10.3678 42.7873 9.66242 46.1987C9.50597 47.0016 9.67755 47.8392 10.1771 48.7115C10.4251 49.1345 10.7812 49.2729 11.2454 49.1269C11.5945 48.1622 11.7786 47.6517 11.7975 47.5951C11.8999 47.3653 12.17 46.7484 12.6079 45.7443C13.0457 44.7403 13.3746 43.967 13.5946 43.4244C14.5582 40.8924 16.0294 38.2351 18.0081 35.4526C18.5491 34.7034 19.2611 34.2128 20.1441 33.981C20.2682 34.0982 20.4141 34.2258 20.5816 34.3639C20.7491 34.5019 20.9317 34.6513 21.1293 34.812C21.3269 34.9727 21.501 35.1098 21.6516 35.2233C21.6285 35.442 21.608 35.7276 21.5903 36.0802C21.5725 36.4328 21.5616 36.6901 21.5574 36.8523C21.4217 36.8444 21.2577 36.8271 21.0654 36.8002C20.8731 36.7734 20.7242 36.7674 20.6185 36.7823C19.1994 38.9475 17.8229 41.4164 16.4892 44.189C15.1554 46.9616 14.5347 48.7723 14.627 49.6211C15.4044 49.4041 15.8195 49.2919 15.8723 49.2845C17.8681 48.9232 19.9459 48.1869 22.1055 47.0755C22.7587 46.7413 24.507 45.7685 27.3504 44.1571C28.4719 43.5148 29.4569 43.2417 30.3052 43.3379C30.4883 44.0662 30.3455 44.6787 29.8767 45.1754C28.8067 46.376 28.0017 47.1624 27.4616 47.5345C25.5465 48.8539 23.1999 50.0723 20.4218 51.1899C18.4853 51.9737 16.1462 52.3832 13.4045 52.4184C13.2262 52.8744 13.1389 53.1155 13.1426 53.1419C12.3106 55.844 11.6724 58.6804 11.2282 61.6512C10.9372 63.604 10.8807 65.2142 11.0589 66.4817C11.1632 67.0326 11.4142 67.7648 11.8119 68.6783C12.0784 69.2333 12.5737 69.5003 13.2978 69.4793C14.3199 69.4703 15.4238 69.0863 16.6097 68.3272C19.7255 66.3543 22.5011 63.8773 24.9365 60.896C27.7879 57.4254 30.1168 54.0686 31.923 50.8257C34.1382 46.852 35.6961 43.3747 36.5966 40.3937C36.6652 40.1148 36.7566 39.7114 36.8709 39.1837C36.9853 38.656 37.069 38.2942 37.1223 38.0982C37.7501 35.6672 38.0411 33.7143 37.9954 32.2397ZM55.2304 45.3688C55.7156 45.9469 55.8834 46.7581 55.734 47.8024C55.3286 50.2829 54.177 52.5318 52.2793 54.5488C52.2339 54.6091 51.8124 55.0588 51.0147 55.898C50.7507 55.9351 50.4867 55.925 50.2228 55.8679C49.959 55.8107 49.7545 55.7452 49.6095 55.6713C49.4645 55.5975 49.2357 55.4546 48.9232 55.2427C48.6106 55.0308 48.4111 54.904 48.3244 54.8623C48.3484 54.2665 48.6891 53.7204 49.3464 53.2241C51.0427 51.8816 52.2203 49.8177 52.879 47.0322C52.369 47.427 52.1008 47.6263 52.0744 47.63C50.645 49.3389 49.3011 51.5609 48.0429 54.296C46.6369 57.3211 45.4988 61.103 44.6286 65.6416C44.3463 67.0815 43.9362 69.1454 43.3983 71.833C42.8605 74.5207 42.5191 76.2113 42.3742 76.9049C42.3321 77.1801 42.2595 77.6212 42.1563 78.2281C42.0531 78.8351 41.9691 79.2912 41.9043 79.5965C41.7631 80.3165 41.4396 80.7928 40.9337 81.0255C40.2517 80.7713 39.4981 80.4867 38.6729 80.1718C38.5541 79.3268 38.5862 78.501 38.769 77.6944C38.8301 77.3626 38.9029 76.8744 38.9873 76.2297C39.0717 75.585 39.1501 75.1364 39.2223 74.8839C39.2797 74.5258 39.5334 73.2177 39.9836 70.9598C40.4337 68.7018 40.7506 66.981 40.9343 65.7972C41.4504 62.7625 41.8188 59.9236 42.0398 57.2805C42.1286 56.3794 42.2802 53.5305 42.4948 48.734C42.529 48.5945 42.5259 48.3324 42.4853 47.9477C42.4446 47.5629 42.4378 47.2744 42.4646 47.0821C42.4914 46.8898 42.6636 45.8154 42.981 43.8589C43.0565 43.8213 43.1377 43.7763 43.2246 43.7237C43.3114 43.6711 43.387 43.6335 43.4511 43.611C43.5153 43.5886 43.5728 43.567 43.6238 43.5464C43.6748 43.5257 43.7248 43.4985 43.7739 43.4647C44.1019 43.4994 44.423 43.6764 44.7372 43.9958C45.0514 44.3152 45.2194 44.6484 45.2412 44.9954C45.3154 45.5235 45.335 46.0459 45.2999 46.5625C45.3027 46.966 45.2738 47.6702 45.213 48.6751C45.1523 49.68 45.1194 50.4521 45.1144 50.9914C45.1219 51.0442 45.1961 51.5723 45.3371 52.5758C45.6701 52.0712 45.8348 51.8057 45.8311 51.7793C46.3424 50.8188 46.7486 50.0683 47.0496 49.5278C47.3506 48.9873 47.7632 48.3302 48.2873 47.5564C48.8113 46.7826 49.3305 46.1172 49.8446 45.5602C50.3588 45.0032 50.9464 44.4898 51.6074 44.0199C52.1211 43.6515 52.5684 43.4809 52.9492 43.5082C53.3301 43.5354 53.7255 43.7626 54.1356 44.1897C54.4781 44.5185 54.843 44.9116 55.2304 45.3688ZM72.0489 42.6012C72.2798 43.8613 72.1584 45.0094 71.6847 46.0454C70.5969 48.4603 69.2763 50.3693 67.7232 51.7724C66.7935 52.6302 65.8418 53.2352 64.868 53.5875C63.8942 53.9398 62.94 53.9998 62.0052 53.7676C61.0705 53.5355 60.2646 53.0226 59.5876 52.2291C59.076 51.6548 58.6999 51.1825 58.4594 50.8124C57.9371 49.9702 57.838 48.7858 58.162 47.2592C58.5318 45.4838 59.3291 43.9714 60.5539 42.7221C60.603 42.6883 60.6701 42.5914 60.7553 42.4313C60.8405 42.2712 60.9191 42.1592 60.9908 42.0952C61.675 41.4066 62.1172 41.0079 62.3173 40.899C63.6579 40.0912 64.7944 40.3219 65.7268 41.5912C65.7305 41.6176 65.7662 41.6799 65.8338 41.7781C65.9015 41.8763 65.9655 41.9481 66.0257 41.9935C66.4057 42.3979 66.6639 42.8463 66.8005 43.3388C66.937 43.8312 66.9567 44.3065 66.8594 44.7645C66.7622 45.2224 66.601 45.6558 66.3757 46.0644C66.1503 46.4731 65.8714 46.8354 65.5388 47.1515C64.1024 48.619 62.5132 49.2867 60.7712 49.1545C60.7712 49.1545 60.6523 49.1712 60.4147 49.2046C60.3189 49.8644 60.3518 50.3377 60.5133 50.6247C60.6748 50.9117 61.0326 51.1105 61.5867 51.2211C62.5291 51.4118 63.3816 51.3459 64.1441 51.0233C65.337 50.5055 66.4515 49.6218 67.4877 48.3721C69.2612 46.2379 70.3257 44.1359 70.6811 42.0663C70.6774 42.0399 70.7967 41.8346 71.0389 41.4505C71.5893 41.5347 71.926 41.9183 72.0489 42.6012ZM64.0439 42.8375C62.7899 43.687 61.8689 44.8936 61.2808 46.4573C62.2995 46.2334 63.0708 45.7816 63.5947 45.1021C64.1185 44.4226 64.2683 43.6677 64.0439 42.8375ZM84.8877 41.1199C85.6592 41.8194 85.8952 42.5402 85.5955 43.2825C85.3756 43.825 85.1371 44.2356 84.88 44.514C84.086 45.3796 83.1448 46.3467 82.0563 47.4153C81.3721 48.1038 80.355 48.4353 79.005 48.4096C78.8242 48.2734 78.6474 48.1165 78.4743 47.9389C78.3012 47.7612 78.1518 47.5601 78.0259 47.3354C77.9001 47.1107 77.7997 46.9229 77.7246 46.7719C77.6495 46.6208 77.5623 46.384 77.4631 46.0613C77.3639 45.7387 77.2985 45.5122 77.2667 45.3821C77.2349 45.2519 77.1723 44.9981 77.0789 44.6208C76.9855 44.2434 76.9314 44.002 76.9165 43.8963C76.4176 44.3704 75.7916 45.1854 75.0385 46.3415C73.907 48.0624 73.241 49.0716 73.0404 49.369C72.5032 50.1447 71.9723 50.5828 71.4479 50.6835C71.169 50.615 70.9128 50.4692 70.6795 50.2461C70.4462 50.0231 70.2196 49.752 69.9997 49.4328C69.7798 49.1137 69.5927 48.8841 69.4384 48.7443C69.4995 48.4125 69.5722 47.9715 69.6564 47.421C69.7406 46.8706 69.8162 46.4022 69.883 46.0158C69.9499 45.6294 70.0301 45.194 70.1236 44.7096C70.2171 44.2252 70.302 43.7757 70.3784 43.3611C70.4469 43.0821 70.4992 42.8795 70.5353 42.7533C70.5714 42.627 70.6416 42.4556 70.7458 42.239C70.85 42.0224 70.989 41.8615 71.1627 41.7563C71.3364 41.6511 71.5685 41.5781 71.859 41.5372C72.4535 42.1269 72.7891 42.9819 72.8657 44.1021C74.4734 41.9373 75.3813 40.7325 75.5892 40.4879C75.9107 40.0926 76.3867 39.743 77.0171 39.4389C77.6967 39.1011 78.2583 39.2645 78.7018 39.9293C79.5211 41.1605 79.8406 42.4756 79.6601 43.8743C79.6412 43.9308 79.6419 44.4154 79.6625 45.3281C80.508 45.0208 81.4731 44.3196 82.5579 43.2247C83.6428 42.1297 84.4194 41.4281 84.8877 41.1199ZM107.755 20.1736C107.974 18.2847 107.981 16.318 107.774 14.2735C107.619 12.7873 107.501 11.848 107.418 11.4556C107.4 11.3235 107.346 11.1829 107.258 11.0338C107.17 10.8846 107.067 10.7241 106.948 10.5522C106.83 10.3804 106.752 10.2567 106.714 10.1812C105.602 10.1221 104.671 10.5895 103.922 11.5834C102.613 13.3831 101.726 14.733 101.26 15.6333C98.6882 20.5188 96.7754 25.0154 95.5216 29.1232C95.3012 29.8544 95.0247 30.7617 94.6923 31.8451C94.3599 32.9286 94.073 33.8576 93.8318 34.632C93.5905 35.4065 93.3246 36.2921 93.0338 37.2889C92.743 38.2858 92.4685 39.2063 92.2101 40.0504C90.9855 44.5581 90.3176 48.9067 90.2062 53.0963C90.1554 53.8844 90.2358 55.031 90.4473 56.5362C90.5624 57.3548 90.9248 58.0175 91.5346 58.5242C92.6437 58.3684 93.7421 57.9447 94.8298 57.2533C95.9439 56.5581 96.9743 55.7468 97.9211 54.8194C98.8679 53.8919 99.9312 52.7394 101.111 51.3618C102.06 50.2589 103.083 48.964 104.18 47.4768C105.277 45.9897 106.093 44.8517 106.629 44.0628C107.164 43.2739 108.089 41.8986 109.402 39.9367C109.78 39.3719 110.387 38.6134 111.223 37.6612C111.759 37.0741 112.326 36.7925 112.922 36.8165C113.35 37.5642 113.408 38.4581 113.097 39.4982C112.515 41.3033 111.525 43.166 110.125 45.0861C109.898 45.3873 109.622 45.7695 109.297 46.2326C108.971 46.6957 108.69 47.0854 108.451 47.4017C108.213 47.7179 107.936 48.0934 107.62 48.5283C107.304 48.9632 107.016 49.3538 106.755 49.7001C106.494 50.0465 106.21 50.423 105.904 50.8296C105.597 51.2362 105.307 51.6136 105.033 51.9618C104.758 52.31 104.466 52.6742 104.156 53.0544C103.846 53.4346 103.541 53.8007 103.24 54.1526C102.939 54.5045 102.627 54.8649 102.301 55.2338C100.301 57.4807 97.9118 59.3514 95.1327 60.8461C93.3089 61.8564 91.7272 61.7152 90.3876 60.4223C90.3273 60.377 90.0036 60.133 89.4163 59.6904C88.829 59.2478 88.4301 58.8528 88.2197 58.5054C88.1747 58.3771 88.0743 58.1892 87.9183 57.9419C87.7624 57.6945 87.6366 57.4698 87.5409 57.2678C87.4451 57.0659 87.3711 56.8743 87.3187 56.6932C86.8675 54.4407 86.747 52.7207 86.9571 51.5333C87.0524 51.0621 87.1172 50.373 87.1513 49.4661C87.1854 48.5592 87.2293 47.9135 87.283 47.529C87.7817 43.7965 88.5517 40.1741 89.593 36.6617C90.5926 33.2359 91.8479 29.3299 93.3588 24.9436C94.0497 22.9614 95.2609 20.1791 96.9925 16.5966C98.2809 13.8842 99.6154 11.5962 100.996 9.73261C101.67 8.77624 102.684 7.94698 104.04 7.24484C105.07 6.72297 106.278 6.98405 107.664 8.02806C110.039 9.79462 111.094 12.1239 110.827 15.0158C110.754 15.6454 110.653 16.3127 110.523 17.0177C110.393 17.7226 110.229 18.5198 110.031 19.4094C109.833 20.299 109.697 20.9643 109.625 21.4053C109.529 21.8765 109.379 22.6248 109.173 23.6501C109.146 23.6538 109.1 23.6603 109.034 23.6696C108.968 23.6789 108.914 23.6797 108.873 23.672C108.831 23.6644 108.784 23.6643 108.731 23.6717C108.679 23.6791 108.638 23.6781 108.61 23.6686C108.582 23.6591 108.552 23.643 108.522 23.6203C108.108 23.1668 107.883 22.8081 107.846 22.544C107.697 21.6763 107.667 20.8861 107.755 20.1736ZM126.133 38.272C125.96 39.535 125.866 40.2079 125.851 40.2909C125.582 42.4022 125.812 44.228 126.54 45.7683C126.555 45.8739 126.567 45.9597 126.576 46.0258C126.585 46.0918 126.574 46.2011 126.541 46.3538C126.509 46.5064 126.485 46.6242 126.47 46.7072C125.535 46.7578 124.906 46.4019 124.583 45.6394C124.504 45.462 124.065 44.3522 123.267 42.3102C123.051 42.502 122.78 42.7758 122.453 43.1314C122.126 43.487 121.857 43.774 121.645 43.9922C121.433 44.2105 121.151 44.4522 120.798 44.7172C120.445 44.9823 120.109 45.1842 119.792 45.3231C119.475 45.4619 119.099 45.5619 118.663 45.6231C118.227 45.6844 117.776 45.6805 117.308 45.6116C116.263 44.1158 115.705 43.3056 115.634 43.181C115.006 42.1651 115.101 40.9264 115.919 39.4651C116.438 38.5574 117.18 37.5106 118.144 36.3249C118.953 35.3764 119.805 34.7315 120.7 34.3904C121.209 34.1841 121.699 34.1692 122.168 34.3456C122.637 34.5221 123.024 34.8312 123.328 35.2732C123.332 35.2996 123.512 35.6243 123.869 36.2474C124.005 36.2552 124.23 36.2774 124.545 36.314C124.86 36.3505 125.111 36.369 125.3 36.3694C125.416 36.6224 125.576 36.9904 125.778 37.4736C125.981 37.9568 126.099 38.2229 126.133 38.272ZM122.484 38.4617C122.801 38.0401 122.818 37.4857 122.533 36.7987C121.967 36.986 121.273 37.4671 120.453 38.2422C119.633 39.0172 119.007 39.7851 118.576 40.5459C118.08 41.4235 117.886 42.1509 117.994 42.7281C118.284 42.6873 118.443 42.665 118.469 42.6613C120.184 41.2623 121.523 39.8624 122.484 38.4617ZM145.425 29.8249C145.425 29.8249 145.625 29.9045 146.024 30.0638C146.023 30.6295 145.773 31.0551 145.274 31.3406C144.251 31.9152 143.677 32.2383 143.552 32.3096C141.114 33.3525 138.302 34.9998 135.118 37.2516C135.095 37.2817 134.859 37.5168 134.409 37.9571C135.909 38.4734 137.24 39.323 138.403 40.5061C139.468 41.5682 140.011 43.0402 140.034 44.9221C140.047 47.1283 139.538 49.5427 138.507 52.1651C137.259 55.3565 135.79 57.7442 134.101 59.328C134.006 59.4221 133.406 59.8431 132.299 60.5911C131.857 60.8955 131.361 60.9114 130.811 60.6386C129.647 60.0212 128.877 59.5236 128.501 59.1456C128.377 59.0284 128.274 58.8745 128.194 58.6839C128.113 58.4932 128.028 58.2224 127.938 57.8715C127.848 57.5206 127.787 57.3206 127.753 57.2715C127.697 57.0639 127.68 56.7565 127.704 56.3493C127.708 55.9986 127.716 55.3848 127.728 54.508C127.739 53.6312 127.761 52.8742 127.792 52.2369C127.824 51.5997 127.867 50.9945 127.921 50.4214C128.225 47.6049 128.663 44.3928 129.233 40.7851C129.397 39.8464 129.895 37.1643 130.727 32.7387C130.762 32.5993 130.806 32.4381 130.861 32.2554C130.916 32.0726 130.972 31.8898 131.027 31.707C131.082 31.5242 131.126 31.3631 131.161 31.2237C131.176 31.1407 131.304 30.4226 131.545 29.0693C131.785 27.7159 132.006 26.702 132.208 26.0274C132.276 25.7485 132.388 25.0595 132.543 23.9606C132.699 22.8616 132.913 22.0371 133.185 21.4871C133.148 21.2231 133.148 20.9336 133.185 20.6188C133.221 20.304 133.258 20.0429 133.297 19.8356C133.335 19.6282 133.396 19.3437 133.48 18.9818C133.563 18.62 133.62 18.3561 133.651 18.1902C134.059 16.3018 134.496 14.9074 134.962 14.0071C135.128 13.6606 135.395 13.4009 135.761 13.2283C136.127 13.0557 136.478 13.0131 136.813 13.1006C137.175 13.1844 137.526 13.4312 137.867 13.8412C138.207 14.2511 138.375 14.6315 138.371 14.9822C138.371 14.9822 138.308 15.1122 138.183 15.3721C137.889 15.3865 137.593 15.3877 137.295 15.3757C137.185 15.5527 137.095 15.7269 137.025 15.8984C136.955 16.0698 136.886 16.2544 136.82 16.4523C136.754 16.6501 136.704 16.8254 136.672 16.978C136.639 17.1307 136.6 17.3314 136.554 17.5802C136.509 17.829 136.48 18.0081 136.468 18.1174C136.251 19.0635 136.015 20.2547 135.759 21.691C135.724 22.019 135.659 22.5129 135.563 23.1726C135.467 23.8324 135.4 24.3131 135.362 24.6147C135.331 24.7805 135.301 24.9464 135.27 25.1123C135.24 25.2781 135.208 25.4374 135.176 25.5901C135.143 25.7427 135.106 25.9095 135.064 26.0904C135.022 26.2714 134.992 26.4372 134.973 26.588C134.953 26.7388 134.922 26.8981 134.878 27.0658C134.834 27.2335 134.797 27.4003 134.767 27.5662C134.301 30.0014 133.923 32.0068 133.633 33.5825C133.614 33.6391 133.492 34.3968 133.266 35.8558C134.792 34.8334 135.592 34.3035 135.668 34.266C137.9 32.7135 140.432 31.3748 143.263 30.2499C143.569 30.1261 144.289 29.9845 145.425 29.8249ZM136.201 41.2195C135.252 40.7874 133.957 40.5789 132.316 40.5941C132.243 41.0351 132.121 41.6986 131.95 42.5844C131.778 43.4703 131.638 44.2506 131.531 44.9254C131.424 45.6003 131.332 46.2393 131.255 46.8425C131.002 48.8709 130.76 51.6516 130.529 55.1847C130.474 56.3235 130.625 57.2044 130.982 57.8275C131.408 57.606 131.635 57.4934 131.661 57.4896C132.757 56.4739 133.693 55.1844 134.47 53.6211C135.375 51.8242 136.047 50.1815 136.484 48.6928C136.849 47.4567 137.082 46.1448 137.183 44.7573C137.271 44.2333 137.247 43.6307 137.111 42.9497C136.974 42.2687 136.671 41.692 136.201 41.2195ZM158.915 30.3929C159.146 31.653 159.025 32.8011 158.551 33.8371C157.463 36.252 156.143 38.161 154.59 39.5642C153.66 40.4219 152.708 41.0269 151.734 41.3792C150.761 41.7315 149.806 41.7915 148.872 41.5594C147.937 41.3272 147.131 40.8144 146.454 40.0209C145.942 39.4465 145.566 38.9742 145.326 38.6041C144.803 37.7619 144.704 36.5775 145.028 35.0509C145.398 33.2755 146.195 31.7631 147.42 30.5139C147.469 30.48 147.536 30.3831 147.622 30.223C147.707 30.0629 147.785 29.9509 147.857 29.887C148.541 29.1984 148.983 28.7996 149.184 28.6907C150.524 27.8829 151.661 28.1137 152.593 29.3829C152.597 29.4093 152.633 29.4717 152.7 29.5699C152.768 29.6681 152.832 29.7399 152.892 29.7853C153.272 30.1896 153.53 30.6381 153.667 31.1305C153.803 31.623 153.823 32.0982 153.726 32.5562C153.629 33.0142 153.467 33.4475 153.242 33.8562C153.017 34.2648 152.738 34.6272 152.405 34.9432C150.969 36.4107 149.38 37.0784 147.637 36.9462C147.637 36.9462 147.519 36.9629 147.281 36.9963C147.185 37.6561 147.218 38.1294 147.38 38.4164C147.541 38.7034 147.899 38.9022 148.453 39.0128C149.395 39.2035 150.248 39.1376 151.01 38.815C152.203 38.2973 153.318 37.4136 154.354 36.1639C156.128 34.0296 157.192 31.9277 157.547 29.858C157.544 29.8316 157.663 29.6264 157.905 29.2423C158.456 29.3265 158.792 29.71 158.915 30.3929ZM150.91 30.6293C149.656 31.4787 148.735 32.6853 148.147 34.2491C149.166 34.0251 149.937 33.5734 150.461 32.8938C150.985 32.2143 151.135 31.4595 150.91 30.6293Z" fill="#222222"/>
<path d="M74 80.78H76.73V79.73H74V80.78ZM84.24 83.26C84.82 83.26 85.38 82.94 85.79 82.54H85.82L85.94 83.12H87.13V75.14H85.66V77.11L85.72 77.99C85.32 77.62 84.93 77.38 84.3 77.38C83.09 77.38 81.95 78.5 81.95 80.33C81.95 82.16 82.85 83.26 84.24 83.26ZM84.62 82.05C83.88 82.05 83.46 81.47 83.46 80.31C83.46 79.19 83.99 78.59 84.62 78.59C84.97 78.59 85.32 78.7 85.66 79.01V81.47C85.34 81.89 85.01 82.05 84.62 82.05ZM89.71 83.12H91.17V77.52H89.71V83.12ZM90.45 76.62C90.95 76.62 91.32 76.28 91.32 75.82C91.32 75.34 90.95 75.02 90.45 75.02C89.94 75.02 89.57 75.34 89.57 75.82C89.57 76.28 89.94 76.62 90.45 76.62ZM95.35 83.26C96.81 83.26 97.58 82.47 97.58 81.49C97.58 80.45 96.76 80.08 96.02 79.8C95.43 79.58 94.88 79.43 94.88 79.02C94.88 78.7 95.12 78.48 95.62 78.48C96.04 78.48 96.43 78.68 96.83 78.96L97.49 78.07C97.02 77.72 96.4 77.38 95.58 77.38C94.32 77.38 93.5 78.09 93.5 79.1C93.5 80.03 94.32 80.46 95.03 80.73C95.62 80.96 96.2 81.15 96.2 81.57C96.2 81.92 95.95 82.16 95.39 82.16C94.87 82.16 94.39 81.94 93.89 81.55L93.22 82.47C93.77 82.93 94.6 83.26 95.35 83.26ZM99.7 83.12H101.16V79.27C101.58 78.86 101.87 78.64 102.33 78.64C102.88 78.64 103.12 78.95 103.12 79.81V83.12H104.59V79.63C104.59 78.22 104.07 77.38 102.86 77.38C102.1 77.38 101.55 77.78 101.1 78.2L101.16 77.15V75.14H99.7V83.12ZM111.28 81.07C111.28 80.67 111.53 80.34 111.89 80.03C112.36 80.65 112.93 81.24 113.56 81.76C113.21 81.99 112.84 82.13 112.48 82.13C111.77 82.13 111.28 81.7 111.28 81.07ZM112.02 77.46C112.02 76.91 112.33 76.56 112.76 76.56C113.15 76.56 113.32 76.83 113.32 77.2C113.32 77.74 112.87 78.1 112.29 78.45C112.12 78.1 112.02 77.77 112.02 77.46ZM116.77 82.06C116.39 81.99 115.94 81.8 115.46 81.53C116.03 80.76 116.44 79.9 116.71 78.99H115.38C115.18 79.72 114.86 80.35 114.47 80.87C113.88 80.42 113.31 79.88 112.87 79.33C113.66 78.78 114.46 78.17 114.46 77.19C114.46 76.22 113.79 75.58 112.74 75.58C111.55 75.58 110.8 76.43 110.8 77.46C110.8 77.95 110.97 78.5 111.27 79.06C110.53 79.53 109.88 80.13 109.88 81.16C109.88 82.31 110.75 83.26 112.3 83.26C113.21 83.26 113.96 82.96 114.57 82.48C115.19 82.87 115.83 83.13 116.41 83.26L116.77 82.06ZM124.41 83.26C125.03 83.26 125.71 83.05 126.24 82.58L125.66 81.61C125.35 81.87 124.97 82.06 124.57 82.06C123.76 82.06 123.18 81.38 123.18 80.33C123.18 79.27 123.76 78.58 124.61 78.58C124.93 78.58 125.19 78.71 125.47 78.95L126.17 78C125.76 77.65 125.23 77.38 124.54 77.38C123.02 77.38 121.68 78.46 121.68 80.33C121.68 82.18 122.86 83.26 124.41 83.26ZM130.34 83.26C131.74 83.26 133.03 82.18 133.03 80.33C133.03 78.46 131.74 77.38 130.34 77.38C128.94 77.38 127.65 78.46 127.65 80.33C127.65 82.18 128.94 83.26 130.34 83.26ZM130.34 82.06C129.58 82.06 129.15 81.38 129.15 80.33C129.15 79.27 129.58 78.58 130.34 78.58C131.1 78.58 131.53 79.27 131.53 80.33C131.53 81.38 131.1 82.06 130.34 82.06ZM138.47 75.2C138.22 75.1 137.84 75 137.41 75C136 75 135.46 75.9 135.46 77.07V77.53L134.71 77.59V78.68H135.46V83.12H136.93V78.68H137.98V77.52H136.93V77.04C136.93 76.42 137.17 76.16 137.61 76.16C137.79 76.16 138.01 76.21 138.2 76.28L138.47 75.2ZM143.19 75.2C142.94 75.1 142.56 75 142.13 75C140.72 75 140.18 75.9 140.18 77.07V77.53L139.43 77.59V78.68H140.18V83.12H141.65V78.68H142.7V77.52H141.65V77.04C141.65 76.42 141.89 76.16 142.33 76.16C142.51 76.16 142.73 76.21 142.92 76.28L143.19 75.2ZM146.96 83.26C147.66 83.26 148.37 83.02 148.92 82.64L148.42 81.74C148.02 81.99 147.62 82.13 147.16 82.13C146.33 82.13 145.73 81.65 145.61 80.73H149.06C149.1 80.6 149.13 80.33 149.13 80.06C149.13 78.51 148.33 77.38 146.79 77.38C145.45 77.38 144.18 78.51 144.18 80.33C144.18 82.17 145.4 83.26 146.96 83.26ZM145.59 79.76C145.7 78.94 146.22 78.52 146.81 78.52C147.53 78.52 147.87 79 147.87 79.76H145.59ZM153.77 83.26C154.47 83.26 155.18 83.02 155.73 82.64L155.23 81.74C154.83 81.99 154.43 82.13 153.97 82.13C153.14 82.13 152.54 81.65 152.42 80.73H155.87C155.91 80.6 155.94 80.33 155.94 80.06C155.94 78.51 155.14 77.38 153.6 77.38C152.26 77.38 150.99 78.51 150.99 80.33C150.99 82.17 152.21 83.26 153.77 83.26ZM152.4 79.76C152.51 78.94 153.03 78.52 153.62 78.52C154.34 78.52 154.68 79 154.68 79.76H152.4ZM161.12 80.78H163.85V79.73H161.12V80.78Z" fill="#222222"/>
</svg>
