<svg width="121" height="64" viewBox="0 0 121 64" fill="none" xmlns="http://www.w3.org/2000/svg">
<path d="M29.1095 20.4229C29.1395 20.6381 29.1984 21.0237 29.2859 21.5798C29.3735 22.1359 29.4378 22.5607 29.4788 22.8541C29.5198 23.1475 29.5474 23.5226 29.5616 23.9794C29.5759 24.4362 29.552 24.8684 29.49 25.2761C29.4842 25.3767 29.4113 25.9904 29.2714 27.1173C29.1314 28.2441 28.9914 29.0867 28.8513 29.6451C28.0252 32.8139 26.5768 36.1404 24.5062 39.6248C22.706 42.6321 20.8623 45.1867 18.9753 47.2887C17.6393 48.7942 16.3178 50.0483 15.0107 51.0509C13.9928 51.8531 13.0725 52.4321 12.25 52.7878C11.6525 53.0518 10.9774 53.257 10.2247 53.4033C9.3165 53.5716 8.48153 53.2708 7.7198 52.5009C7.62565 52.3945 7.49338 52.2636 7.323 52.1082C7.15261 51.9527 6.99817 51.805 6.85967 51.665C6.72117 51.525 6.60348 51.3921 6.5066 51.2662C6.13851 50.7597 5.90223 50.2745 5.79779 49.8105C5.63292 49.0559 5.56603 47.9383 5.59714 46.4578C5.62604 45.9551 5.67862 45.4091 5.75491 44.8198C5.8312 44.2305 5.91841 43.7195 6.01656 43.2868C6.1147 42.854 6.2367 42.3081 6.38256 41.6492C6.5284 40.9903 6.63506 40.4765 6.70252 40.1079C6.71376 40.0465 6.88861 39.4533 7.22708 38.3282C7.08858 38.1882 6.90788 37.9944 6.68495 37.7466C6.46202 37.4989 6.26399 37.2876 6.09088 37.1126C5.91775 36.9376 5.75223 36.7815 5.59429 36.6442C5.25625 36.3529 5.02665 35.9864 4.90549 35.5448C4.78434 35.1031 4.74504 34.6798 4.78759 34.2749C4.76973 33.5792 4.84565 32.8454 5.01536 32.0734C5.18506 31.3014 5.37533 30.6411 5.58618 30.0927C5.79701 29.5443 6.07409 28.8668 6.41738 28.0602C7.54751 25.5067 9.03698 23.0421 10.8858 20.6662C12.3114 18.809 13.8404 17.2663 15.4728 16.0381C16.7826 15.0549 18.1611 14.4212 19.6081 14.1368C21.9968 13.6394 24.1181 14.1373 25.9721 15.6305C27.0196 16.4597 27.861 17.5874 28.4963 19.0136C28.5294 19.1086 28.5874 19.2401 28.6703 19.4079C28.7533 19.5757 28.8113 19.7071 28.8444 19.8022C29.0074 20.1182 29.0958 20.3251 29.1095 20.4229ZM27.536 23.847C27.539 23.7269 27.5403 23.4524 27.5399 23.0236C27.5395 22.5948 27.5312 22.2868 27.5149 22.0996C27.4987 21.9124 27.4722 21.6518 27.4355 21.3179C27.3988 20.984 27.3418 20.6829 27.2647 20.4145C27.1876 20.1462 27.091 19.8806 26.975 19.6177C26.9252 19.545 26.8975 19.489 26.8921 19.4499C26.7694 18.43 26.1467 17.5905 25.0238 16.9315C23.0608 15.7928 20.9969 15.7057 18.832 16.6701C17.4508 17.2843 15.956 18.4332 14.3476 20.1168C12.8281 21.728 11.4037 23.6648 10.0743 25.9273C8.32968 28.9068 7.1977 31.6601 6.6784 34.187C6.56323 34.7818 6.68954 35.4022 7.05733 36.0483C7.23985 36.3616 7.50196 36.4642 7.84369 36.356C8.10072 35.6415 8.23622 35.2633 8.25019 35.2214C8.32553 35.0512 8.52437 34.5942 8.8467 33.8504C9.16904 33.1067 9.41117 32.5339 9.57309 32.132C10.2825 30.2564 11.3655 28.288 12.8221 26.2269C13.2204 25.6719 13.7445 25.3086 14.3945 25.1369C14.486 25.2237 14.5933 25.3182 14.7166 25.4205C14.8399 25.5227 14.9743 25.6334 15.1198 25.7524C15.2653 25.8715 15.3935 25.973 15.5043 26.0571C15.4873 26.2191 15.4723 26.4306 15.4592 26.6918C15.4461 26.953 15.438 27.1436 15.435 27.2637C15.3351 27.2579 15.2143 27.2451 15.0728 27.2252C14.9312 27.2053 14.8216 27.2009 14.7438 27.2119C13.6991 28.8157 12.6858 30.6446 11.704 32.6984C10.7221 34.7521 10.2652 36.0934 10.3331 36.7221C10.9054 36.5614 11.211 36.4783 11.2499 36.4728C12.7191 36.2051 14.2486 35.6597 15.8385 34.8365C16.3193 34.5889 17.6064 33.8684 19.6996 32.6747C20.5252 32.1989 21.2502 31.9967 21.8747 32.0679C22.0095 32.6074 21.9044 33.0611 21.5593 33.429C20.7716 34.3184 20.179 34.9009 19.7814 35.1765C18.3716 36.1538 16.6441 37.0564 14.599 37.8842C13.1735 38.4647 11.4515 38.7681 9.43314 38.7942C9.30188 39.1319 9.23763 39.3106 9.24036 39.3301C8.62785 41.3317 8.15809 43.4327 7.83108 45.6333C7.61682 47.0798 7.57527 48.2726 7.70641 49.2115C7.78322 49.6195 7.968 50.1619 8.26076 50.8386C8.45694 51.2497 8.82157 51.4474 9.35464 51.4319C10.107 51.4252 10.9197 51.1408 11.7927 50.5785C14.0864 49.1171 16.1297 47.2822 17.9226 45.0739C20.0216 42.5031 21.736 40.0166 23.0657 37.6144C24.6964 34.6709 25.8433 32.0951 26.5062 29.887C26.5567 29.6804 26.624 29.3816 26.7081 28.9907C26.7923 28.5998 26.854 28.3318 26.8932 28.1866C27.3553 26.3859 27.5696 24.9393 27.536 23.847ZM40.2236 33.5722C40.5808 34.0005 40.7043 34.6014 40.5943 35.3749C40.2959 37.2124 39.4482 38.8782 38.0511 40.3723C38.0177 40.4169 37.7074 40.75 37.1202 41.3716C36.9258 41.3991 36.7315 41.3917 36.5373 41.3494C36.343 41.307 36.1925 41.2585 36.0858 41.2038C35.979 41.149 35.8106 41.0432 35.5805 40.8862C35.3504 40.7293 35.2035 40.6354 35.1397 40.6045C35.1574 40.1631 35.4081 39.7587 35.892 39.391C37.1408 38.3966 38.0077 36.8677 38.4926 34.8044C38.1172 35.0969 37.9197 35.2445 37.9003 35.2472C36.848 36.5131 35.8587 38.159 34.9324 40.185C33.8974 42.4258 33.0596 45.2272 32.419 48.5891C32.2112 49.6558 31.9093 51.1845 31.5134 53.1754C31.1174 55.1663 30.8661 56.4186 30.7595 56.9324C30.7285 57.1362 30.675 57.4629 30.599 57.9125C30.523 58.3621 30.4612 58.7 30.4135 58.9261C30.3096 59.4595 30.0714 59.8123 29.699 59.9846C29.1969 59.7963 28.6421 59.5855 28.0347 59.3523C27.9473 58.7263 27.9708 58.1146 28.1055 57.5171C28.1504 57.2714 28.204 56.9098 28.2661 56.4322C28.3283 55.9547 28.386 55.6224 28.4391 55.4353C28.4814 55.17 28.6682 54.2011 28.9996 52.5285C29.3309 50.856 29.5642 49.5813 29.6995 48.7044C30.0793 46.4565 30.3506 44.3536 30.5132 42.3957C30.5786 41.7282 30.6903 39.618 30.8482 36.065C30.8734 35.9617 30.8711 35.7675 30.8412 35.4825C30.8113 35.1975 30.8062 34.9838 30.826 34.8414C30.8457 34.699 30.9724 33.9031 31.2061 32.4538C31.2617 32.426 31.3215 32.3926 31.3854 32.3536C31.4494 32.3147 31.505 32.2869 31.5522 32.2702C31.5994 32.2536 31.6418 32.2376 31.6793 32.2223C31.7168 32.207 31.7537 32.1869 31.7898 32.1618C32.0313 32.1875 32.2677 32.3186 32.4989 32.5552C32.7302 32.7918 32.8539 33.0386 32.87 33.2957C32.9246 33.6869 32.939 34.0738 32.9132 34.4565C32.9153 34.7554 32.894 35.277 32.8493 36.0214C32.8045 36.7657 32.7804 37.3377 32.7767 37.7371C32.7821 37.7762 32.8368 38.1675 32.9406 38.9108C33.1858 38.537 33.307 38.3403 33.3042 38.3208C33.6806 37.6093 33.9796 37.0534 34.2012 36.653C34.4229 36.2526 34.7266 35.7659 35.1124 35.1927C35.4982 34.6195 35.8803 34.1266 36.2588 33.714C36.6373 33.3015 37.0699 32.9211 37.5565 32.5731C37.9347 32.3002 38.264 32.1738 38.5443 32.194C38.8247 32.2142 39.1158 32.3825 39.4177 32.6988C39.6698 32.9424 39.9384 33.2336 40.2236 33.5722ZM52.6047 31.5222C52.7747 32.4556 52.6853 33.306 52.3365 34.0734C51.5357 35.8622 50.5636 37.2763 49.4203 38.3157C48.7359 38.9511 48.0352 39.3992 47.3184 39.6602C46.6015 39.9211 45.8991 39.9656 45.2109 39.7936C44.5228 39.6216 43.9296 39.2418 43.4312 38.654C43.0546 38.2285 42.7777 37.8787 42.6007 37.6045C42.2162 36.9807 42.1432 36.1034 42.3817 34.9725C42.654 33.6574 43.2409 32.5372 44.1425 31.6118C44.1787 31.5867 44.2281 31.5149 44.2908 31.3963C44.3536 31.2777 44.4114 31.1948 44.4642 31.1474C44.9679 30.6373 45.2933 30.342 45.4407 30.2613C46.4276 29.6629 47.2642 29.8338 47.9506 30.774C47.9533 30.7936 47.9796 30.8398 48.0294 30.9125C48.0792 30.9852 48.1263 31.0384 48.1706 31.0721C48.4504 31.3716 48.6405 31.7038 48.741 32.0685C48.8415 32.4333 48.856 32.7853 48.7844 33.1246C48.7129 33.4638 48.5941 33.7848 48.4283 34.0875C48.2624 34.3903 48.0571 34.6587 47.8122 34.8928C46.7548 35.9798 45.5849 36.4744 44.3025 36.3765C44.3025 36.3765 44.215 36.3888 44.04 36.4136C43.9695 36.9023 43.9937 37.2529 44.1126 37.4655C44.2315 37.6781 44.4949 37.8254 44.9029 37.9073C45.5966 38.0486 46.2241 37.9997 46.7855 37.7608C47.6636 37.3773 48.4841 36.7227 49.2469 35.7969C50.5525 34.216 51.3361 32.659 51.5978 31.126C51.595 31.1064 51.6828 30.9544 51.8612 30.6698C52.2664 30.7322 52.5142 31.0163 52.6047 31.5222ZM46.7117 31.6973C45.7886 32.3265 45.1106 33.2203 44.6776 34.3786C45.4276 34.2127 45.9954 33.8781 46.381 33.3747C46.7667 32.8714 46.8769 32.3122 46.7117 31.6973ZM62.056 30.425C62.624 30.9431 62.7977 31.477 62.5771 32.0268C62.4152 32.4287 62.2396 32.7328 62.0504 32.9391C61.4659 33.5803 60.773 34.2966 59.9717 35.0882C59.468 35.5982 58.7193 35.8437 57.7254 35.8247C57.5924 35.7238 57.4622 35.6076 57.3348 35.476C57.2074 35.3444 57.0973 35.1954 57.0047 35.029C56.9121 34.8626 56.8381 34.7234 56.7829 34.6116C56.7276 34.4997 56.6634 34.3243 56.5904 34.0852C56.5174 33.8462 56.4692 33.6785 56.4458 33.5821C56.4224 33.4856 56.3763 33.2977 56.3076 33.0182C56.2388 32.7387 56.1989 32.5598 56.188 32.4815C55.8207 32.8327 55.3599 33.4364 54.8055 34.2928C53.9725 35.5675 53.4822 36.315 53.3346 36.5354C52.9391 37.11 52.5483 37.4345 52.1622 37.509C51.9569 37.4583 51.7684 37.3503 51.5966 37.1851C51.4248 37.0199 51.258 36.8191 51.0962 36.5827C50.9343 36.3462 50.7965 36.1762 50.683 36.0726C50.7279 35.8269 50.7814 35.5002 50.8434 35.0924C50.9054 34.6847 50.961 34.3378 51.0103 34.0515C51.0595 33.7653 51.1185 33.4428 51.1873 33.084C51.2562 32.7252 51.3187 32.3922 51.3749 32.085C51.4253 31.8784 51.4639 31.7284 51.4904 31.6348C51.517 31.5413 51.5687 31.4143 51.6454 31.2539C51.7221 31.0934 51.8244 30.9742 51.9523 30.8963C52.0802 30.8184 52.251 30.7643 52.4649 30.7341C52.9025 31.1709 53.1496 31.8042 53.206 32.634C54.3895 31.0304 55.0578 30.138 55.2109 29.9568C55.4475 29.664 55.7979 29.405 56.2621 29.1798C56.7624 28.9295 57.1758 29.0506 57.5022 29.543C58.1054 30.455 58.3406 31.4291 58.2077 32.4652C58.1938 32.5071 58.1943 32.866 58.2095 33.5421C58.8319 33.3145 59.5424 32.7951 60.341 31.984C61.1396 31.1729 61.7113 30.6532 62.056 30.425ZM78.89 14.9091C79.0514 13.5099 79.0561 12.0531 78.904 10.5387C78.7899 9.43779 78.7027 8.74201 78.6422 8.45134C78.6286 8.35354 78.5893 8.24939 78.5243 8.1389C78.4593 8.02841 78.3832 7.90951 78.296 7.7822C78.2089 7.6549 78.1515 7.56328 78.1238 7.50735C77.3049 7.46358 76.6198 7.8098 76.0685 8.54603C75.1049 9.87913 74.4516 10.8791 74.1086 11.546C72.2154 15.1648 70.8073 18.4957 69.8842 21.5385C69.722 22.0801 69.5185 22.7522 69.2738 23.5547C69.029 24.3573 68.8179 25.0454 68.6403 25.6191C68.4627 26.1927 68.2669 26.8488 68.0529 27.5872C67.8388 28.3256 67.6367 29.0074 67.4465 29.6327C66.545 32.9717 66.0533 36.1929 65.9713 39.2963C65.9339 39.8801 65.9931 40.7294 66.1488 41.8444C66.2335 42.4508 66.5003 42.9417 66.9492 43.317C67.7657 43.2016 68.5743 42.8878 69.375 42.3756C70.1951 41.8606 70.9537 41.2597 71.6507 40.5727C72.3477 39.8857 73.1304 39.0319 73.9989 38.0115C74.6976 37.1946 75.4507 36.2353 76.2583 35.1337C77.0659 34.0322 77.6668 33.1892 78.061 32.6048C78.4551 32.0205 79.1355 31.0017 80.1021 29.5485C80.3807 29.1301 80.8276 28.5682 81.4427 27.8629C81.8379 27.428 82.2548 27.2195 82.6934 27.2372C83.0086 27.7911 83.0516 28.4532 82.8222 29.2237C82.3944 30.5608 81.6653 31.9405 80.6349 33.3629C80.4678 33.586 80.2645 33.8691 80.025 34.2121C79.7854 34.5552 79.578 34.8438 79.4025 35.0781C79.2271 35.3123 79.0231 35.5905 78.7906 35.9126C78.558 36.2348 78.3457 36.5241 78.1535 36.7807C77.9614 37.0372 77.7526 37.3161 77.527 37.6173C77.3015 37.9185 77.0878 38.198 76.8859 38.456C76.684 38.7139 76.469 38.9837 76.2407 39.2653C76.0124 39.5469 75.7876 39.8181 75.5663 40.0788C75.345 40.3395 75.1147 40.6064 74.8753 40.8796C73.4029 42.544 71.6438 43.9298 69.598 45.0369C68.2554 45.7853 67.091 45.6807 66.1048 44.723C66.0605 44.6894 65.8221 44.5087 65.3898 44.1809C64.9574 43.853 64.6638 43.5604 64.5089 43.3031C64.4758 43.208 64.4019 43.0689 64.2871 42.8856C64.1723 42.7024 64.0796 42.536 64.0092 42.3864C63.9387 42.2367 63.8842 42.0949 63.8457 41.9607C63.5135 40.2922 63.4248 39.0181 63.5794 38.1385C63.6496 37.7895 63.6973 37.2791 63.7224 36.6073C63.7475 35.9355 63.7798 35.4572 63.8193 35.1724C64.1865 32.4076 64.7533 29.7244 65.5199 27.1226C66.2558 24.5849 67.1799 21.6916 68.2921 18.4424C68.8007 16.9742 69.6924 14.9132 70.9671 12.2595C71.9155 10.2504 72.898 8.55555 73.9144 7.17508C74.4102 6.46666 75.157 5.85239 76.1548 5.33229C76.9136 4.94572 77.803 5.13911 78.8229 5.91245C80.5717 7.22102 81.3479 8.94639 81.1516 11.0886C81.0978 11.555 81.0231 12.0492 80.9275 12.5714C80.8319 13.0936 80.7112 13.6841 80.5654 14.3431C80.4195 15.002 80.3198 15.4948 80.2664 15.8216C80.1962 16.1706 80.0853 16.7248 79.9336 17.4843C79.9142 17.4871 79.8802 17.4919 79.8316 17.4988C79.783 17.5056 79.7434 17.5062 79.7129 17.5006C79.6824 17.4949 79.6477 17.4949 79.6088 17.5004C79.5699 17.5059 79.54 17.5051 79.5192 17.4981C79.4984 17.491 79.477 17.4791 79.4548 17.4623C79.1502 17.1264 78.9842 16.8606 78.9569 16.665C78.8473 16.0222 78.825 15.4369 78.89 14.9091ZM92.4189 28.3154C92.2918 29.2509 92.2227 29.7494 92.2115 29.8108C92.0136 31.3748 92.1827 32.7272 92.7187 33.8682C92.7296 33.9464 92.7385 34.01 92.7453 34.0589C92.7521 34.1078 92.7436 34.1888 92.7198 34.3019C92.6959 34.415 92.6784 34.5022 92.6671 34.5636C91.9785 34.6012 91.5155 34.3375 91.278 33.7727C91.22 33.6413 90.8971 32.8192 90.3091 31.3066C90.1506 31.4487 89.9509 31.6515 89.7102 31.9149C89.4694 32.1784 89.2711 32.3909 89.1153 32.5526C88.9595 32.7142 88.7516 32.8933 88.4915 33.0896C88.2315 33.286 87.9848 33.4355 87.7514 33.5384C87.5179 33.6412 87.2408 33.7153 86.9201 33.7606C86.5993 33.806 86.2669 33.8032 85.9227 33.7521C85.1534 32.6441 84.7425 32.0439 84.69 31.9516C84.228 31.1991 84.2981 30.2816 84.9002 29.1991C85.2821 28.5267 85.828 27.7514 86.5379 26.8731C87.1336 26.1705 87.7607 25.6928 88.4193 25.4401C88.7944 25.2873 89.1546 25.2763 89.5 25.407C89.8453 25.5376 90.1301 25.7667 90.3542 26.094C90.3569 26.1136 90.4897 26.3541 90.7524 26.8156C90.8523 26.8215 91.0181 26.8379 91.2499 26.865C91.4816 26.892 91.6669 26.9057 91.8057 26.9061C91.8914 27.0934 92.0088 27.3661 92.1579 27.724C92.307 28.0819 92.394 28.279 92.4189 28.3154ZM89.7326 28.4559C89.9665 28.1436 89.9785 27.7329 89.7687 27.224C89.3519 27.3628 88.8417 27.7192 88.2379 28.2933C87.6342 28.8673 87.1734 29.4362 86.8557 29.9997C86.4905 30.6498 86.3477 31.1886 86.4273 31.6162C86.6411 31.586 86.7577 31.5695 86.7772 31.5667C88.0399 30.5304 89.0251 29.4935 89.7326 28.4559ZM106.621 22.0582C106.621 22.0582 106.768 22.1172 107.062 22.2352C107.061 22.6543 106.877 22.9695 106.51 23.181C105.757 23.6067 105.334 23.8459 105.243 23.8988C103.447 24.6713 101.378 25.8915 99.0336 27.5595C99.0169 27.5818 98.8429 27.756 98.5118 28.0821C99.6159 28.4645 100.596 29.0939 101.452 29.9702C102.236 30.757 102.636 31.8474 102.652 33.2414C102.662 34.8756 102.288 36.664 101.528 38.6066C100.609 40.9706 99.5282 42.7392 98.2846 43.9124C98.215 43.9821 97.7729 44.294 96.9582 44.848C96.6329 45.0735 96.2678 45.0853 95.8629 44.8832C95.0061 44.4259 94.4392 44.0573 94.1622 43.7773C94.0707 43.6905 93.9953 43.5765 93.936 43.4353C93.8766 43.2941 93.8139 43.0935 93.7479 42.8335C93.6818 42.5736 93.6363 42.4254 93.6114 42.389C93.5701 42.2353 93.5582 42.0076 93.5755 41.706C93.5789 41.4462 93.5848 40.9915 93.5932 40.3421C93.6016 39.6926 93.6174 39.1318 93.6407 38.6598C93.6639 38.1877 93.6955 37.7394 93.7353 37.3149C93.9594 35.2287 94.2812 32.8493 94.7009 30.1769C94.8218 29.4816 95.1886 27.4948 95.8013 24.2166C95.8265 24.1133 95.8594 23.994 95.8999 23.8586C95.9405 23.7232 95.981 23.5878 96.0216 23.4524C96.0622 23.317 96.0951 23.1977 96.1203 23.0944C96.1315 23.0329 96.2257 22.501 96.4029 21.4985C96.58 20.4961 96.7428 19.745 96.891 19.2453C96.9415 19.0387 97.0238 18.5283 97.1381 17.7143C97.2524 16.9003 97.4099 16.2895 97.6107 15.8821C97.5834 15.6865 97.5832 15.4721 97.6101 15.2389C97.637 15.0057 97.6645 14.8123 97.6926 14.6588C97.7207 14.5052 97.7656 14.2944 97.8273 14.0263C97.889 13.7583 97.9311 13.5629 97.9536 13.44C98.2538 12.0411 98.5754 11.0083 98.9183 10.3414C99.0411 10.0847 99.2372 9.89236 99.5068 9.76448C99.7764 9.63659 100.035 9.60506 100.282 9.66987C100.548 9.73194 100.806 9.91481 101.057 10.2185C101.308 10.5221 101.431 10.8039 101.428 11.0637C101.428 11.0637 101.382 11.1599 101.29 11.3525C101.073 11.3632 100.855 11.3641 100.636 11.3552C100.555 11.4863 100.489 11.6153 100.437 11.7423C100.386 11.8693 100.335 12.0061 100.286 12.1526C100.237 12.2992 100.201 12.429 100.177 12.5421C100.153 12.6552 100.125 12.8038 100.091 12.9881C100.057 13.1724 100.036 13.3051 100.028 13.3861C99.8677 14.0869 99.6936 14.9692 99.5052 16.0331C99.4796 16.2761 99.4316 16.6419 99.3611 17.1306C99.2906 17.6194 99.2412 17.9754 99.2129 18.1988C99.1905 18.3217 99.168 18.4446 99.1455 18.5674C99.123 18.6903 99.0998 18.8083 99.076 18.9213C99.0521 19.0344 99.0248 19.158 98.9939 19.292C98.9631 19.426 98.9406 19.5489 98.9265 19.6606C98.9123 19.7723 98.8892 19.8903 98.8569 20.0145C98.8247 20.1387 98.7974 20.2623 98.7749 20.3851C98.4321 22.189 98.1539 23.6745 97.9403 24.8417C97.9263 24.8836 97.8362 25.4449 97.67 26.5256C98.7933 25.7683 99.3827 25.3758 99.4383 25.3479C101.082 24.198 102.945 23.2064 105.029 22.3731C105.255 22.2814 105.785 22.1764 106.621 22.0582ZM99.8306 30.4987C99.1318 30.1786 98.1785 30.0242 96.9708 30.0354C96.9173 30.3621 96.8274 30.8536 96.7009 31.5098C96.5745 32.166 96.4719 32.744 96.393 33.2438C96.3142 33.7437 96.2465 34.217 96.1899 34.6639C96.0033 36.1664 95.8252 38.2262 95.6555 40.8433C95.6147 41.6869 95.7257 42.3394 95.9883 42.8009C96.3024 42.6368 96.4692 42.5534 96.4886 42.5507C97.2954 41.7983 97.9847 40.8431 98.5564 39.6851C99.223 38.3541 99.7171 37.1372 100.039 36.0345C100.307 35.1189 100.479 34.1471 100.553 33.1193C100.618 32.7311 100.6 32.2848 100.5 31.7803C100.4 31.2759 100.177 30.8487 99.8306 30.4987ZM116.552 22.479C116.722 23.4124 116.633 24.2628 116.284 25.0303C115.483 26.8191 114.511 28.2332 113.368 29.2725C112.683 29.9079 111.983 30.3561 111.266 30.617C110.549 30.878 109.846 30.9224 109.158 30.7505C108.47 30.5785 107.877 30.1986 107.378 29.6108C107.002 29.1854 106.725 28.8355 106.548 28.5614C106.163 27.9375 106.09 27.0602 106.329 25.9294C106.601 24.6143 107.188 23.494 108.09 22.5686C108.126 22.5436 108.175 22.4717 108.238 22.3532C108.301 22.2346 108.359 22.1516 108.411 22.1042C108.915 21.5942 109.241 21.2988 109.388 21.2181C110.375 20.6198 111.212 20.7907 111.898 21.7309C111.901 21.7504 111.927 21.7966 111.977 21.8693C112.027 21.9421 112.074 21.9953 112.118 22.0289C112.398 22.3284 112.588 22.6606 112.688 23.0254C112.789 23.3902 112.803 23.7422 112.732 24.0814C112.66 24.4207 112.541 24.7417 112.376 25.0444C112.21 25.3471 112.004 25.6155 111.76 25.8496C110.702 26.9367 109.532 27.4312 108.25 27.3333C108.25 27.3333 108.162 27.3457 107.987 27.3704C107.917 27.8591 107.941 28.2098 108.06 28.4224C108.179 28.6349 108.442 28.7822 108.85 28.8641C109.544 29.0054 110.171 28.9566 110.733 28.7176C111.611 28.3341 112.431 27.6795 113.194 26.7538C114.5 25.1728 115.283 23.6159 115.545 22.0828C115.542 22.0633 115.63 21.9112 115.808 21.6267C116.214 21.6891 116.461 21.9732 116.552 22.479ZM110.659 22.6541C109.736 23.2833 109.058 24.1771 108.625 25.3354C109.375 25.1695 109.943 24.8349 110.328 24.3315C110.714 23.8282 110.824 23.269 110.659 22.6541Z" fill="white"/>
<path d="M54.1338 59.1833H56.1335V58.4056H54.1338V59.1833ZM61.6345 61.0204C62.0594 61.0204 62.4696 60.7833 62.7699 60.487H62.7919L62.8798 60.9167H63.7515V55.0056H62.6747V56.4648L62.7186 57.1167C62.4256 56.8426 62.14 56.6648 61.6785 56.6648C60.7922 56.6648 59.9571 57.4944 59.9571 58.85C59.9571 60.2056 60.6164 61.0204 61.6345 61.0204ZM61.9129 60.1241C61.3709 60.1241 61.0632 59.6944 61.0632 58.8352C61.0632 58.0056 61.4514 57.5611 61.9129 57.5611C62.1693 57.5611 62.4256 57.6426 62.6747 57.8722V59.6944C62.4403 60.0056 62.1986 60.1241 61.9129 60.1241ZM65.6413 60.9167H66.7107V56.7685H65.6413V60.9167ZM66.1833 56.1019C66.5496 56.1019 66.8206 55.85 66.8206 55.5093C66.8206 55.1537 66.5496 54.9167 66.1833 54.9167C65.8098 54.9167 65.5388 55.1537 65.5388 55.5093C65.5388 55.85 65.8098 56.1019 66.1833 56.1019ZM69.7726 61.0204C70.842 61.0204 71.406 60.4352 71.406 59.7093C71.406 58.9389 70.8054 58.6648 70.2634 58.4574C69.8312 58.2944 69.4283 58.1833 69.4283 57.8796C69.4283 57.6426 69.6041 57.4796 69.9704 57.4796C70.278 57.4796 70.5637 57.6278 70.8567 57.8352L71.3401 57.1759C70.9959 56.9167 70.5417 56.6648 69.9411 56.6648C69.0181 56.6648 68.4175 57.1907 68.4175 57.9389C68.4175 58.6278 69.0181 58.9463 69.5382 59.1463C69.9704 59.3167 70.3952 59.4574 70.3952 59.7685C70.3952 60.0278 70.2121 60.2056 69.8019 60.2056C69.421 60.2056 69.0694 60.0426 68.7031 59.7537L68.2124 60.4352C68.6152 60.7759 69.2232 61.0204 69.7726 61.0204ZM72.9589 60.9167H74.0284V58.0648C74.336 57.7611 74.5485 57.5982 74.8854 57.5982C75.2883 57.5982 75.4641 57.8278 75.4641 58.4648V60.9167H76.5409V58.3315C76.5409 57.287 76.16 56.6648 75.2736 56.6648C74.7169 56.6648 74.3141 56.9611 73.9844 57.2722L74.0284 56.4944V55.0056H72.9589V60.9167ZM81.4413 59.3982C81.4413 59.1019 81.6244 58.8574 81.8881 58.6278C82.2323 59.087 82.6499 59.5241 83.1113 59.9093C82.855 60.0796 82.5839 60.1833 82.3202 60.1833C81.8002 60.1833 81.4413 59.8648 81.4413 59.3982ZM81.9833 56.7241C81.9833 56.3167 82.2104 56.0574 82.5253 56.0574C82.811 56.0574 82.9355 56.2574 82.9355 56.5315C82.9355 56.9315 82.6059 57.1982 82.1811 57.4574C82.0565 57.1982 81.9833 56.9537 81.9833 56.7241ZM85.4627 60.1315C85.1843 60.0796 84.8547 59.9389 84.5031 59.7389C84.9206 59.1685 85.2209 58.5315 85.4187 57.8574H84.4445C84.298 58.3982 84.0636 58.8648 83.7779 59.25C83.3457 58.9167 82.9282 58.5167 82.6059 58.1093C83.1846 57.7019 83.7706 57.25 83.7706 56.5241C83.7706 55.8056 83.2798 55.3315 82.5107 55.3315C81.639 55.3315 81.0897 55.9611 81.0897 56.7241C81.0897 57.087 81.2142 57.4944 81.4339 57.9093C80.8919 58.2574 80.4158 58.7019 80.4158 59.4648C80.4158 60.3167 81.053 61.0204 82.1884 61.0204C82.855 61.0204 83.4043 60.7982 83.8512 60.4426C84.3053 60.7315 84.7741 60.9241 85.199 61.0204L85.4627 60.1315ZM91.0589 61.0204C91.5131 61.0204 92.0112 60.8648 92.3994 60.5167L91.9746 59.7982C91.7475 59.9907 91.4691 60.1315 91.1761 60.1315C90.5828 60.1315 90.158 59.6278 90.158 58.85C90.158 58.0648 90.5828 57.5537 91.2054 57.5537C91.4398 57.5537 91.6303 57.65 91.8354 57.8278L92.3481 57.1241C92.0478 56.8648 91.6596 56.6648 91.1542 56.6648C90.0408 56.6648 89.0592 57.4648 89.0592 58.85C89.0592 60.2204 89.9236 61.0204 91.0589 61.0204ZM95.4026 61.0204C96.4281 61.0204 97.3731 60.2204 97.3731 58.85C97.3731 57.4648 96.4281 56.6648 95.4026 56.6648C94.3771 56.6648 93.4322 57.4648 93.4322 58.85C93.4322 60.2204 94.3771 61.0204 95.4026 61.0204ZM95.4026 60.1315C94.8459 60.1315 94.531 59.6278 94.531 58.85C94.531 58.0648 94.8459 57.5537 95.4026 57.5537C95.9593 57.5537 96.2743 58.0648 96.2743 58.85C96.2743 59.6278 95.9593 60.1315 95.4026 60.1315ZM101.358 55.05C101.175 54.9759 100.896 54.9019 100.581 54.9019C99.5486 54.9019 99.153 55.5685 99.153 56.4352V56.7759L98.6036 56.8204V57.6278H99.153V60.9167H100.23V57.6278H100.999V56.7685H100.23V56.413C100.23 55.9537 100.406 55.7611 100.728 55.7611C100.86 55.7611 101.021 55.7982 101.16 55.85L101.358 55.05ZM104.815 55.05C104.632 54.9759 104.354 54.9019 104.039 54.9019C103.006 54.9019 102.61 55.5685 102.61 56.4352V56.7759L102.061 56.8204V57.6278H102.61V60.9167H103.687V57.6278H104.456V56.7685H103.687V56.413C103.687 55.9537 103.863 55.7611 104.185 55.7611C104.317 55.7611 104.478 55.7982 104.617 55.85L104.815 55.05ZM107.577 61.0204C108.089 61.0204 108.61 60.8426 109.012 60.5611L108.646 59.8944C108.353 60.0796 108.06 60.1833 107.723 60.1833C107.115 60.1833 106.676 59.8278 106.588 59.1463H109.115C109.144 59.05 109.166 58.85 109.166 58.65C109.166 57.5019 108.58 56.6648 107.452 56.6648C106.471 56.6648 105.54 57.5019 105.54 58.85C105.54 60.213 106.434 61.0204 107.577 61.0204ZM106.573 58.4278C106.654 57.8204 107.035 57.5093 107.467 57.5093C107.994 57.5093 108.243 57.8648 108.243 58.4278H106.573ZM112.565 61.0204C113.078 61.0204 113.598 60.8426 114.001 60.5611L113.634 59.8944C113.341 60.0796 113.048 60.1833 112.712 60.1833C112.104 60.1833 111.664 59.8278 111.576 59.1463H114.103C114.133 59.05 114.155 58.85 114.155 58.65C114.155 57.5019 113.569 56.6648 112.441 56.6648C111.459 56.6648 110.529 57.5019 110.529 58.85C110.529 60.213 111.422 61.0204 112.565 61.0204ZM111.562 58.4278C111.642 57.8204 112.023 57.5093 112.455 57.5093C112.983 57.5093 113.232 57.8648 113.232 58.4278H111.562ZM117.949 59.1833H119.949V58.4056H117.949V59.1833Z" fill="white"/>
</svg>
